<svg width="28" height="28" viewBox="0 0 28 28" fill="none" xmlns="http://www.w3.org/2000/svg">
<path d="M2.3335 25.6667L18.6668 9.33334" stroke="#8BC34A" stroke-width="1.55556" stroke-linecap="round" stroke-linejoin="round"/>
<path d="M4.0487 14.6183L5.8337 12.8333L7.6187 14.6183C8.38101 15.3836 8.80901 16.4198 8.80901 17.5C8.80901 18.5802 8.38101 19.6164 7.6187 20.3817L5.8337 22.1667L4.0487 20.3817C3.2864 19.6164 2.8584 18.5802 2.8584 17.5C2.8584 16.4198 3.2864 15.3836 4.0487 14.6183Z" stroke="#8BC34A" stroke-width="1.55556" stroke-linecap="round" stroke-linejoin="round"/>
<path d="M8.71521 9.95166L10.5002 8.16666L12.2852 9.95166C13.0475 10.717 13.4755 11.7531 13.4755 12.8333C13.4755 13.9135 13.0475 14.9497 12.2852 15.715L10.5002 17.5L8.71521 15.715C7.95291 14.9497 7.5249 13.9135 7.5249 12.8333C7.5249 11.7531 7.95291 10.717 8.71521 9.95166Z" stroke="#8BC34A" stroke-width="1.55556" stroke-linecap="round" stroke-linejoin="round"/>
<path d="M13.3817 5.285L15.1667 3.5L16.9517 5.285C17.714 6.05031 18.142 7.08648 18.142 8.16667C18.142 9.24685 17.714 10.283 16.9517 11.0483L15.1667 12.8333L13.3817 11.0483C12.6194 10.283 12.1914 9.24685 12.1914 8.16667C12.1914 7.08648 12.6194 6.05031 13.3817 5.285Z" stroke="#8BC34A" stroke-width="1.55556" stroke-linecap="round" stroke-linejoin="round"/>
<path d="M23.3332 2.33334H25.6665V4.66668C25.6665 5.90435 25.1748 7.09134 24.2997 7.96651C23.4245 8.84168 22.2375 9.33334 20.9998 9.33334H18.6665V7.00001C18.6665 5.76233 19.1582 4.57535 20.0333 3.70018C20.9085 2.82501 22.0955 2.33334 23.3332 2.33334Z" stroke="#8BC34A" stroke-width="1.55556" stroke-linecap="round" stroke-linejoin="round"/>
<path d="M13.3818 20.3817L15.1668 22.1667L13.3818 23.9517C12.6165 24.714 11.5803 25.142 10.5002 25.142C9.41998 25.142 8.3838 24.714 7.6185 23.9517L5.8335 22.1667L7.6185 20.3817C8.3838 19.6194 9.41998 19.1914 10.5002 19.1914C11.5803 19.1914 12.6165 19.6194 13.3818 20.3817Z" stroke="#8BC34A" stroke-width="1.55556" stroke-linecap="round" stroke-linejoin="round"/>
<path d="M18.0483 15.715L19.8333 17.5L18.0483 19.285C17.283 20.0473 16.2469 20.4753 15.1667 20.4753C14.0865 20.4753 13.0503 20.0473 12.285 19.285L10.5 17.5L12.285 15.715C13.0503 14.9527 14.0865 14.5247 15.1667 14.5247C16.2469 14.5247 17.283 14.9527 18.0483 15.715Z" stroke="#8BC34A" stroke-width="1.55556" stroke-linecap="round" stroke-linejoin="round"/>
<path d="M22.7148 11.0483L24.4998 12.8333L22.7148 14.6183C21.9495 15.3806 20.9134 15.8086 19.8332 15.8086C18.753 15.8086 17.7168 15.3806 16.9515 14.6183L15.1665 12.8333L16.9515 11.0483C17.7168 10.286 18.753 9.85803 19.8332 9.85803C20.9134 9.85803 21.9495 10.286 22.7148 11.0483Z" stroke="#8BC34A" stroke-width="1.55556" stroke-linecap="round" stroke-linejoin="round"/>
</svg>
