<svg width="18" height="18" viewBox="0 0 18 18" fill="none" xmlns="http://www.w3.org/2000/svg">
<g clip-path="url(#clip0_54770_1301)">
<path d="M9.00024 6.42859V10.2857" stroke="#F53667" stroke-width="1.28571" stroke-linecap="round" stroke-linejoin="round"/>
<path d="M9.00028 14.7857C9.35532 14.7857 9.64314 14.4979 9.64314 14.1429C9.64314 13.7878 9.35532 13.5 9.00028 13.5C8.64524 13.5 8.35742 13.7878 8.35742 14.1429C8.35742 14.4979 8.64524 14.7857 9.00028 14.7857Z" stroke="#F53667" stroke-width="1.28571" stroke-linecap="round" stroke-linejoin="round"/>
<path d="M10.1443 1.34999C10.0364 1.13939 9.87245 0.962649 9.67055 0.839233C9.46865 0.715817 9.23661 0.650513 8.99998 0.650513C8.76335 0.650513 8.53131 0.715817 8.32941 0.839233C8.12751 0.962649 7.96359 1.13939 7.8557 1.34999L0.784266 15.4929C0.685639 15.6886 0.638682 15.9063 0.647855 16.1252C0.657028 16.3442 0.722026 16.5572 0.836676 16.744C0.951326 16.9308 1.11182 17.0852 1.30292 17.1925C1.49402 17.2998 1.70938 17.3565 1.92855 17.3571H16.0714C16.2906 17.3565 16.5059 17.2998 16.697 17.1925C16.8881 17.0852 17.0486 16.9308 17.1633 16.744C17.2779 16.5572 17.3429 16.3442 17.3521 16.1252C17.3613 15.9063 17.3143 15.6886 17.2157 15.4929L10.1443 1.34999Z" stroke="#F53667" stroke-width="1.28571" stroke-linecap="round" stroke-linejoin="round"/>
</g>
<defs>
<clipPath id="clip0_54770_1301">
<rect width="18" height="18" fill="white"/>
</clipPath>
</defs>
</svg>
