<svg width="265" height="411" viewBox="0 0 265 411" fill="none" xmlns="http://www.w3.org/2000/svg">
<g clip-path="url(#clip0_54827_1255)">
<path d="M112.511 379.198C117.034 379.222 121.558 379.383 126.071 379.232C131.155 379.066 135.82 379.988 139.88 383.248C142.629 386.114 144.676 389.375 145.11 393.397C145.28 394.981 146.465 395.01 147.454 395.41C150.642 396.711 152.289 399.138 152.484 402.497C152.67 405.626 151.144 407.97 148.531 409.525C147.617 410.053 146.605 410.389 145.557 410.513C144.509 410.638 143.446 410.549 142.434 410.251C141.421 409.953 140.479 409.452 139.666 408.78C138.852 408.107 138.184 407.276 137.701 406.338C135.688 402.326 137.374 397.228 141.664 395.556C144.101 394.605 144.218 393.265 143.531 391.286C142.37 387.928 140.694 384.95 137.472 383.107C133.378 381.879 129.249 380.899 124.916 381.196C122.021 381.391 119.135 380.958 116.24 380.982C115.304 380.982 114.29 380.748 113.603 381.742C113.28 382.199 113.024 382.7 112.843 383.229C111.955 386.29 109.962 388.103 106.828 388.688C103.08 389.322 99.8285 388.527 97.4889 385.276C96.4799 383.887 95.2321 383.634 93.7162 384.301C90.8843 384.969 87.9501 385.14 85.0402 385.846C85.5276 386.451 86.1661 386.217 86.6779 386.373C87.6089 386.641 88.764 386.729 88.9298 387.898C89.0955 389.068 88.0621 389.492 87.1214 389.848C87.1214 389.892 87.2482 389.848 87.4529 389.892C88.5983 390.102 90.4066 389.965 90.2994 391.452C90.1727 393.167 88.3497 392.685 87.1263 392.636C85.9105 392.602 84.6979 392.495 83.495 392.314C82.4471 392.149 81.17 392.022 80.9458 390.852C80.7216 389.682 81.9207 389.146 82.8273 388.717C81.521 388.439 79.8589 388.683 79.6298 386.602C79.5372 385.759 78.7671 386.032 78.2601 386.032C75.4233 386.109 72.5847 385.969 69.7693 385.612C68.5069 385.427 68.0243 385.881 68.0584 387.206C68.1754 391.413 68.1852 395.624 68.1949 399.835C68.1949 401.215 68.4679 402.009 70.1446 401.58C80.088 399.065 89.7633 400.927 99.3898 403.53C100.94 403.949 102.578 404.188 103.947 405.163C106.16 406.771 106.453 407.766 105.38 410.037C104.8 410.656 104.035 410.524 103.323 410.524C89.8754 410.524 76.4372 411.075 62.9893 410.978C43.2098 410.836 23.4254 410.949 3.64593 410.934C2.37864 410.934 1.01385 411.217 0.00976562 410.061C0.101488 408.617 0.112883 407.169 0.0438886 405.723C-0.160828 403.637 0.726283 403.018 2.67109 403.208C3.87558 403.254 5.08171 403.226 6.28286 403.125C7.16021 402.175 8.32515 402.268 9.45597 402.243C22.743 401.98 36.0155 402.862 49.3074 402.852C53.7429 402.852 58.2028 403.169 62.6578 403.238C64.6075 403.272 65.4215 402.589 65.3923 400.566C65.324 395.951 64.5588 391.364 64.9049 386.738C64.9926 385.534 64.2614 384.998 63.2427 384.681C61.1517 384.033 59.0461 383.419 57.1256 382.332C56.3263 381.879 55.5318 382.162 54.7811 382.43C46.183 385.471 37.7214 384.579 29.3232 381.596C28.48 381.109 27.432 380.816 27.1103 379.705C27.5441 377.56 29.06 378.408 30.1762 378.73C33.3548 379.711 36.5996 380.464 39.8856 380.982C44.7598 381.718 49.4098 380.933 54.0208 379.378C55.5513 378.862 56.2141 377.877 56.141 376.269C55.8047 368.879 56.3896 361.505 56.6821 354.13C57.0866 343.845 57.8616 333.58 58.8413 323.325C59.4555 316.954 60.8885 310.618 60.4644 304.199C59.977 296.585 60.2938 288.947 59.4896 281.353C59.2849 279.35 58.2272 277.703 57.2231 276.031C56.5553 274.924 55.7609 273.813 57.0476 272.551C57.5838 272.019 57.111 271.308 57.111 270.679C57.111 270.05 57.1354 269.299 57.8811 269.056C58.6269 268.812 59.1289 269.314 59.5042 269.855C60.7325 271.629 61.2492 273.672 61.7025 275.743C61.9657 276.971 61.917 278.395 63.8423 278.424C65.7676 278.453 66.1039 277.244 66.4743 275.836C67.6393 271.351 69.004 266.94 71.1341 262.792C72.588 259.873 74.7705 257.378 77.4705 255.549C83.3196 251.596 89.3051 247.833 95.4807 244.402C96.709 243.72 98.4491 242.452 99.38 243.963C100.404 245.664 98.2297 246.361 97.0989 247.015C91.1232 250.47 85.318 254.189 79.5518 257.952C76.6933 259.844 74.4822 262.566 73.2154 265.751C71.8555 268.885 70.9635 272.185 69.8034 275.382C66.1234 285.453 64.2809 295.937 63.467 306.514C62.8723 314.181 62.0924 321.834 61.4539 329.496C60.7033 338.469 60.1817 347.447 59.6846 356.431C59.2849 363.64 59.5968 370.878 59.5871 378.106C59.5871 379.568 60.3036 380.329 61.5758 380.816C63.9393 381.663 66.3926 382.233 68.8871 382.517C78.845 383.906 88.6129 382.678 98.3126 380.446C98.7107 380.366 99.0971 380.237 99.4629 380.061C100.077 379.734 100.628 379.276 100.438 378.55C100.175 377.633 99.3898 378.004 98.8 378.145C94.9235 379.026 90.9927 379.648 87.0337 380.007C81.1847 380.612 75.3356 380.329 69.5158 380.202C68.2193 380.173 66.2501 380.051 66.3476 378.316C66.4353 376.746 68.2973 377.014 69.5597 376.931C71.2754 376.819 72.9716 377.321 74.6484 377.321C82.5202 377.321 90.3628 376.951 98.0884 375.187C100.579 374.616 101.832 373.286 102.227 370.8C104.235 358.127 106.716 345.561 108.831 332.922C109.367 329.72 110.006 326.537 110.717 323.369C110.903 322.54 110.981 321.565 112.18 321.385C112.73 322.223 112.467 323.135 112.467 323.993C112.487 341.54 112.487 359.087 112.467 376.634C112.371 377.487 112.386 378.349 112.511 379.198Z" fill="black"/>
<path d="M191.541 376.186C191.902 374.928 190.567 372.706 193.442 372.881C196.255 371.234 199.17 371.794 202.089 372.462C203.283 373.437 202.908 374.899 202.942 376.103C203.059 380.149 203.512 384.175 203.537 387.557C203.337 383.882 203.132 379.544 202.85 375.211C202.791 374.338 202.582 373.422 203.244 372.647C206.079 371.599 209.134 371.292 212.12 371.755C214.026 372.155 214.372 373.617 214.479 375.235C214.601 377.014 213.992 378.774 214.328 380.553C214.777 384.623 215.157 388.712 217.253 392.992C219.042 389.643 220.582 386.738 221.854 383.702C224.247 377.994 225.753 372.004 226.894 365.965C227.104 364.868 227.113 363.688 227.869 362.733C228.06 362.554 228.309 362.45 228.571 362.441C229.099 362.525 229.6 362.73 230.035 363.042C230.47 363.353 230.826 363.761 231.076 364.234C231.646 367.792 230.915 371.297 230.535 374.811C230.186 377.53 229.688 380.228 229.044 382.893C230.506 377.799 230.867 371.307 231.583 364.858C232.3 363.883 233.411 363.927 234.434 363.81C240.201 363.133 243.578 360.267 245.05 354.778C245.484 354.096 245.377 352.941 246.62 352.965C248.394 359.238 250.12 365.521 252.956 371.433C253.442 372.368 253.736 373.39 253.819 374.44C253.903 375.49 253.775 376.546 253.444 377.546C253.01 379.032 252.605 380.577 251.723 381.815C248.409 386.461 247.054 391.915 245.163 397.145C244.179 400.072 242.671 402.795 240.712 405.182C239.318 406.825 237.7 407.386 235.531 406.898C232.119 406.138 228.746 405.319 225.295 404.851C225.056 404.822 224.808 404.739 224.579 404.724C213.812 404.159 202.991 402.316 192.409 406.303C191.273 406.732 189.972 407.303 188.69 406.43C189.397 402.716 190.118 399.007 190.805 395.293C190.952 394.508 190.986 393.709 191.074 392.914C190.635 392.143 190.434 391.259 190.498 390.375C190.601 386.763 190.537 383.151 190.552 379.544C190.576 378.33 190.645 377.146 191.541 376.186Z" fill="#F1B5D7"/>
<path d="M188.709 406.445C195.753 404.271 202.879 402.545 210.317 402.672C211.61 402.701 212.9 402.804 214.182 402.979C221.898 403.998 229.779 403.827 237.276 406.435C238.197 406.757 238.592 406.143 239.113 405.65C241.853 403.062 243.31 399.684 244.499 396.263C246.337 390.994 248.165 385.759 251.104 380.962C252.894 378.143 253.549 374.75 252.937 371.468C254.847 373.003 254.857 375.201 254.998 377.356C255.042 380.49 253.137 382.746 251.513 385.13C249.335 388.41 248.487 392.241 247.068 395.853C245.786 399.158 245.05 402.677 243.354 405.821C241.536 409.233 239.26 411.085 234.966 411.007C220.153 410.739 205.33 410.91 190.513 410.89C189.504 410.89 187.968 411.309 187.705 410.164C187.442 409.018 187.164 407.332 188.709 406.445Z" fill="#000001"/>
<path d="M247.068 395.839C247.833 391.968 248.199 387.938 251.513 385.115C250.542 388.881 249.045 392.49 247.068 395.839Z" fill="#02482C"/>
<path d="M245.894 109.567C250.583 108.368 255.257 107.13 259.961 105.98C263.246 105.18 264.786 106.73 263.996 110.035C262.817 114.977 261.559 119.9 260.336 124.828C260.477 126.047 259.41 126.198 258.703 126.617C257.996 127.036 257.075 127.343 256.344 127.86C255.33 128.576 255.281 129.083 256.456 129.771C258.664 131.057 258.62 131.769 256.354 132.929C254.55 133.85 252.635 134.523 250.797 135.366C250.095 135.693 249.218 135.79 248.764 136.828C251.382 136.638 253.795 135.971 256.256 135.634C257.397 135.478 259.073 134.835 259.395 136.38C259.746 138.067 257.933 138.252 256.714 138.466C254.009 138.954 251.309 139.441 248.589 139.865C247.999 139.953 247.273 139.69 246.825 140.533C247.717 141.337 248.799 141.02 249.788 141.02C251.738 141.05 253.687 140.913 255.613 141.103C256.48 141.191 257.592 141.303 257.523 142.502C257.47 143.477 256.456 143.613 255.657 143.696C253.492 143.911 251.27 143.618 248.833 144.31C249.895 145.228 251.245 145.745 252.649 145.773C253.444 145.816 254.287 145.607 254.979 146.211C255.184 148.341 253.605 149.16 252.103 149.877C250.036 150.782 247.799 151.233 245.543 151.198C245.123 151.261 244.646 151.105 244.324 151.534C243.647 152.738 242.374 152.821 241.244 153.172C238.875 153.913 236.472 154.517 234.088 155.204C230.749 156.018 227.571 157.441 224.121 157.827C222.273 157.734 220.421 157.778 218.691 158.475C216.824 159.225 215.162 157.763 213.29 158.143C212.51 158.304 211.886 158.143 211.34 158.987C210.302 160.571 208.933 161.702 206.807 161.76C205.233 161.804 204.01 162.886 202.854 163.91C201.662 164.619 200.333 165.069 198.955 165.23C195.616 165.771 193.657 163.793 194.208 160.42C194.388 159.303 194.695 158.207 194.963 157.105C195.343 155.511 194.841 154.79 193.121 155.068C191.283 155.37 189.421 155.487 187.564 155.672C186.833 155.75 186.102 155.716 185.546 155.097C185.459 154.923 185.412 154.731 185.408 154.537C185.404 154.342 185.443 154.149 185.522 153.971C186.921 152.314 188.934 152.718 190.727 152.509C196.045 151.817 196.04 151.851 197.347 146.621C199.15 139.392 200.7 132.105 202.406 124.857C203.381 120.831 205.54 118.389 209.561 117.585C215.362 116.43 220.977 114.514 226.782 113.398C227.786 113.096 228.795 112.799 229.818 112.55C233.269 111.702 233.367 111.682 233.006 108.241C232.519 103.411 231.905 98.5953 231.018 93.8088C230.559 91.3717 229.492 89.9094 226.913 89.5C224.99 89.1909 223.116 88.6254 221.342 87.8184C219.12 86.8436 218.969 85.5909 220.816 84.0409C224.203 81.1944 224.228 81.1164 220.367 78.9474C216.765 76.9392 213.124 74.9895 209.342 73.3128C208.304 72.8254 207.821 71.9236 207.504 70.8757C207.407 70.3883 207.431 69.9009 207.339 69.3891C207.558 67.9609 206.973 67.2152 205.564 66.7277C202.323 65.5969 199.857 63.3646 197.849 60.6301C197.298 59.8795 196.508 58.8462 197.512 58.0517C198.516 57.2572 199.33 58.2466 199.949 58.9632C201.344 60.6579 203.005 62.1147 204.867 63.2768C208.05 65.1778 211.033 64.9633 213.826 62.4969C217.648 59.1289 219.48 54.6105 220.65 49.824C221.342 47.0165 222.195 44.1992 221.976 41.2162C221.786 38.6085 220.952 37.7458 218.364 37.8579C217.633 37.8871 216.931 38.1406 216.2 38.1649C215.469 38.1893 214.587 38.2283 214.401 37.3266C214.236 36.5175 214.889 35.9813 215.586 35.6694C216.911 35.0255 218.392 34.7719 219.856 34.9382C221.513 35.1722 221.654 34.4167 221.318 33.1445C220.991 31.9747 220.733 30.7854 219.792 29.5181C216.941 35.0503 212.539 34.3095 207.831 32.5158C208.219 32.837 208.645 33.1103 209.098 33.3297C209.51 33.5912 209.891 33.8986 210.234 34.2461C210.668 34.7335 211.097 35.3087 210.677 35.9862C210.258 36.6637 209.552 36.5126 208.928 36.3079C207.924 35.9764 207.066 35.333 206.086 34.9236C204.775 34.3874 203.897 34.4362 203.23 36.0203C201.845 39.2958 200.076 40.0123 196.62 39.0569C193.325 38.1454 192.321 38.7937 191.98 42.1959C191.8 44.0189 190.747 45.9832 192.955 47.4795C193.662 47.967 193.394 48.8882 192.575 49.2586C191.069 49.941 190.869 51.3155 190.591 52.6706C189.745 56.6492 188.222 60.4529 186.087 63.9153C185.327 65.168 184.474 66.3524 183.051 66.9861C181.223 67.4735 179.79 69.4865 177.557 68.4142C175.866 67.3516 173.955 67.0689 172.025 66.7619C167.677 66.0746 166.254 64.4807 167.078 60.1768C167.765 56.5602 167.078 54.1231 163.666 52.4366C161.599 51.4179 161.229 49.5121 162.335 47.4747C163.607 45.1643 164.538 43.1318 161.819 40.9237C160.356 39.7247 160.907 37.5654 162.238 36.342C164.636 34.1291 165.786 31.731 165.089 28.4117C164.748 26.7837 165.762 25.6529 167.477 25.3263C168.038 25.2239 168.584 25.068 169.144 24.9754C172.99 24.3271 173.624 23.3474 172.649 19.5406C171.718 17.2156 172.283 15.4951 174.54 14.6664C176.722 13.8341 179.025 13.3616 181.359 13.2675C182.193 12.2927 182.295 11.079 182.334 9.85559C182.451 7.37462 183.923 5.55655 186.194 5.67353C191.069 5.93674 194.968 4.08941 198.565 1.18927C198.98 0.928778 199.421 0.71156 199.881 0.541004C201.543 -0.463081 202.806 -0.0438948 203.688 1.62796C204.387 2.8194 205.263 3.89757 206.286 4.82543C207.587 6.09759 209.035 6.63375 210.921 6.12683C212.549 5.68815 214.221 5.2641 215.946 5.38596C218.12 5.00577 219.719 5.68328 220.333 7.94491C221.113 10.7281 222.736 11.8443 225.495 12.0685C227.654 12.2391 229.75 13.1895 230.496 15.3586C231.411 18.1846 233.116 20.6895 235.409 22.5773C237.266 24.1662 237.763 26.0477 237.003 28.4263C236.316 30.5661 237.222 32.3793 238.787 33.8757C239.952 34.9967 241.068 36.1519 241.741 37.6532C242.857 39.6418 242.618 40.836 240.678 43.2097C240.054 43.9701 239.411 44.672 238.426 44.9596C237.705 46.5973 238.782 47.7184 239.567 48.9223C241.926 52.5243 241.682 53.7185 237.9 55.7169C235.687 56.8867 234.975 58.3149 235.823 60.83C236.998 64.3638 236.096 65.6408 232.494 66.484C227.986 67.5369 227.908 67.5369 227.459 72.1527C227.221 74.6434 226.426 76.5395 223.76 77.1537C223.112 77.5826 223.107 77.6021 223.419 77.8312C224.272 78.4502 225.31 78.7573 226.095 79.5079C227.957 81.287 227.922 82.4958 225.895 84.036C225.407 84.4211 224.774 84.694 224.379 85.4593C225.841 86.4683 227.537 86.7705 229.136 87.1701C231.666 87.8038 232.938 89.2904 233.479 91.8006C234.483 96.6532 235.243 101.553 235.755 106.482C236.243 110.917 236.179 110.917 240.629 109.894C242.37 109.465 244.095 108.875 245.894 109.567Z" fill="black"/>
<path d="M245.162 349.236L246.137 350.016C246.59 350.934 246.751 351.968 246.6 352.98C245.596 353.36 246.639 354.559 245.786 355.002C243.939 353.053 243.749 351.483 245.162 349.236Z" fill="#0A0804"/>
<path d="M13.1701 331.012C12.7315 325.762 11.3813 320.664 10.5429 315.478C8.10585 300.455 5.95632 285.414 5.39092 270.177C5.18854 264.514 5.33506 258.845 5.82961 253.2C6.39501 246.61 9.68998 242.555 15.8022 240.254C23.5327 237.33 31.58 236.092 39.6858 235.024C41.7671 234.751 43.8532 234.488 45.9345 234.22C49.4585 233.762 52.8705 232.66 56.4628 232.602C60.7082 232.529 64.8562 233.377 69.0528 233.801C71.3876 234.04 73.7126 234.425 76.0571 234.624C79.3861 234.907 82.5349 235.599 85.5325 237.344C89.7828 239.82 94.6278 240.435 99.4483 241.2C106.901 242.379 114.071 240.673 121.338 239.772C125.725 239.226 130.17 238.885 134.606 238.69C137.506 238.563 140.401 238.797 143.321 238.285C146.582 237.71 147.449 238.402 148.751 241.429C148.878 241.726 148.692 241.365 148.843 241.648C151.568 246.8 151.632 251.577 148.712 257.026C143.886 266.024 139.394 275.209 135.235 284.58C134.416 286.442 132.924 287.456 131.082 288.06C128.062 289.018 124.947 289.645 121.792 289.932C119.004 290.21 117.507 288.889 117.61 286.179C117.731 282.889 116.411 280.042 115.519 277.552C116.376 279.014 116.757 281.134 117.366 283.186C117.575 283.878 117.761 284.76 116.952 285.136C116.045 285.574 115.743 284.648 115.333 284.093C115.034 283.713 114.708 283.354 114.358 283.02C115.399 284.023 116.306 285.155 117.059 286.388C118.331 288.367 119.009 290.532 118.404 293.071C117.112 298.515 116.084 304.023 115.119 309.541C114.631 312.353 114.734 312.495 117.512 312.514C122.221 312.548 126.929 312.514 131.647 312.548C132.832 312.548 134.128 312.353 135.001 313.523C130.492 314.167 125.959 313.635 121.441 313.796C120.388 313.835 119.33 313.796 118.277 313.796C112.823 313.796 112.458 314.191 112.467 319.825C112.467 332.807 112.467 345.789 112.467 358.77C112.467 365.594 112.485 372.408 112.521 379.213C111.839 378.345 112.136 377.331 112.136 376.386C112.116 359.163 112.116 341.941 112.136 324.719V322.053L111.795 322.004C110.62 328.511 109.426 335.009 108.271 341.501C106.462 351.698 104.61 361.885 102.943 372.101C102.568 374.368 101.305 375.245 99.3899 375.752C94.7545 376.98 90.007 377.356 85.2547 377.863C79.8151 378.447 74.4291 378.14 69.0187 377.824C68.273 377.78 67.42 377.492 66.5816 378.311C67.8538 379.086 69.1552 379.193 70.481 379.218C80.4633 379.398 90.4262 379.374 100.15 376.644C100.857 376.444 101.832 376.093 101.798 377.229C101.754 378.584 102.007 380.334 100.14 380.85C97.9631 381.485 95.7536 382.004 93.5213 382.405C83.8314 384.028 74.1122 384.867 64.398 382.63C58.4953 381.304 58.5294 381.216 58.5294 375.148C58.5294 369.381 58.2906 363.601 58.6123 357.854C59.0997 348.812 59.4556 339.761 60.3719 330.739C61.0494 324.066 62.1315 317.374 62.2582 310.711C62.4288 301.572 63.9203 292.647 66.1576 283.956C68.1073 276.279 70.0569 268.398 74.3072 261.457C75.11 260.142 76.1874 259.017 77.4657 258.157C83.5584 253.995 89.7536 249.998 96.1924 246.386C97.2842 245.772 98.3273 245.08 99.5263 244.339C98.3078 243.51 97.6498 244.217 97.0112 244.578C90.0753 248.477 83.2952 252.625 76.7784 257.177C73.2983 259.614 71.7044 263.416 70.1983 267.208C68.8559 270.517 67.8246 273.944 67.1178 277.444C66.5329 280.447 64.3054 279.102 62.6871 279.331C60.9568 279.579 61.1128 278.283 60.9568 277.123C60.6461 274.164 59.6134 271.327 57.9494 268.861C57.54 271.113 59.0802 272.356 58.9242 273.959C58.0615 274.271 57.8178 272.984 56.9989 273.282C56.9453 273.404 56.7942 273.628 56.8381 273.672C60.484 277.493 60.7667 282.392 60.9422 287.217C61.1566 292.964 61.1518 298.715 61.4296 304.467C61.7415 311.032 60.2646 317.496 59.7041 324.017C59.3288 328.37 58.856 332.713 58.6026 337.07C57.8227 350.494 56.8966 363.913 57.1403 377.37C57.1744 379.252 55.9607 379.671 54.6642 380.163C47.0458 383.058 39.4226 382.6 31.7993 380.192C30.7124 379.851 29.6303 379.5 28.5678 379.11C27.8854 378.862 27.4613 378.964 27.3638 379.749C26.1209 379.807 26.038 378.735 25.7115 377.975C21.9583 369.201 19.2483 360.135 16.9964 350.898C16.7283 349.797 16.4018 348.681 17.1085 347.608C16.0996 342.968 14.725 338.416 14.1011 333.688C13.9793 332.776 13.9062 331.743 13.1701 331.012Z" fill="#013A17"/>
<path d="M29.0064 380.417C37.8677 383.624 46.7728 384.516 55.7609 380.904C56.4237 380.636 56.8527 380.67 57.5936 381.25C59.5871 382.805 62.1412 383.248 64.5734 383.804C65.7335 384.072 66.1234 384.54 66.1283 385.754C66.1283 391.262 66.2079 396.77 66.3671 402.277C66.411 403.842 66.0015 404.437 64.3394 404.349C59.8162 404.11 55.2832 403.978 50.755 403.891C40.5436 403.696 30.337 403.559 20.1256 403.379C15.5097 403.296 10.8938 403.169 6.27798 403.062C4.94245 402.575 3.54843 402.799 2.19828 402.857C0.248598 402.94 0.2486 402.117 0.828629 400.679C1.55001 398.817 2.90017 397.428 4.12359 395.936C4.24545 394.961 4.94246 394.367 5.64434 393.821C8.9393 391.271 12.595 389.327 16.3091 387.484C16.5846 387.307 16.9013 387.204 17.2284 387.185C17.5555 387.166 17.8819 387.232 18.1759 387.377C18.7998 387.996 18.8193 388.815 18.868 389.736C18.907 388.873 18.4245 387.874 19.2434 387.474C20.7641 386.724 21.6025 388.474 22.8308 388.766C23.0355 388.708 23.1573 388.6 23.1671 388.42C23.4595 384.062 23.4547 384.062 27.5003 385.744C27.1708 384.472 27.0555 383.154 27.1591 381.845C27.2468 380.729 28.0413 380.451 29.0064 380.417Z" fill="#C6AE55"/>
<path d="M185.804 155.087C188.846 154.746 191.897 154.483 194.919 154.039C196.464 153.81 196.562 154.356 196.226 155.599C195.762 157.31 195.382 159.05 195.022 160.785C194.456 163.51 195.879 164.987 198.633 164.446C200.047 164.168 201.417 163.656 202.806 163.247C205.881 161.58 209.322 160.912 212.598 159.835C214.913 159.05 215.42 159.659 215.703 162.062C216.955 172.727 218.038 183.406 218.666 194.13C218.891 197.995 218.978 197.99 215.04 197.99H214.143C219.553 198.024 218.988 197.347 219.344 203.03C219.831 210.848 220.263 218.671 220.64 226.499C221.23 239.006 221.849 251.504 222.132 264.03C222.205 267.491 222.458 270.971 222.522 274.452C222.556 276.499 221.708 277.688 219.597 277.824C218.535 277.893 217.594 278.473 216.673 278.565C217.726 278.946 219.31 276.616 220.182 279.194C220.319 279.594 220.484 278.989 220.611 278.868C222.108 277.376 222.863 277.405 224.111 279.082C229.931 286.968 234.147 295.693 237.218 304.964C239.094 310.628 236.959 316.984 232.246 320.742C228.571 323.666 224.603 325.884 219.744 326.069C214.202 326.279 209.537 324.69 206.53 319.704C204.161 315.77 202.528 311.476 201.061 308.395C203.01 312.08 204.526 317.296 207.885 321.585C208.859 322.857 207.836 323.296 206.739 323.418C205.36 323.579 204.039 322.672 202.664 323.023C199.579 323.822 196.581 322.628 193.53 322.735C193.327 322.756 193.123 322.715 192.943 322.619C192.763 322.523 192.616 322.375 192.521 322.194C193.886 315.034 195.236 307.874 196.63 300.723C196.842 299.946 196.808 299.122 196.533 298.364C193.283 290.413 190.055 282.452 186.848 274.481C185.99 274.159 185.678 273.394 185.385 272.638C178.927 255.237 172.859 237.734 168.521 219.646C166.771 212.335 167.838 205.355 168.911 198.243C169.3 195.684 169.481 193.091 170.149 190.576C170.458 189.735 171.007 189.003 171.728 188.471C174.93 185.692 177.026 182.178 178.61 178.308C181.133 171.897 183.009 165.249 184.211 158.465C184.445 157.217 184.449 155.814 185.804 155.087Z" fill="#C75401"/>
<path d="M170.675 190.557C170.1 196.055 169.622 201.553 168.379 206.973C167.682 210 168.335 213.08 168.896 216.102C171.684 231.022 176.602 245.348 181.569 259.61C183.304 264.562 185.047 269.512 186.799 274.461C183.172 283.449 177.972 291.365 170.743 297.857C160.556 307.036 148.683 312.387 134.962 313.489L116.44 313.426C113.379 313.426 113.384 313.426 113.964 310.501C115.226 304.165 116.649 297.828 117.673 291.448C118.204 288.143 115.723 285.803 113.925 283.357C113.296 282.513 112.146 282.036 111.853 280.432C114.095 281.539 115.207 283.318 116.966 285.243C116.557 280.963 115.104 277.649 113.067 274.3C114.412 274.144 114.753 275.012 115.138 275.729C117.025 279.053 118.136 282.76 118.389 286.574C118.497 288.601 119.408 289.371 121.314 289.079C124.672 288.567 128.036 288.07 131.287 287.017C132.944 286.481 133.802 285.37 134.557 283.776C139.431 273.443 144.411 263.155 149.497 252.912C150.471 250.929 150.744 249.174 149.862 247.141C148.931 244.987 148.083 242.784 147.357 240.556C146.918 239.206 146.104 238.792 144.812 238.894C134.577 239.674 124.341 239.791 114.154 241.565C103.83 243.369 93.5993 242.443 84.1239 237.51C80.5608 235.658 76.8125 235.706 73.0594 235.263C67.2884 234.576 61.5661 233.279 55.7073 233.557C52.968 233.689 50.2433 234.044 47.5138 234.347C46.9386 234.41 46.3927 234.527 45.8712 234.191L51.6324 232.241C46.7582 226.47 42.4202 220.153 37.8385 214.036C32.7953 207.29 27.7716 200.531 22.7674 193.759C22.0802 192.833 20.9737 191.946 21.7926 190.542C22.6115 189.138 23.986 189.845 25.0876 189.996C29.8886 190.654 34.6751 191.41 39.4616 192.126C40.2553 191.697 41.1728 191.554 42.0595 191.722C48.8054 192.999 55.7073 193.501 62.3801 195.095C68.3168 195.948 74.2341 196.937 80.166 197.79C81.6172 197.976 83.0138 198.461 84.2668 199.217C85.5198 199.972 86.6016 200.98 87.4432 202.177C90.0752 205.774 92.8048 209.308 95.3345 212.983C95.8219 213.719 96.3483 214.445 96.2119 215.42C95.6416 216.682 94.4572 216.717 93.3263 216.809C91.791 216.936 90.2507 216.98 88.7348 217.258C88.1938 217.355 87.4968 217.419 87.4237 218.13C87.3262 219.066 88.2036 219.007 88.7592 219.222C89.3121 219.35 89.8719 219.446 90.4359 219.51C91.1281 219.685 92.0932 219.748 92.0688 220.645C92.0444 221.435 91.1573 221.698 90.4506 221.908C89.5786 222.094 88.6965 222.229 87.8087 222.312C87.0484 222.454 86.171 222.4 85.6641 223.35C86.4878 224.369 87.6674 224.325 88.7446 224.272C92.2443 224.121 95.6952 224.759 99.1803 224.827C99.5078 224.829 99.8343 224.863 100.155 224.93C101.067 225.125 102.037 225.417 102.022 226.509C102.022 227.786 100.828 227.698 99.9942 227.659C96.6798 227.508 93.341 227.606 90.0557 227.045C89.594 226.948 89.1237 226.898 88.652 226.894C92.964 227.826 97.2236 228.986 101.413 230.369C102.246 230.632 103.275 231.095 102.948 232.207C102.621 233.318 101.525 233.118 100.662 232.953C97.6302 232.377 94.6862 231.456 91.8251 230.657C95.0128 232.304 98.3419 233.903 101.764 235.321C104.337 236.389 106.906 237.271 109.777 236.686C110.717 236.496 111.726 236.545 112.389 237.525C112.263 239.742 111.644 240.366 109.465 240.264C104.235 240.015 99.0438 239.348 93.8674 238.587C91.7391 238.325 89.6282 237.938 87.5455 237.427C86.985 237.393 86.5268 237.003 85.9663 236.94C86.1999 236.976 86.4277 237.043 86.6438 237.14C94.0357 239.372 101.736 240.413 109.455 240.225C113.559 240.113 117.6 238.894 121.704 238.373C125.559 237.806 129.448 237.507 133.343 237.476C136.931 237.52 140.47 236.94 144.042 236.94C145.3 236.94 145.992 236.491 145.992 235.078C145.992 233.299 146.323 231.524 146.304 229.716C145.987 226.26 147.834 224.486 150.876 223.287C153.917 222.088 156.769 220.255 159.484 218.34C161.75 216.746 162.993 214.65 162.896 211.774C162.633 204.921 160.853 198.37 158.996 191.839C158.662 190.931 158.428 189.99 158.299 189.031C158.226 188.724 158.324 188.344 157.9 188.207C157.451 188.237 157.013 188.49 156.559 188.256C156.429 188.147 156.324 188.01 156.252 187.856C156.18 187.702 156.142 187.534 156.14 187.364C157.744 184.44 156.871 181.627 155.789 178.771C153.177 171.869 151.051 164.787 148.181 157.973C146.172 153.201 143.433 149.136 138.661 146.713C137.75 146.25 136.093 145.675 137.116 144.325C137.964 143.199 139.139 144.189 139.968 145.017C142.458 146.401 144.871 148.01 146.304 150.467C148.005 153.357 150.715 154.21 153.591 154.985C153.81 154.877 154.06 154.847 154.299 154.899C154.538 154.951 154.752 155.083 154.907 155.272C156.92 157.758 159.781 158.806 162.633 159.83C165.416 161.721 168.379 163.412 170.227 166.391C170.577 167.471 170.656 168.621 170.456 169.739C169.661 175.33 169.452 180.989 168.599 186.57C168.282 188.544 168.365 190.089 170.675 190.557Z" fill="black"/>
<path d="M245.162 349.236C245.006 351.186 245.538 353.087 245.801 355.003C245.182 361.139 238.836 365.589 232.007 364.673C231.456 364.673 231.154 364.078 230.593 364.112C229.882 363.825 229.131 363.591 228.751 362.826C228.156 361.753 227.479 360.73 226.86 359.667C224.16 354.232 221.376 348.837 218.939 343.763C216.858 351.834 214.811 360.335 213.139 368.967C212.929 370.215 213.163 371.624 211.911 372.506L203.249 372.993C203.122 373.108 202.957 373.171 202.786 373.171C202.615 373.171 202.45 373.108 202.323 372.993L193.442 372.886C192.932 363.186 192.892 353.487 193.32 343.787C193.603 337.402 193.93 331.036 194.997 324.729C195.105 324.26 195.238 323.798 195.397 323.345C195.719 322.716 196.313 322.691 196.859 322.774C200.783 323.359 204.726 323.033 208.664 323.057C209.152 323.07 209.628 323.211 210.044 323.466C218.257 328.107 225.573 325.904 232.329 320.381C234.127 318.919 235.395 316.877 236.423 314.732C236.842 313.859 236.959 312.621 238.304 312.475C240.118 316.414 240.527 320.698 241.229 324.88C242.501 332.357 243.534 339.878 244.685 347.374C244.802 348.003 245.006 348.617 245.162 349.236Z" fill="#8B4A0D"/>
<path d="M238.314 312.49C235.936 317.242 233.128 321.604 228.127 324.056C222.278 326.912 216.429 327.532 210.492 324.388C209.719 323.959 208.852 323.727 207.967 323.71C203.776 323.622 199.584 323.481 195.397 323.359C194.539 323.31 193.676 323.306 192.828 323.213C192.063 323.125 191.853 322.774 192.492 322.185H207.485C203.912 317.13 201.636 311.042 198.926 304.847C200.471 304.847 200.466 305.822 200.763 306.46C202.226 309.614 203.834 312.729 205.106 315.965C209.391 326.854 220.158 326.917 227.381 323.184C232.806 320.381 236.126 315.872 237.588 309.95C237.775 309.337 237.801 308.685 237.661 308.059C235.638 299.773 227.791 284.4 222.41 278.195C220.772 278.989 220.431 281.295 218.369 281.797C218.145 280.335 219.695 279.915 219.856 278.385L212.905 279.95C213.344 278.365 214.499 278.58 215.298 278.37C221.839 276.616 221.966 276.625 221.761 269.972C221.454 260.092 220.982 250.217 220.528 240.347C220.005 228.938 219.449 217.532 218.861 206.13C218.764 204.107 218.423 202.099 218.413 200.081C218.413 198.755 217.925 198.409 216.707 198.472C215.089 198.555 213.461 198.497 211.833 198.472C211.297 198.472 210.682 198.58 210.322 197.498C212.457 197.498 214.44 197.41 216.41 197.522C217.833 197.605 218.247 197.093 218.125 195.733C217.477 188.315 216.907 180.891 216.244 173.473C215.898 169.598 215.293 165.742 215.05 161.862C214.938 160.035 214.338 159.961 212.851 160.4C209.522 161.429 206.154 162.306 202.801 163.247C203.629 161.57 205.306 161.209 206.842 161.058C208.874 160.858 210.117 159.957 210.741 158.134C210.926 157.593 211.516 157.125 211.75 157.266C213.305 158.212 215.332 155.887 216.707 158.056C217.068 158.626 217.799 157.963 218.208 157.812C220.026 157.227 221.937 156.987 223.843 157.105C223.165 158.972 221.333 158.948 219.865 159.43C216.97 160.381 216.941 160.322 217.248 163.256C218.223 172.863 219.198 182.461 219.807 192.097C219.856 192.911 220.07 193.701 220.143 194.505C220.28 196.026 221.118 196.596 222.58 196.542C223.706 196.503 224.861 196.464 225.939 196.932C226.176 196.996 226.387 197.132 226.542 197.322C226.698 197.511 226.79 197.745 226.806 197.99C226.806 198.56 226.392 198.843 225.934 199.043C224.857 199.53 223.701 199.452 222.575 199.433C221.186 199.433 220.528 199.837 220.592 201.412C220.913 209.522 221.567 217.609 221.966 225.709C222.264 231.461 222.454 237.213 222.717 242.969C223.155 253.254 223.804 263.528 223.731 273.832C223.724 275.469 224.261 277.062 225.256 278.361C227.798 281.933 230.124 285.653 232.222 289.503C232.948 290.79 233.557 292.106 233.362 293.641C234.824 297.355 236.287 301.079 237.749 304.784C238.761 307.225 238.959 309.927 238.314 312.49Z" fill="#030202"/>
<path d="M101.958 399.738C102.236 401.78 104.049 403.437 103.46 405.694C93.7649 402.648 83.9629 400.372 73.693 401.727C72.0964 401.972 70.5265 402.367 69.004 402.906C67.7903 403.316 67.2883 403.267 67.2834 401.77C67.2834 396.584 67.1664 391.403 67.0592 386.217C67.0592 384.993 67.0592 384.292 68.7701 384.565C72.879 385.227 77.0562 385.179 81.2529 385.106C81.2529 386.271 79.7906 386.197 80.0392 387.445L85.4934 388.196C84.2505 389.556 82.1253 389.283 80.8483 390.969C83.8836 391.66 87.005 391.893 90.1093 391.661C88.3936 390.487 86.283 391.067 84.3187 390.238L88.9151 388.196C86.9167 386.621 84.5283 387.504 82.6274 386.568C84.426 384.423 87.0142 384.579 89.4025 384.131C90.9038 383.863 92.4197 383.643 93.9258 383.375C94.4158 383.404 94.888 383.569 95.2887 383.852C95.6894 384.136 96.0024 384.526 96.1923 384.979C98.142 389.249 100.199 393.479 101.958 397.837C102.105 398.133 102.181 398.458 102.181 398.787C102.181 399.117 102.105 399.442 101.958 399.738Z" fill="#C6AE55"/>
<path d="M230.589 364.112C230.725 363.766 230.769 363.22 231.266 363.347C231.885 363.498 231.875 364.161 232.002 364.673C231.578 371.521 230.891 378.321 229.078 384.984C228.844 385.856 228.941 386.933 227.357 387.908C229.087 379.71 231.154 372.062 230.589 364.112Z" fill="#130E11"/>
<path d="M202.318 372.988H203.244C203.605 379.468 203.962 385.949 204.317 392.431L203.342 392.475C202.762 386.002 202.513 379.495 202.318 372.988Z" fill="#1C1519"/>
<path d="M228.151 362.757L227.576 361.622C227.45 361.505 227.352 361.361 227.288 361.201C227.225 361.041 227.199 360.869 227.211 360.697C227.223 360.525 227.274 360.358 227.359 360.209C227.444 360.059 227.561 359.931 227.703 359.833C228.361 360.72 229.307 361.51 228.756 362.826L228.151 362.757Z" fill="#0B0504"/>
<path d="M96.0607 215.522C92.8729 211.136 89.6852 206.749 86.4975 202.362C85.8292 201.396 84.9653 200.582 83.9619 199.971C82.9584 199.361 81.8378 198.968 80.6728 198.819C74.5898 197.922 68.5312 196.869 62.4628 195.894C61.5513 194.695 62.4141 193.74 62.9844 192.833C64.6038 190.211 66.8328 188.019 69.4816 186.443C70.1153 186.068 71.1828 185.77 70.8464 184.737C70.5589 183.865 69.5694 183.874 68.7798 183.762C67.7034 183.569 66.5967 183.63 65.5481 183.941C64.4995 184.251 63.5381 184.803 62.7406 185.551C62.0485 186.19 61.4636 187.047 60.3572 187.057C60.1181 187.02 59.893 186.921 59.704 186.77C58.9777 185.936 58.8072 184.898 58.5976 183.845C57.5545 178.566 56.0435 173.351 55.2149 167.984C55.0394 166.824 54.7957 165.245 52.9289 165.406C51.0621 165.567 50.5941 166.868 50.5503 168.462C50.5113 169.763 50.8232 171.031 50.8573 172.322C50.8492 172.561 50.8065 172.798 50.7306 173.024C50.3553 173.882 49.6095 173.931 48.9369 173.624C46.5388 172.522 44.6769 173.341 43.0343 175.125C42.9246 175.16 42.8079 175.168 42.6947 175.146C42.5815 175.125 42.4754 175.076 42.386 175.003C44.4137 167.692 46.9482 160.576 51.647 154.532C57.6471 146.782 65.7821 142.146 75.126 139.422C76.4225 139.972 76.4079 141.045 76.2324 142.18C76.1312 142.661 75.8944 143.102 75.55 143.453C72.2356 146.377 72.7912 150.003 73.8246 153.591C75.2868 158.753 78.3917 162.92 82.5981 166.166C87.4723 169.91 93.3214 169.763 98.0542 165.83C102.582 162.057 105.473 157.056 107.9 151.792C108.887 149.656 109.702 147.444 110.337 145.178C111.497 141.011 110.459 139.178 106.34 137.823C105.278 137.472 103.777 137.589 103.655 135.873C103.723 135.771 103.791 135.673 103.854 135.571C115.626 135.707 126.939 137.867 137.54 143.155C138.456 143.609 139.553 143.886 139.928 145.042C139.032 145.012 138.276 143.906 137.272 144.627C137.249 144.796 137.289 144.968 137.383 145.111C137.477 145.253 137.619 145.357 137.784 145.402C143.36 147.62 146.611 151.929 148.804 157.325C152.246 165.796 155.141 174.457 158.065 183.099C158.796 185.239 156.847 186.073 156.398 187.603C155.511 189.704 153.581 190.723 151.734 191.576C146.284 194.091 140.557 195.567 134.479 195.27C132.12 195.158 130.395 194.295 129.4 191.926C127.996 188.578 126.476 185.273 125.101 181.92C126.281 184.786 127.611 187.554 128.718 190.42C129.736 193.072 131.262 195.041 134.201 195.592C136.424 198.57 138.822 201.441 140.689 204.663C140.73 204.898 140.72 205.139 140.66 205.37C139.631 207.017 137.794 207.68 136.326 208.781C133.524 210.848 131.506 213.778 128.528 215.635C126.198 216.541 124.389 218.325 122.162 219.417C118.823 219.261 115.738 217.994 112.55 217.199C108.836 216.278 105.185 215.737 101.339 216.351C99.6042 216.624 97.635 217.029 96.0607 215.522Z" fill="#C75401"/>
<path d="M162.35 160.415C158.621 159.952 155.838 157.939 153.576 155.053C149.911 146.158 149.058 136.716 148.371 127.27C147.598 117.409 147.461 107.509 147.961 97.6302C148.201 92.7819 148.918 87.969 150.101 83.2611C152.197 75.1017 157.247 70.9732 165.523 70.2421C168.832 69.9496 172.118 69.5061 175.452 69.7059C176.246 70.7588 175.325 71.5679 174.989 72.3916C174.101 74.5655 172.888 76.5932 171.913 78.7281C171.128 80.4584 171.484 81.0141 173.375 80.707C175.468 80.391 177.608 80.6487 179.565 81.4528C180.404 81.7696 181.427 82.0377 181.374 83.1344C181.325 84.1531 180.277 84.1579 179.536 84.4114C177.543 85.084 175.573 85.8395 173.556 86.4391C172.093 86.8826 171.694 87.6235 172.342 89.154C175.232 95.9389 177.923 102.802 180.662 109.655C177.991 102.938 175.301 96.2167 172.527 89.5488C171.772 87.7453 172.254 86.8144 174.058 86.288C176.236 85.6494 178.332 84.7672 180.506 84.1141C180.994 83.9581 181.734 83.9581 181.812 83.2221C181.895 82.4032 181.189 82.1449 180.613 81.8817C178.569 80.872 176.293 80.4245 174.019 80.5851C171.874 80.7704 171.24 79.9174 172.269 78.0359C173.853 75.1114 174.774 71.8701 176.894 69.2624L177.538 68.4776C179.487 68.346 180.813 66.4597 182.846 66.528C184.23 67.7124 183.767 69.4086 183.947 70.8709C184.284 73.7028 184.771 76.5786 184.61 79.5031C185.609 86.8582 185.79 94.2865 186.638 101.656C186.872 103.679 186.448 105.682 186.638 107.691C186.526 111.41 184.912 114.568 182.5 117.205C180.609 119.277 178.342 121.021 176.305 122.981C175.549 123.702 174.696 124.38 173.502 123.985C172.785 123.22 173.302 122.45 173.541 121.714C174.165 119.788 174.798 117.863 175.213 116.474C174.584 118.424 173.677 120.861 172.956 123.342C172.264 125.706 170.772 126.91 168.613 127.431C166.107 128.042 163.679 128.937 161.375 130.097C160.771 130.399 159.966 130.994 159.455 130.097C159.04 129.366 159.635 128.635 160.142 128.148C161.385 126.978 162.735 125.93 164.041 125.486C161.575 126.607 159.167 128.255 158.382 131.599C160.931 130.468 163.208 128.893 165.879 128.245C166.468 128.099 167.156 127.587 167.663 128.294C168.17 129.001 167.56 129.488 167.214 130.019C163.827 135.21 165.425 145.129 170.046 149.36C171.023 150.211 172.137 150.89 173.341 151.368C175.822 152.441 176.012 153.693 173.887 155.37C172.425 156.52 170.782 157.417 169.617 158.918C167.317 160.156 164.982 161.078 162.35 160.415Z" fill="#035D3A"/>
<path d="M75.6378 142.409C75.5891 141.405 75.5891 140.367 75.1017 139.456C74.8726 135.264 74.044 131.111 74.1269 126.895C74.1561 125.871 73.4689 125.808 72.8011 125.511C70.6467 124.536 69.2673 122.981 69.2088 120.5C69.2342 120.138 69.1787 119.776 69.0463 119.439C68.9139 119.101 68.708 118.798 68.4436 118.55C68.0539 118.257 67.7672 117.847 67.6247 117.38C67.0788 113.968 65.4167 110.118 66.4159 107.203C67.61 103.713 66.8204 98.917 71.1585 96.748C71.6459 96.4994 71.6215 95.7731 71.7288 95.198C72.0553 93.4969 73.0399 91.9128 74.5704 91.4984C76.8661 90.8745 78.1334 88.9736 79.932 87.989C82.3414 86.6608 84.8359 85.4933 87.3993 84.4942C89.773 83.5974 91.5911 85.8687 93.5603 86.2148C95.5295 86.5609 97.9812 85.0889 99.9894 86.5999C101.431 87.7296 102.977 88.7202 104.605 89.5585C105.231 89.8721 105.767 90.3376 106.166 90.9125C106.564 91.4873 106.812 92.1531 106.886 92.8486C107.189 95.8316 108.739 97.6692 111.356 99.0486C114.198 100.545 114.924 104.181 113.111 107.091C112.467 108.129 112.287 108.729 113.198 109.723C114.11 110.717 114.588 112.389 113.964 113.369C111.936 116.537 113.306 121.168 109.426 123.517C108.992 123.775 108.821 124.643 108.729 125.257C108.544 126.437 108.154 127.631 107.154 128.182C104.03 129.834 104.269 132.861 103.82 135.639H103.733C103.279 137.014 104.907 137.642 104.888 138.924C104.888 139.792 105.219 140.669 105.283 141.556C105.346 142.444 105.673 143.755 104.479 144.062C103.114 144.413 102.792 143.199 102.529 142.024C100.964 146.704 97.8203 149.823 93.2386 151.285C88.7738 152.748 84.2701 152.811 80.1075 150.311C77.2707 148.512 75.0139 146.245 75.6378 142.409Z" fill="black"/>
<path d="M50.2822 172.664C49.6209 171.02 49.4171 169.228 49.6924 167.477C49.7494 166.949 49.9212 166.439 50.1959 165.984C50.4705 165.528 50.8413 165.138 51.2823 164.841C51.7234 164.544 52.224 164.347 52.7492 164.263C53.2744 164.18 53.8115 164.212 54.3229 164.358C55.1661 164.577 55.4391 165.123 55.6048 165.903C57.0671 172.829 58.5293 179.751 60.0355 186.672C58.7194 187.886 56.9891 187.052 55.4683 187.588C53.9476 188.125 52.3683 188.729 51.296 189.611C53.0946 188.012 55.5317 187.379 58.1589 187.237C58.9339 187.198 59.7868 187.486 60.44 186.789C62.7309 183.645 65.748 182.202 69.6474 182.934C70.7733 183.148 72.0845 183.548 72.333 184.708C72.5816 185.868 71.2997 186.365 70.4224 186.872C66.757 188.992 63.9202 191.824 62.4823 195.899L39.5443 192.146C38.1942 188.734 36.3614 185.551 35.6108 181.91C34.9723 181.033 35.2891 180.282 36.147 179.96C37.0049 179.639 37.2096 180.496 37.4728 181.062C37.8088 181.89 38.0064 182.768 38.0577 183.66C38.1454 184.498 38.1795 185.551 39.2372 185.853C40.2949 186.155 41.0846 185.444 41.7523 184.732C43.8239 182.529 44.0822 182.539 45.6127 185.064C45.8635 185.573 46.1536 186.062 46.4803 186.526C47.1042 187.252 47.3284 188.822 48.7273 188.12C49.9556 187.506 50.4674 186.35 50.058 184.825C49.6242 183.184 49.0619 181.581 48.3763 180.029C48.1777 179.498 48.114 178.927 48.1911 178.366C48.0108 180.545 49.7168 182.198 49.8679 184.289C49.9117 184.844 50.2822 185.361 50.2042 185.941C50.0726 186.882 49.6534 187.671 48.7078 187.983C47.7622 188.295 47.1773 187.681 46.7337 186.955C44.8767 183.884 42.2641 181.106 43.1805 177.021C43.3023 176.465 42.9465 175.915 42.9026 175.349C42.9026 175.237 42.9026 175.125 42.9026 175.008C43.9993 172.283 45.3397 171.679 48.0888 172.454C48.8199 172.659 49.3658 173.482 50.2578 173.136C50.5247 173.038 50.8144 173.02 51.0914 173.084C51.3684 173.148 51.6208 173.292 51.8175 173.497C51.9638 173.985 51.7249 174.472 51.9101 174.915C51.8489 174.468 51.8754 174.013 51.9881 173.575C52.5731 172.42 53.7916 171.66 53.9866 170.495C53.2408 171.786 52.7534 173.799 50.2822 172.664Z" fill="#8B4A0D"/>
<path d="M42.3859 175.003H42.8734C42.9319 175.076 42.9952 175.149 43.0537 175.227C43.1658 178.098 43.5411 180.974 42.4005 183.762C42.2397 184.21 41.9871 184.619 41.6589 184.963C41.3307 185.307 40.9341 185.579 40.4948 185.761C39.0812 186.326 38.1503 186.087 38.0186 184.342C37.9024 182.515 37.4617 180.722 36.7172 179.049C35.3086 180.287 34.7676 181.973 33.6709 183.28C30.1078 183.382 30.0981 183.367 30.8487 179.868C31.0144 179.083 31.1558 178.288 31.2777 177.494C31.4093 176.602 32.0819 175.661 32.7399 175.783C36.0349 176.431 39.0325 173.536 42.3859 175.003Z" fill="#8B4B0D"/>
<path d="M176.894 69.2283C175.92 72.4355 174.165 75.2821 172.717 78.2651C172.045 79.6542 172.274 80.1904 173.882 80.0442C176.738 79.7789 179.601 80.4643 182.027 81.9938C182.514 82.3058 183.343 82.4813 183.163 83.3732C183.021 84.0459 182.344 84.1287 181.842 84.3042C179.405 85.1572 176.968 86.0589 174.452 86.7413C172.586 87.2531 172.503 88.0963 173.19 89.7292C176.071 96.6116 178.829 103.548 181.627 110.464C181.708 110.605 181.764 110.758 181.793 110.917C181.822 111.473 182.617 112.243 181.647 112.526C180.921 112.74 180.911 111.839 180.716 111.351C178.961 106.964 177.231 102.607 175.476 98.2444C174.199 95.0859 172.971 91.908 171.577 88.7982C170.841 87.1605 171.313 86.4684 172.912 85.9907C175.622 85.1767 178.274 84.2214 181.427 83.1783C180.183 82.2609 178.751 81.6297 177.235 81.3298C175.718 81.0298 174.154 81.0685 172.654 81.4431C171.918 81.599 170.987 82.4179 170.397 81.6185C169.807 80.8192 170.68 79.9613 171.041 79.1814C172.503 76.023 174.282 73.0009 175.427 69.6914C175.611 69.4936 175.842 69.3469 176.1 69.2657C176.357 69.1845 176.631 69.1716 176.894 69.2283Z" fill="#020402"/>
<path d="M33.671 183.294C33.944 180.765 36.1081 179.21 36.7466 176.782C37.9506 179.034 37.9262 181.379 38.4867 183.606C38.6427 184.24 38.1601 185.302 39.1106 185.434C39.6414 185.508 40.1816 185.404 40.6477 185.14C41.1138 184.876 41.4798 184.465 41.6891 183.972C42.1635 182.777 42.4353 181.512 42.4933 180.228C42.6493 178.561 42.2496 176.816 43.0929 175.237C43.8727 175.681 43.8922 176.451 43.7996 177.187C43.3122 180.794 45.0961 183.577 47.0653 186.287C47.4601 186.828 47.6063 187.964 48.5276 187.598C49.4488 187.233 49.8582 186.194 49.5024 185.132C49.015 183.587 48.5276 182.042 47.9232 180.54C47.2067 178.717 47.7282 177.192 48.9711 175.666C47.8598 179.185 50.1068 182.003 50.7015 185.137C51.0378 186.93 49.9606 188.037 48.7518 189.036C47.8647 189.772 47.4309 189.036 47.0361 188.417C45.9247 186.74 44.8524 185.044 43.5608 183.055C42.7126 184.679 41.9279 185.98 40.3536 186.497C38.7792 187.013 37.7361 186.935 37.4924 184.859C37.3218 183.372 37.3657 181.774 36.5176 180.38C35.8206 180.691 35.7377 181.325 35.6305 181.944C34.8213 182.188 34.6117 183.28 33.671 183.294Z" fill="#070303"/>
<path d="M233.382 293.622C230.272 288.138 227.367 282.528 223.521 277.488C222.8 276.543 222.824 275.339 222.79 274.222C222.532 265.805 222.434 257.377 222.073 248.959C221.586 237.812 220.952 226.665 220.343 215.522C220.06 210.356 219.724 205.189 219.368 200.022C219.29 198.897 219.592 198.429 220.83 198.429C222.727 198.429 224.647 198.697 227.011 198.151C224.969 197.049 223.199 197.459 221.557 197.532C219.724 197.61 219.276 196.952 219.144 195.202C218.291 183.991 217.496 172.781 216.02 161.628C215.8 159.976 216.327 159.333 217.872 158.957C219.909 158.47 221.883 157.719 223.887 157.086L234.122 154.337C235.448 154.736 235.638 155.901 235.916 157.003C237.098 161.969 238.688 166.828 240.668 171.533C242.486 175.793 244.568 179.912 248.136 183.046C248.686 183.533 249.179 184.084 249.15 184.898C251.728 194.646 253.419 204.497 252.898 214.63C252.532 221.679 251.119 228.571 249.525 235.424C245.031 254.745 239.396 273.755 233.869 292.793C233.74 293.088 233.576 293.366 233.382 293.622Z" fill="#C75401"/>
<path d="M249.14 184.898C242.915 180.54 240.366 173.814 237.929 167.097C236.423 162.925 235.346 158.597 234.078 154.337C237.49 153.362 240.805 152.109 244.314 151.558C246.61 157.948 248.028 164.592 250.027 171.055C251.548 175.998 252.951 180.979 254.414 186.038C252.41 186.682 250.841 185.458 249.14 184.898Z" fill="#035D3A"/>
<path d="M245.894 109.567C243.067 110.254 240.23 110.912 237.412 111.634C236.111 111.965 235.463 111.96 235.278 110.206C234.62 103.937 233.966 97.6594 232.529 91.4984C232.1 89.6609 231.412 88.4862 229.316 88.1596C227.42 87.8672 225.607 87.0434 223.755 86.4536C223.302 86.3074 222.683 86.3025 222.575 85.7518C222.468 85.201 223.024 84.9573 223.399 84.6746C223.774 84.3919 224.082 84.231 224.418 84.0117C227.659 81.8621 227.659 81.4576 224.379 79.1375C223.331 78.3966 222.254 77.6752 220.626 76.5931L223.774 77.1537C225.651 78.4795 227.879 79.0449 230.023 79.5079C232.992 80.1416 234.561 82.0522 235.833 84.4942C239.396 91.3181 241.794 98.6294 244.251 105.882C244.675 107.154 244.768 108.597 245.894 109.567Z" fill="#035D3A"/>
<path d="M254.789 146.367C251.572 147.371 248.857 146.397 246.815 143.404C250.266 142.843 253.702 142.916 257.119 142.834C257.119 142.536 257.119 142.244 257.119 141.946C254.492 141.946 251.864 141.946 249.237 141.946C248.594 141.946 247.946 142.054 247.288 142.112C245.864 142.239 245.469 141.318 245.372 140.163C245.25 138.652 246.4 139.071 247.214 139.012C251.272 138.703 255.277 137.894 259.137 136.604C257.733 135.805 256.402 136.604 255.077 136.755C253.073 137.014 251.104 137.511 249.11 137.842C248.389 137.964 247.453 138.452 247.127 137.214C246.82 136.068 247.517 135.654 248.433 135.264C251.484 134.021 254.511 132.729 257.587 131.438C257.392 131.15 257.328 130.95 257.226 130.95C255.964 130.697 254.345 130.658 254.092 129.152C253.829 127.558 255.554 127.202 256.607 126.583C257.787 125.905 259.073 125.403 260.311 124.823C261.501 124.682 262.909 123.795 263.455 125.798C263.855 127.261 265.551 128.84 262.968 129.971C262.829 130.013 262.702 130.085 262.593 130.182C262.485 130.278 262.398 130.396 262.339 130.529C262.28 130.661 262.25 130.805 262.251 130.95C262.252 131.095 262.283 131.238 262.344 131.369C263.611 133.807 262.831 135.937 261.598 138.052C260.692 138.652 260.677 139.636 260.404 140.562C259.575 143.438 258.05 145.792 254.789 146.367Z" fill="#8B4B0D"/>
<path d="M254.789 146.367C257.075 144.51 259.619 142.887 259.946 139.5C259.99 139.089 260.187 138.711 260.498 138.44C260.809 138.169 261.21 138.025 261.623 138.037C260.804 144.773 257.46 149.477 250.743 151.368C249.037 151.856 247.263 152.016 245.557 151.217C247.02 150.388 248.682 150.047 250.3 149.662C252.279 149.204 253.829 148.2 254.789 146.367Z" fill="#065D3A"/>
<path d="M186.233 108.261C185.946 104.917 185.639 101.573 185.366 98.2249C184.859 91.9794 184.36 85.7323 183.869 79.4836C184.927 78.7574 185.912 79.3423 186.857 79.7127C192.828 82.0669 198.994 82.2522 205.252 81.4479C207.184 81.1802 209.022 80.4531 210.614 79.3276C211.34 78.8402 212.037 78.2261 213.027 78.382C214.202 78.9962 214.572 80.205 215.123 81.2627C220.168 90.9721 223.614 101.325 227.26 111.59C227.552 112.414 227.888 113.296 227.118 114.086C220.85 115.704 214.591 117.376 208.304 118.916C205.701 119.554 204.331 121.104 203.742 123.654C201.636 132.802 199.447 141.932 197.337 151.081C197.064 152.26 196.669 152.865 195.304 152.938C192.165 153.113 189.065 153.844 185.902 153.815C184.791 152.84 185.21 151.573 185.337 150.457C185.731 147.045 186.102 143.633 186.409 140.221C186.89 138.839 187.075 137.371 186.95 135.912C186.194 130.224 188.441 125.998 193.135 122.927C193.301 122.757 193.486 122.596 193.671 122.44C194.437 121.816 195.397 121.689 196.313 121.465C198.102 121.036 199.535 120.169 200.295 118.414C200.457 118.113 200.653 117.831 200.88 117.575C202.343 114.261 202.343 111.239 199.335 108.675C198.433 107.91 197.459 107.106 197.186 105.824C197.193 105.59 197.267 105.363 197.4 105.171C199.447 103.835 201.587 104.308 203.737 104.864C205.886 105.419 207.894 106.258 210.531 105.678C207.719 104.02 205.194 102.548 202.245 101.915C200.1 101.452 197.931 101.164 195.762 100.906C192.297 100.487 191.171 101.115 189.494 104.181C189.038 105.131 188.531 106.055 187.973 106.95C187.549 107.554 187.315 108.514 186.233 108.261Z" fill="#E1AE42"/>
<path d="M212.793 78.5282C209.215 82.7249 204.185 82.8224 199.365 82.876C194 82.9986 188.684 81.8424 183.855 79.5031C183.514 75.165 182.783 70.866 182.846 66.4987C186.648 62.8674 188.164 58.0712 189.592 53.236C189.779 52.6143 189.926 51.9809 190.03 51.34C190.294 49.6974 190.396 47.928 192.887 48.6933C192.853 47.7184 192.151 47.6843 191.702 47.4455C190.367 46.7339 189.719 45.9832 190.664 44.3747C191.108 43.6192 190.893 42.4835 190.991 41.5233C191.332 38.0383 193.34 36.8295 196.489 38.2089C199.638 39.5883 202.084 38.4818 202.621 35.1089C202.937 33.1202 203.742 33.091 205.189 33.71C206.081 34.095 206.998 34.4265 207.86 34.87C208.63 35.2697 209.323 35.7961 210.297 35.9667C209.201 33.8952 207.046 33.2177 204.4 32.16C206.695 31.4289 208.226 31.6141 209.717 32.2575C211.274 32.9727 213.005 33.2167 214.699 32.9594C217.092 32.5694 218.389 31.1023 218.803 28.7724C218.891 28.285 219.051 27.7245 219.578 27.6465C220.104 27.5685 220.431 28.0949 220.611 28.5287C221.793 31.0966 222.515 33.8515 222.746 36.6686C219.822 35.5329 217.224 35.5183 214.343 37.2974C215.986 37.9359 217.019 37.0049 218.13 37.0001C221.654 36.9757 223.341 37.546 222.946 41.6793C222.39 47.4698 221.274 53.0752 218.418 58.2126C213.29 67.4151 205.906 67.961 199.443 59.6748C198.98 59.0851 198.765 58.1687 197.322 58.2857C199.462 62.1071 202.27 64.9585 206.252 66.1088C208.353 66.7181 208.474 67.6539 208.143 69.2868C206.827 71.2121 206.169 73.4103 205.516 75.6232C205.867 74.3803 206.364 73.1861 206.686 71.9383C206.881 71.1682 207.173 70.5492 208.148 70.8124C208.518 71.5191 208.723 72.3478 209.513 72.7621C210.98 73.7789 212.125 75.1946 212.812 76.8418C213.042 77.3341 213.573 77.9482 212.793 78.5282Z" fill="#8B4A0D"/>
<path d="M187.33 139.792C187.126 144.489 186.647 149.169 185.897 153.81C185.868 154.234 185.834 154.663 185.804 155.087C184.484 162.311 183.002 169.486 180.35 176.373C178.24 181.871 175.613 186.999 170.675 190.557C170.188 190.664 169.724 190.742 169.266 190.888C167.619 191.42 167.161 191.015 167.37 189.177C168.243 181.588 168.945 173.975 169.705 166.371C168.779 163.632 169.554 160.98 170.149 158.324C170.48 157.052 171.747 156.749 172.625 156.15C174.92 154.585 176.821 152.582 178.722 150.637C181.247 148.054 181.569 144.583 181.608 141.128C182.519 138.33 184.284 135.98 185.697 133.451C185.965 132.963 186.458 132.476 187.072 132.685C187.608 132.88 187.437 133.519 187.428 133.982C187.384 135.917 187.564 137.857 187.33 139.792Z" fill="#035D3A"/>
<path d="M212.793 78.5282L209.503 72.7523C214.83 74.6614 219.858 77.322 224.433 80.6534C225.495 81.4235 225.661 81.9986 224.364 82.7249C223.17 83.3927 222.083 84.2603 220.928 85.006C219.69 85.8103 219.714 86.4439 221.152 86.8777C223.784 87.6771 226.397 88.5496 229.063 89.1832C230.36 89.4903 231.013 90.0801 231.32 91.3279C232.825 97.8537 233.761 104.498 234.118 111.185C234.186 112.277 233.694 112.565 232.767 112.755C230.871 113.145 229 113.637 227.113 114.085C222.98 101.963 218.715 89.8997 212.793 78.5282Z" fill="#035D3A"/>
<path d="M222.649 75.9741C224.345 73.1958 222.424 68.8237 226.918 67.4345C226.577 74.4387 225.973 75.7011 222.649 75.9741Z" fill="#D8A93F"/>
<path d="M234.356 57.3548C233.084 59.8309 237.51 63.2038 232.806 65.5824C233.757 62.5653 230.452 59.4604 234.356 57.3548Z" fill="#D8A940"/>
<path d="M236.988 44.7792C236.73 47.0945 238.134 48.7468 239.313 50.4772C240.288 51.9102 240.288 53.1239 238.339 54.2596C239.05 50.7453 233.81 48.5324 236.988 44.7792Z" fill="#D3A53E"/>
<path d="M208.138 70.7783C206.676 71.836 207.031 73.7028 206.3 75.0627C205.813 75.94 205.901 77.0806 204.546 78.2797C205.126 74.5655 205.559 71.5143 208.133 69.2624C208.133 69.7547 208.138 70.2713 208.138 70.7783Z" fill="#0A0504"/>
<path d="M235.911 31.307C236.204 33.2323 237.827 34.2023 238.923 35.5622C240.02 36.9221 241.361 38.126 240.162 40.1245C239.971 36.5127 236.179 35.0163 235.37 31.7896C235.263 31.307 235.463 31.1608 235.911 31.307Z" fill="#04412A"/>
<path d="M235.911 31.3069L235.37 31.7944C234.527 30.5904 235.141 29.5474 235.911 28.4945V31.3069Z" fill="#022013"/>
<path d="M213.305 128.381L211.506 129.844C211.545 128.844 212.125 128.299 213.305 128.381Z" fill="#093424"/>
<path d="M206.793 131.028C207.022 129.912 207.509 129.62 208.367 129.22C208.123 130.195 207.621 130.541 206.793 131.028Z" fill="#053724"/>
<path d="M236.14 25.5066C236.594 25.8722 236.423 26.306 236.291 26.7398C235.702 26.3986 235.833 25.9697 236.14 25.5066Z" fill="#042418"/>
<path d="M22.4604 385.057C22.3483 383.185 22.6505 381.981 24.7317 383.658C25.7066 383.858 26.4572 383.594 26.7643 382.547C26.7058 381.996 25.9503 381.289 26.8325 380.948C27.4369 380.714 27.2566 381.62 27.5588 381.923C27.8513 383.638 28.5872 385.31 28.2119 387.177C26.4085 387.099 25.6627 385.164 23.791 384.92C23.8788 386.236 23.947 387.494 24.064 388.742C24.1079 389.229 24.3906 389.716 23.8252 390.038C23.2597 390.36 22.9283 389.892 22.5384 389.624L19.3068 387.392C19.1557 389.146 20.0281 390.662 19.6138 392.617C18.1516 390.998 18.5269 389.132 18.0102 387.567C17.8786 386.894 17.3278 386.105 18.098 385.617C18.8681 385.13 19.3165 386.217 20.0476 386.212C21.3052 386.816 22.4165 387.089 22.4604 385.057Z" fill="#080705"/>
<path d="M22.4603 385.057C22.9867 386.032 22.8015 387.07 22.9477 388.279C21.7676 387.929 20.7383 387.194 20.0232 386.193L22.4603 385.057Z" fill="#AC9B4B"/>
<path d="M26.7545 382.547L27.0323 385.052C25.9453 384.93 25.3409 384.277 24.7219 383.658C25.2581 383.029 25.8722 382.512 26.7545 382.547Z" fill="#AD9C4E"/>
<path d="M140.567 204.824C137.866 202.317 135.665 199.322 134.079 195.996C134.18 195.821 134.321 195.671 134.49 195.56C134.66 195.449 134.853 195.38 135.054 195.358C143.024 195.075 150.389 192.989 156.861 188.178L157.992 187.062C158.709 187.116 158.86 187.627 158.928 188.212C160.342 193.686 162.111 199.067 163.037 204.663C163.435 207.054 163.702 209.466 163.836 211.886C164.012 215.089 162.584 217.248 160.142 219.051C157.154 221.282 153.895 223.123 150.442 224.53C147.937 225.539 146.543 226.826 147.089 229.633C145.67 226.967 143.755 228.317 141.888 228.956C140.275 229.507 138.768 230.813 136.882 229.809C136.336 229.19 136.478 228.507 136.575 227.762C137.009 224.506 135.902 222.951 132.724 222.215C129.468 221.454 127.558 218.501 128.118 215.094C130.77 213.202 132.671 210.502 135.298 208.552C136.904 207.306 138.616 206.203 140.416 205.257C141.985 205.311 143.34 204.283 144.92 204.351C145.977 204.668 147.074 204.458 148.112 204.56C146.007 204.356 143.94 204.224 141.937 204.989C141.721 205.114 141.471 205.166 141.224 205.136C140.977 205.106 140.746 204.996 140.567 204.824Z" fill="#8B4A0D"/>
<path d="M96.0607 215.522C98.4978 215.459 100.901 215.561 103.333 215.123C106.423 214.567 109.445 215.362 112.433 216.171C115.874 217.107 119.33 217.989 122.776 218.895C125.004 220.46 126.247 224.047 125.355 226.441C124.589 228.483 124.146 230.447 126.022 232.192C126.244 232.375 126.392 232.632 126.437 232.916C126.482 233.2 126.421 233.49 126.266 233.732C121.699 235.526 117.083 237.144 112.131 237.442C103.674 239.167 97.2939 234.03 90.3189 230.837C89.9531 230.673 89.6328 230.422 89.3857 230.106C89.1386 229.79 88.9721 229.419 88.9005 229.024L102.738 232.641C102.582 232.065 102.578 231.817 102.5 231.788C97.601 230.218 92.7901 228.293 87.5796 227.957C86.6048 227.893 85.5373 227.664 85.6007 226.68C85.664 225.695 86.8192 226.241 87.4383 226.265C91.4838 226.441 95.5197 226.723 99.5653 226.923C100.311 226.962 101.159 227.299 102.153 226.221C99.0778 225.446 96.1631 225.856 93.3799 225.427C90.9818 225.066 88.5057 225.451 86.1027 224.993C85.1279 224.813 84.3285 224.652 84.3968 223.419C84.4601 222.341 85.0694 221.888 86.0784 221.688C87.9403 221.318 89.929 221.586 91.9713 220.592C90.392 220.392 89.1247 220.182 87.8477 220.104C86.8339 220.026 86.1027 219.783 86.1222 218.574C86.1417 217.365 86.5853 216.512 87.9062 216.41C90.1678 216.239 92.4294 216.107 94.6862 215.922C95.1547 215.828 95.6145 215.694 96.0607 215.522Z" fill="#8B4A0D"/>
<path d="M112.146 237.427C116.73 235.607 121.492 234.271 126.354 233.44C126.48 233.28 126.648 233.157 126.838 233.084C127.028 233.012 127.235 232.991 127.436 233.026C130.784 233.742 133.407 232.538 135.586 230.043C135.737 229.852 135.937 229.706 136.164 229.621C136.392 229.535 136.638 229.512 136.877 229.555C139.563 229.619 141.703 227.952 144.135 227.201C145.943 226.645 147.03 226.26 146.762 228.771C146.733 229.048 146.986 229.351 147.108 229.638C147.596 231.992 146.738 234.317 146.977 236.672C147.084 237.734 146.319 237.939 145.373 237.944C133.519 237.978 121.787 239.406 110.045 240.868C101.783 241.897 93.7113 240.556 85.9857 237.369C85.8687 236.525 86.3659 236.715 86.8338 236.881C94.2523 237.788 101.669 238.694 109.085 239.601C110.717 239.776 112.282 239.82 112.146 237.427Z" fill="#C75401"/>
<path d="M156.876 188.198C154.624 191.215 151.241 192.428 147.903 193.559C143.47 195.163 138.793 195.987 134.079 195.996C131.096 195.602 129.434 193.774 128.386 191.064C127.075 187.652 125.574 184.347 124.17 180.994C123.936 180.438 123.459 179.882 123.98 179.195C125.023 179.414 125.052 180.326 125.35 181.023C126.812 184.435 128.377 187.847 129.736 191.293C130.711 193.759 132.417 194.783 134.952 194.705C142.843 194.529 150.13 192.555 156.432 187.588L156.876 188.198Z" fill="#090404"/>
<path d="M158.938 188.198L158.002 187.047C159.133 186.789 159.425 187.174 158.938 188.198Z" fill="#090404"/>
<path d="M36.0593 196.762C35.0308 197.249 34.5239 196.693 33.822 196.274C34.7335 195.733 35.2697 196.338 36.0593 196.762Z" fill="#6664A1"/>
<path d="M86.829 236.857L85.9809 237.344C85.5422 237.237 85.0694 237.174 84.8988 236.618C85.5909 236.379 86.2441 236.291 86.829 236.857Z" fill="#461C04"/>
<path d="M212.13 159.927C212.028 159.752 211.93 159.576 211.833 159.401C211.959 159.337 212.154 159.186 212.203 159.225C212.359 159.368 212.494 159.532 212.603 159.713L212.13 159.927Z" fill="black"/>
<path d="M75.6377 142.409C77.7336 148.288 80.8775 150.973 85.8735 151.183C94.7105 151.534 98.5465 148.965 102.651 139.836C103.859 140.879 102.87 142.819 104.41 144.008C104.932 140.937 103.231 138.325 103.767 135.571C104.425 137.062 105.941 136.746 107.11 137.106C110.864 138.271 112.526 140.733 111.468 144.462C109.27 152.197 105.843 159.333 100.135 165.152C93.9793 171.43 86.3122 171.357 80.0001 165.118C75.6134 160.756 72.6889 155.706 72.1576 149.389C71.8992 146.28 73.1763 144.086 75.6377 142.409Z" fill="#8B4A0D"/>
<path d="M136.872 229.555C134.226 233.177 130.902 234.975 126.349 233.455C123.668 231.368 123.312 228.795 124.887 225.919C125.481 224.827 124.838 224.062 124.507 223.194C123.956 221.732 123.376 220.328 122.805 218.895C122.771 218.608 122.654 218.086 122.718 218.062C124.667 217.345 126.027 215.513 128.143 215.098C128.591 216.219 129.118 217.316 129.464 218.466C130.073 220.484 131.004 221.581 133.456 221.708C137.004 221.883 138.203 225.076 136.872 229.555Z" fill="#030203"/>
<path d="M60.44 186.789C60.6058 187.306 60.6496 187.822 59.9039 187.764C55.7998 187.51 52.2855 188.675 49.5998 192.229C49.0149 190.64 50.0483 190.025 50.7404 189.367C53.3579 186.867 56.6821 186.687 60.0355 186.662C60.1635 186.724 60.2998 186.767 60.44 186.789Z" fill="#090403"/>
<path d="M140.567 204.824C143.979 203.902 147.425 202.937 151.095 204.565C150.53 205.54 149.843 205.131 149.297 205.218C147.834 204.76 146.284 205.257 144.798 204.926C143.306 204.731 141.966 206.491 140.411 205.272C140.487 205.132 140.54 204.981 140.567 204.824Z" fill="#080403"/>
<path d="M51.5885 173.653L50.2432 173.132C50.2371 172.969 50.2469 172.805 50.2724 172.644C53.5918 172.644 53.2408 169.378 54.6349 167.575C55.3611 169.661 54.4448 171.786 52.149 173.565C52.0028 173.872 51.8078 173.897 51.5885 173.653Z" fill="#100703"/>
<path d="M187.33 139.792V133.27L186.843 133.105L182.271 141.391C181.359 144.983 178.888 147.591 176.656 150.35C175.374 151.929 173.833 152.041 172.118 151.061C167.877 148.624 166.064 144.583 165.372 140.104C164.733 135.961 165.094 131.774 168.296 128.523C169.876 126.914 171.762 125.598 173.468 124.136C176.602 121.338 179.951 118.735 182.797 115.67C184.63 113.72 185.273 110.825 186.233 108.261C187.34 106.311 188.495 104.361 189.538 102.334C189.916 101.517 190.539 100.838 191.319 100.39C192.1 99.9426 193 99.7479 193.896 99.8333C200.564 100.121 206.807 101.783 212.554 105.78C210.604 107.286 208.543 106.974 206.544 106.53C203.571 105.877 200.695 104.527 197.537 105.439C197.293 105.439 197.156 105.156 196.898 105.219C197.062 105.453 197.259 105.662 197.483 105.838C199.087 106.847 200.178 108.392 201.426 109.738C203.376 111.877 203.293 115.548 201.387 118.058C198.585 116.961 197.083 114.217 194.963 113.028C196.728 114.646 199.174 116.225 200.871 118.609C200.797 120.812 199.13 121.455 197.459 122.021C196.333 122.386 195.158 122.581 194.003 122.854C193.887 122.728 193.8 122.578 193.748 122.415C193.697 122.251 193.682 122.078 193.706 121.909C194.047 120.968 194.68 120.173 195.056 119.257C195.45 118.516 194.997 118.063 194.407 117.517C195.1 118.492 194.792 119.233 194.281 120.042C193.769 120.851 193.16 121.84 193.969 122.883C193.364 123.634 192.896 124.599 192.126 125.087C188.227 127.567 187.462 131.291 187.584 135.503C187.598 136.916 187.871 138.383 187.33 139.792Z" fill="#8B4A0D"/>
<path d="M173.453 124.131C172.431 125.748 171.107 127.153 169.554 128.269C166.395 130.628 165.538 134.206 165.767 138.018C166.054 142.892 167.682 147.137 171.781 150.174C173.531 151.471 174.906 151.485 176.241 149.579C178.191 146.801 180.258 144.115 182.276 141.386C182.89 147.362 180.15 151.622 175.369 154.814C173.76 155.891 172.166 156.993 170.568 158.085C170.202 158.119 169.866 158.475 169.471 158.177C169.895 156.228 172.084 156.316 173.127 155.048C173.668 154.39 174.886 154.073 174.789 153.142C174.696 152.294 173.526 152.348 172.839 152.012C167.629 149.492 165.396 144.959 164.84 139.543C164.451 135.683 164.538 131.774 167.94 128.094C164.041 129.4 160.961 130.531 158.47 132.827C158.08 133.192 157.69 133.802 157.056 133.314C156.569 132.919 156.925 132.403 157.1 131.969C157.82 130.108 158.966 128.442 160.445 127.104C161.925 125.766 163.697 124.793 165.62 124.263C166.108 124.117 166.668 123.897 166.829 124.531C166.99 125.165 166.317 125.218 165.888 125.374C163.417 126.281 161.209 127.543 159.815 129.985C163.3 128.357 166.946 127.207 170.538 125.925C171.387 125.623 171.669 124.789 171.971 124.048C173.176 121.128 174.195 118.134 175.023 115.085C175.196 114.308 175.546 113.583 176.046 112.964C176.3 116.951 174.292 120.412 173.453 124.131Z" fill="#020302"/>
<path d="M108.734 117.034C108.465 119.389 108.129 119.959 106.296 121.046C105.809 120.295 106.409 119.457 105.994 118.394C103.528 121.806 101.51 125.379 98.5319 128.888C98.8487 127.241 98.6781 126.364 97.0696 126.871C96.7138 126.983 96.0558 126.412 95.6561 126.032C93.2823 123.8 90.5625 123.532 87.5064 124.273C84.7866 124.926 82.0035 125.735 79.0302 124.209V127.665C77.6313 125.983 77.3194 124.253 76.4859 122.82C75.2771 120.724 75.5695 117.917 73.264 116.284C72.8302 115.977 72.8546 114.705 73.0057 113.944C73.4779 111.16 73.7369 108.345 73.7807 105.522C73.8489 103.757 74.7799 103.431 76.2616 103.976C77.0348 104.205 77.7879 104.497 78.5135 104.849C80.5851 106.043 82.6663 106.253 84.7281 104.961C85.6445 104.386 86.3269 104.62 87.1652 105.049C89.7973 106.389 92.1613 105.907 94.2913 103.903C95.7877 102.495 97.7861 102.733 99.4433 103.82C101.698 105.316 103.742 107.106 105.521 109.143C106.759 110.532 108.66 111.463 109.167 113.427C109.489 114.656 109.718 115.972 108.68 117.064C107.705 116.333 108.543 115.216 108.09 114.378C108.578 115.202 107.671 116.333 108.734 117.034Z" fill="#8B4A0D"/>
<path d="M90.2116 131.511C88.7786 130.404 86.8679 130.609 85.4106 129.615C84.9231 129.264 83.9873 129.093 84.1384 128.343C84.2895 127.592 85.2058 127.806 85.8102 127.738C88.154 127.436 90.5361 127.736 92.7316 128.611C94.0379 129.142 95.2077 129.907 95.0907 131.623C95.0571 132.36 94.8038 133.069 94.3634 133.661C93.923 134.253 93.3156 134.699 92.6195 134.942C89.695 136.151 84.0653 134.001 82.5884 131.184C82.3105 130.648 82.0181 130.097 82.4324 129.61C83.0124 128.932 83.4072 129.683 83.8313 129.961C85.7468 131.277 87.8233 131.949 90.2116 131.511Z" fill="#8B4B0D"/>
<path d="M51.5885 173.653L52.1588 173.585C52.344 174.794 53.08 175.963 52.3684 177.421C51.0328 176.3 51.0572 175.037 51.5885 173.653Z" fill="#1D0E04"/>
<path d="M200.856 118.614C198.1 116.716 195.637 114.425 193.545 111.814C196.557 113.408 199.028 115.65 201.368 118.063L200.856 118.614Z" fill="#0B0403"/>
<path d="M197.468 105.824C197.389 105.836 197.309 105.836 197.23 105.824C196.123 105.448 195.255 104.849 195.114 103.572C195.114 103.46 195.485 103.162 195.602 103.201C196.098 103.362 196.542 103.654 196.886 104.048C197.229 104.441 197.459 104.92 197.551 105.434C197.503 105.558 197.475 105.69 197.468 105.824Z" fill="#130804"/>
<path d="M213.963 40.022C214.45 43.0684 214.879 45.7687 215.284 48.4787C215.282 48.5915 215.253 48.7021 215.2 48.8014C215.146 48.9007 215.07 48.9856 214.977 49.049C214.869 49.0674 214.76 49.0607 214.656 49.0294C214.552 48.9981 214.456 48.9431 214.377 48.8687C213.47 48.0401 213.042 41.806 213.963 40.022Z" fill="#180B04"/>
<path d="M206.534 52.0125C208.708 53.3335 211.067 54.1669 213.919 54.9809C212.534 55.411 211.044 55.3505 209.699 54.8098C208.354 54.2691 207.236 53.2812 206.534 52.0125Z" fill="#0F0703"/>
<path d="M203.581 38.4185C205.53 38.6963 206.832 40.4413 208.879 40.295C208.986 40.295 209.235 40.6606 209.215 40.8312C209.157 41.3186 208.728 41.4502 208.323 41.421C206.218 41.2796 204.575 40.3876 203.581 38.4185Z" fill="#1F0F03"/>
<path d="M222.161 43.2878C220.494 44.8378 217.487 44.3455 216.595 42.6103C216.444 42.3227 216.322 41.9815 216.658 41.7427C216.798 41.6599 216.963 41.6325 217.122 41.6659C217.281 41.6993 217.422 41.791 217.516 41.923C218.793 43.2342 220.382 43.4828 222.161 43.2878Z" fill="#180B04"/>
<path d="M144.803 204.926C146.319 204.799 147.844 204.473 149.302 205.218C147.795 205.126 146.265 205.657 144.803 204.926Z" fill="#9A5144"/>
<path d="M94.4766 220.523C96.9137 219.549 99.0485 220.036 101.5 219.724C99.9844 221.021 96.6358 221.367 94.4766 220.523Z" fill="#0B0504"/>
<path d="M134.689 229.17C133.889 228.132 132.568 228.088 131.525 227.513C130.551 226.987 130.239 227.308 130.151 228.317C130.063 229.326 129.712 230.394 129.722 231.427C129.722 232.977 129.108 233.167 127.801 232.733C127.268 232.59 126.772 232.333 126.348 231.98C125.923 231.627 125.581 231.185 125.344 230.687C125.106 230.188 124.98 229.644 124.974 229.092C124.967 228.54 125.08 227.993 125.306 227.489C125.76 226.219 126.551 225.098 127.595 224.244C128.638 223.391 129.894 222.837 131.228 222.644C133.178 222.293 135.02 222.731 136.034 224.662C137.048 226.592 136.487 228.249 135.059 229.741C134.772 229.677 134.737 229.419 134.689 229.17Z" fill="#9BACB4"/>
<path d="M134.689 229.17L135.084 229.74C134.625 230.493 134.015 231.142 133.291 231.646C132.568 232.149 131.747 232.497 130.882 232.665C130.512 232.007 130.799 231.393 130.824 230.764C130.897 228.941 131.501 228.268 133.261 229.355C133.719 229.672 134.294 229.867 134.689 229.17Z" fill="#99A7AE"/>
<path d="M201.709 114.514C198.96 112.36 196.118 110.323 194.164 107.383C197.41 109.007 199.574 111.765 201.709 114.514Z" fill="#0A0403"/>
<path d="M193.944 122.883C192.248 122.396 192.594 120.9 193.272 120.232C194.909 118.623 193.954 117.863 192.662 116.976C192.429 116.815 192.307 116.488 191.756 115.748C193.612 116.126 195.28 117.138 196.474 118.609C197.225 119.462 195.987 119.408 195.46 119.613C194.881 120.299 194.415 121.074 194.081 121.909L193.979 122.844L193.944 122.883Z" fill="#0C0504"/>
<path d="M194.081 121.909C193.779 120.685 194.485 120.066 195.46 119.603C195.265 120.529 194.953 121.387 194.081 121.909Z" fill="#B65F3B"/>
<path d="M77.0514 113.052C76.6273 110.669 77.7923 110.084 78.9523 109.582C81.7452 108.363 84.3139 108.841 86.6779 110.688C84.9622 111.234 83.4902 109.938 81.8037 110.118C79.9272 110.308 78.3674 110.834 77.0514 113.052Z" fill="#100703"/>
<path d="M102.032 113.379C101.927 113.505 101.777 113.585 101.614 113.602C101.451 113.62 101.288 113.573 101.159 113.471C98.7659 111.551 96.0217 111.375 93.1459 111.795C92.6585 111.863 91.903 112.311 91.8201 111.405C91.7665 110.834 92.4733 110.849 92.9266 110.732C96.8211 109.723 100.399 110.742 102.032 113.379Z" fill="#120903"/>
<path d="M87.3651 121.558C88.1242 118.923 88.72 116.243 89.1491 113.535C90.4651 115.635 89.4269 119.998 87.3651 121.558Z" fill="#140A03"/>
<path d="M108.734 117.034C107.72 117.688 107.14 117.488 107.481 116.225C107.822 114.963 107.827 113.861 106.257 113.145C107.72 112.506 108.534 112.794 108.695 114.203C108.755 115.159 108.755 116.117 108.695 117.073L108.734 117.034Z" fill="#140904"/>
<path d="M94.2963 114.831C95.315 115.353 95.7098 116.064 95.6562 117.005C95.6562 117.117 95.2175 117.341 95.1688 117.288C94.7519 117.052 94.4341 116.674 94.2739 116.222C94.1136 115.771 94.1215 115.277 94.2963 114.831Z" fill="#120902"/>
<path d="M81.9743 114.768C82.6664 114.914 82.8955 115.523 83.1246 116.103C83.305 116.552 83.1246 116.99 82.6372 116.869C82.3375 116.76 82.0737 116.57 81.8751 116.321C81.6764 116.071 81.5505 115.772 81.5113 115.455C81.4772 115.379 81.463 115.296 81.47 115.214C81.477 115.131 81.5051 115.051 81.5514 114.983C81.5978 114.914 81.661 114.858 81.735 114.82C81.809 114.783 81.8914 114.765 81.9743 114.768Z" fill="#271103"/>
</g>
<defs>
<clipPath id="clip0_54827_1255">
<rect width="264.396" height="410.973" fill="white"/>
</clipPath>
</defs>
</svg>
