<svg width="12" height="20" viewBox="0 0 12 20" fill="none" xmlns="http://www.w3.org/2000/svg">
<path d="M10.0791 0.799805C9.80288 0.799805 9.55957 0.887145 9.35645 1.05078L9.27148 1.12598L9.26855 1.12793L9.26953 1.12891L1.25488 9.17188C1.02458 9.39536 0.900391 9.68554 0.900391 10C0.900391 10.3174 1.02575 10.5945 1.25 10.8242L1.25195 10.8252L9.26855 18.8584L9.26758 18.8594C9.48781 19.085 9.76259 19.2002 10.0791 19.2002C10.7087 19.2001 11.2001 18.703 11.2002 18.0566C11.2002 17.7335 11.0772 17.4576 10.8838 17.2471L10.8789 17.2412H10.8779L3.65039 10L10.8779 2.75879L10.8838 2.75293C11.078 2.54155 11.2002 2.25508 11.2002 1.94336C11.2001 1.29701 10.7087 0.799945 10.0791 0.799805Z" fill="white" stroke="white" stroke-width="0.4"/>
</svg>
