<svg width="16" height="16" viewBox="0 0 16 16" fill="none" xmlns="http://www.w3.org/2000/svg">
<path d="M1.07245 0.927551C1.50638 0.493788 2.21024 0.493686 2.6441 0.927551L8.1449 6.42834L13.6429 0.930313C14.0768 0.496415 14.7807 0.49645 15.2146 0.930313C15.6483 1.36424 15.6485 2.0681 15.2146 2.50197L9.71655 8L15.2146 13.498C15.6485 13.9319 15.6483 14.6358 15.2146 15.0697C14.7807 15.5036 14.0768 15.5036 13.6429 15.0697L8.1449 9.57166L2.6441 15.0724C2.21024 15.5063 1.50638 15.5062 1.07245 15.0724C0.638587 14.6385 0.638551 13.9347 1.07245 13.5008L6.57324 8L1.07245 2.49921C0.638551 2.06531 0.638587 1.36147 1.07245 0.927551Z" fill="white"/>
</svg>
