<svg width="20" height="20" viewBox="0 0 20 20" fill="none" xmlns="http://www.w3.org/2000/svg">
<path d="M9.18994 2.18884C9.56079 2.18884 9.84501 2.49414 9.84521 2.84314C9.84521 3.21412 9.5391 3.49841 9.18994 3.49841H5.50244C4.38949 3.49841 3.47217 4.41476 3.47217 5.52771V14.5189C3.47233 15.6317 4.38959 16.5482 5.50244 16.5482H14.4927C15.6055 16.5482 16.5228 15.6317 16.5229 14.5189V10.8304C16.523 10.4595 16.8281 10.1761 17.1772 10.1761C17.5263 10.1762 17.81 10.4814 17.8101 10.8304V14.4965C17.8101 16.3296 16.3258 17.8138 14.4927 17.8138H5.50244C3.66934 17.8138 2.18506 16.3296 2.18506 14.4965V5.50623C2.18506 3.67313 3.66934 2.18884 5.50244 2.18884H9.18994ZM15.6938 2.38708C16.2393 2.36536 16.763 2.58328 17.1558 2.97595C17.9414 3.76157 17.9414 5.04971 17.1558 5.83533L11.6567 11.2904C11.5476 11.3559 11.4598 11.4219 11.3726 11.4437L8.68799 12.1849C8.62261 12.2067 8.55707 12.2074 8.4917 12.2074C8.42642 12.2074 8.36144 12.2067 8.31787 12.1849C7.9906 12.0758 7.7942 11.7274 7.88135 11.3783L8.62256 8.69373C8.6662 8.54097 8.73253 8.45383 8.81982 8.43201L14.2749 2.97595C14.6459 2.60502 15.1483 2.38708 15.6938 2.38708ZM9.40869 10.6146L9.97607 10.4828L9.56104 10.0687L9.40869 10.6146ZM16.1733 3.91443C15.9115 3.63098 15.4534 3.58728 15.1479 3.849L10.1724 8.82458L11.1978 9.84998L16.1733 4.87439C16.4133 4.5907 16.4134 4.19808 16.1733 3.91443Z" fill="white"/>
</svg>
