<svg width="18" height="18" viewBox="0 0 18 18" fill="none" xmlns="http://www.w3.org/2000/svg">
<path d="M17.0104 8.13861C17.2237 8.37486 17.3417 8.68179 17.3417 9.00003C17.3417 9.31828 17.2237 9.62521 17.0104 9.86146C15.6604 11.3143 12.5876 14.1429 9.00043 14.1429C5.41329 14.1429 2.34043 11.3143 0.99043 9.86146C0.777207 9.62521 0.65918 9.31828 0.65918 9.00003C0.65918 8.68179 0.777207 8.37486 0.99043 8.13861C2.34043 6.68575 5.41329 3.85718 9.00043 3.85718C12.5876 3.85718 15.6604 6.68575 17.0104 8.13861Z" stroke="#2D343C" stroke-width="1.28571" stroke-linecap="round" stroke-linejoin="round"/>
<path d="M8.9999 11.5716C10.4201 11.5716 11.5713 10.4203 11.5713 9.00014C11.5713 7.57998 10.4201 6.42871 8.9999 6.42871C7.57973 6.42871 6.42847 7.57998 6.42847 9.00014C6.42847 10.4203 7.57973 11.5716 8.9999 11.5716Z" stroke="#2D343C" stroke-width="1.28571" stroke-linecap="round" stroke-linejoin="round"/>
</svg>
