<svg width="30" height="28" viewBox="0 0 30 28" fill="none" xmlns="http://www.w3.org/2000/svg">
<path d="M4.8297 11.073C5.20451 10.968 5.66912 11.2005 5.75158 11.5984C5.87151 12.2065 5.99915 12.8076 6.12658 13.4158C6.6738 16.0587 7.22877 18.7094 7.77599 21.3523C8.08283 22.8288 8.38907 24.3055 8.69591 25.782H11.4332V19.6697C11.4332 18.8889 11.5164 18.1227 11.9586 17.447C13.5331 15.0372 17.551 15.5103 18.3531 18.3484C18.5106 18.9115 18.4801 19.4975 18.4801 20.0681V25.782H21.149C21.2412 25.3565 21.333 24.9311 21.4274 24.5056C21.9971 21.8701 22.5666 19.2271 23.1363 16.5916C23.4962 14.9247 23.8556 13.2577 24.2154 11.5984C24.4178 10.6524 25.8648 11.0575 25.6627 11.9958C25.5278 12.6041 25.4002 13.2128 25.2652 13.821C24.6955 16.4565 24.126 19.0997 23.5563 21.7351C23.1964 23.402 22.836 25.0614 22.4762 26.7283C22.4086 27.0436 22.0713 27.2761 21.7565 27.2761H8.09826C7.79093 27.2761 7.44606 27.0511 7.37853 26.7283C7.25858 26.1201 7.13097 25.5191 7.00353 24.9109C6.45628 22.2679 5.90136 19.6174 5.35411 16.9744C5.00927 15.315 4.66478 13.6553 4.31993 11.9958C4.23759 11.598 4.43245 11.1856 4.8297 11.073ZM14.8522 0.830811C15.0545 0.688207 15.4141 0.688232 15.609 0.830811C16.1862 1.24378 16.7564 1.66393 17.3336 2.0769C19.8449 3.90144 22.3637 5.726 24.8824 7.55054C26.4641 8.6993 28.0458 9.84123 29.6276 10.99C29.9573 11.2302 30.1226 11.643 29.8981 12.0183C29.7031 12.3487 29.2006 12.5291 28.8707 12.2888C28.2935 11.8759 27.7233 11.4557 27.1461 11.0427C24.6348 9.21819 22.1161 7.39363 19.5973 5.56909C18.1394 4.51028 16.6821 3.45698 15.2242 2.39917C14.7528 2.72973 14.2816 3.0608 13.8102 3.39136C11.2088 5.21597 8.61464 7.04038 6.01329 8.86499C4.38655 10.0138 2.75234 11.1553 1.1256 12.2966C0.795744 12.5293 0.293151 12.349 0.0982552 12.0261C-0.118966 11.6507 0.0389718 11.2305 0.368763 10.9978C0.968454 10.5773 1.5679 10.1565 2.16759 9.73608C4.76893 7.91147 7.36312 6.08706 9.96447 4.26245C11.5912 3.11364 13.2254 1.97212 14.8522 0.830811Z" fill="#E2AF42"/>
</svg>
