<svg width="36" height="36" viewBox="0 0 36 36" fill="none" xmlns="http://www.w3.org/2000/svg">
<path d="M30.7773 6.33325C32.004 6.33325 33 7.33035 33 8.55591V27.4446C32.9999 28.6711 32.0039 29.6663 30.7773 29.6663H5.22266C3.99717 29.6663 3.00012 28.6711 3 27.4446V8.55591C3 7.33035 3.9971 6.33325 5.22266 6.33325H30.7773ZM5.22266 8.55591V24.1106L13.8809 15.4524C14.3153 15.0179 15.0177 15.0179 15.4521 15.4524L21.6592 21.6584C22.0936 22.0929 22.796 22.0929 23.2305 21.6584L24.9922 19.8967C25.4266 19.4623 26.129 19.4623 26.5635 19.8967L30.7793 24.1125L30.7773 8.55591H5.22266ZM25.2227 10.7776C26.4498 10.7778 27.4443 11.7731 27.4443 13.0002C27.4441 14.2273 26.4497 15.2217 25.2227 15.2219C23.9955 15.2219 23.0002 14.2274 23 13.0002C23 11.7729 23.9954 10.7776 25.2227 10.7776Z" fill="#93A3BC"/>
</svg>
