<svg width="321" height="401" viewBox="0 0 321 401" fill="none" xmlns="http://www.w3.org/2000/svg">
<g clip-path="url(#clip0_54827_1000)">
<path d="M5.67865 373.382C5.73359 372.473 5.82851 371.564 5.82851 370.65C5.82851 353.555 6.20309 336.474 8.86012 319.543C12.6459 295.385 20.6719 273 36.8288 254.116C38.2422 253.057 39.7456 253.736 41.159 254.006C51.9935 256.094 62.8863 257.77 73.8374 259.035C80.0105 259.749 86.2336 259.914 92.3617 260.993C94.4693 261.133 95.9477 262.761 98.0204 263.256C101.831 264.165 105.482 263.845 109.228 263.256C110.956 262.981 112.669 263.755 114.397 263.825C119.631 263.98 124.975 264.549 130.075 263.68C134.979 262.846 139.724 264.429 144.493 263.515C146.746 263.081 148.834 263.57 151.011 263.98C152.365 264.239 153.483 264.259 153.428 266.027C153.403 266.782 153.843 267.246 154.687 267.376C154.927 265.818 151.69 264.424 154.487 262.841C155.926 262.896 156.365 264.095 156.934 265.064C162.268 274.183 167.078 283.578 171.568 293.132C178.231 307.448 184.1 322.121 189.148 337.083C192.884 348.021 196.242 359.073 199.222 370.241C199.457 371.13 199.682 372.024 199.162 372.903C198.408 373.327 197.494 373.522 197.07 374.401C195.137 376.004 193.279 377.747 190.577 377.932C186.032 380.07 181.637 382.522 176.952 384.37C174.954 385.149 173.051 386.068 171.104 386.922C168.756 388.191 166.439 389.559 163.612 389.419C157.542 391.721 151.306 393.557 144.958 394.913C140.218 395.912 135.468 396.841 130.699 397.69C129.2 397.96 127.527 397.281 126.154 398.374L116.595 399.338C114.921 397.64 114.802 395.273 113.978 393.215C112.224 388.81 110.736 384.31 109.048 379.88C108.668 378.881 108.249 377.857 108.449 376.734C109.448 371.769 110.017 366.745 110.946 361.75C112.689 352.596 114.602 343.486 118.438 334.905C118.632 334.501 118.907 334.131 119.122 333.732C119.456 333.102 118.987 333.422 118.767 333.462C118.033 333.741 117.422 334.272 117.044 334.96C115.196 337.003 113.198 338.791 111.355 340.764C108.703 344.165 107.859 348.22 107.475 352.331C107.21 355.353 106.076 358.294 106.641 361.386C106.826 363.658 105.827 365.706 105.392 367.878C103.974 373.652 103.04 379.52 101.896 385.359C101.092 389.499 100.103 393.595 99.224 397.72C99.1024 398.458 98.8042 399.155 98.355 399.753C96.9915 401.006 95.3234 400.752 93.7202 400.612C92.117 400.472 90.4938 400.207 88.8706 400.167C81.1335 399.682 73.4419 398.635 65.8564 397.036C59.7931 395.792 53.7249 394.569 47.8165 392.681C46.5483 392.301 45.3517 391.714 44.2755 390.943L28.2934 384.949C24.123 383.846 20.0026 382.617 16.8062 379.456L5.67865 373.382Z" fill="#013A17"/>
<path d="M96.1225 24.5525C100.068 27.4992 104.508 29.5469 109.108 31.1701C120.97 35.3454 123.677 45.2444 123.092 54.0994C122.688 59.4839 121.628 64.799 119.936 69.9267C119.634 70.967 119.758 72.0844 120.28 73.0333C121.719 76.2447 123.507 79.3462 126.024 81.7136C132.702 87.9915 133.626 95.7978 132.577 104.188C132.481 104.831 132.52 105.486 132.692 106.112C132.864 106.738 133.165 107.321 133.576 107.824C136.298 111.6 138.85 115.466 140.383 119.926C141.967 124.411 141.882 129.317 140.143 133.745C139.224 134.245 138.94 133.675 138.745 132.936C138.711 132.439 138.784 131.94 138.96 131.473C140.987 125.624 139.684 120.38 136.153 115.491C134.02 112.539 131.728 109.667 130.919 106.001C130.684 104.938 130.354 103.859 130.654 102.81C132.447 96.5869 130.439 91.2229 127.018 86.1536C126.833 85.8733 126.666 85.5814 126.518 85.2796C124.321 82.1031 121.814 79.1414 119.646 75.5005C121.829 79.2913 124.586 82.2879 126.683 85.6741C129.43 89.4649 130.049 93.9349 129.755 98.305C129.257 104.032 130.931 109.737 134.445 114.287C137.646 118.592 138.325 123.777 137.796 129.056C137.776 130.064 137.425 131.038 136.797 131.827C135.983 132.352 135.169 132.067 134.425 131.728C127.512 128.551 120.101 127.233 112.694 125.839C109.058 125.07 105.347 124.775 101.706 124.131C99.9881 123.831 99.1741 122.997 98.7745 121.319C97.9554 117.878 98.0503 114.242 96.542 110.956C97.6158 109.258 96.9366 107.43 96.9166 105.652C96.9166 104.683 96.4671 103.699 97.0265 102.745C97.4186 102.384 97.8857 102.115 98.3943 101.956C98.9029 101.797 99.4404 101.753 99.9682 101.826C100.967 102.036 101.372 102.91 101.921 103.624C104.668 107.21 108.254 108.688 112.644 107.505C117.194 106.276 120.585 103.579 121.484 98.7295C122.298 94.3444 120.61 90.7734 117.044 88.1064C116.32 87.562 115.431 87.2274 114.916 86.4233C114.267 84.7302 115.001 83.142 115.356 81.5487C116.44 76.7341 117.169 71.9095 116.555 66.9601C116.22 64.2581 115.331 63.464 112.664 63.7437C112 63.8136 111.36 64.0184 110.701 64.1232C109.792 64.2731 108.768 64.5178 108.359 63.3641C107.914 62.1205 108.618 61.3014 109.662 60.732C110.886 60.0578 112.849 60.0528 116.085 60.772C115.586 57.6655 113.773 55.433 111.885 53.3303C110.117 51.3325 107.844 49.8992 106.246 47.7066C104.993 45.9885 104.643 48.206 103.824 48.4508C103.662 48.5078 103.486 48.5048 103.326 48.4425C103.167 48.3801 103.035 48.2626 102.955 48.1112C102.955 48.0462 102.87 47.9513 102.895 47.8914C102.995 47.6417 102.82 47.5068 102.735 47.6866C101.072 50.9929 98.365 53.5101 96.1574 56.4069C95.4508 57.291 94.6578 58.1024 93.7901 58.8292C94.7141 58.4945 95.3683 57.1261 96.7468 57.7703C96.8742 57.9689 96.9529 58.1948 96.9765 58.4296C97.0165 59.4285 97.8406 59.5084 98.5298 59.7331C99.2508 59.9243 99.9153 60.2857 100.468 60.787C100.748 61.0357 100.949 61.3618 101.045 61.7243C101.141 62.0869 101.128 62.4697 101.007 62.8247C100.702 63.7437 99.8982 63.8236 99.174 63.5938C95.678 62.4901 92.3217 63.2692 88.9755 64.2631C87.7119 63.1493 86.678 63.9584 85.6292 64.6576C84.1602 65.5888 82.6244 66.4101 81.0343 67.1149C80.0413 67.5344 79.2071 68.2584 78.652 69.1826C77.3285 70.2714 75.7053 70.616 74.0921 70.8857C72.6837 71.1204 72.2392 71.6398 72.8635 73.0183C73.4644 74.375 73.8487 75.8176 74.0022 77.2935C74.1171 78.2924 74.227 79.6359 73.0433 79.7108C71.8596 79.7857 72.2142 78.3973 72.0844 77.5632C71.9445 77.1736 72.8885 76.1298 71.4451 76.5294C70.5511 76.0299 70.4062 75.076 69.9917 74.2869C69.3424 73.0433 68.818 71.7197 67.8341 70.6809C66.4307 69.1826 64.9024 67.8591 62.6549 68.4984C60.2626 69.1826 59.3536 71.1404 59.029 73.3729C58.5795 76.4694 59.5284 79.2463 61.2065 81.8334C61.8109 82.7624 62.8897 83.5415 62.3902 84.91C61.8009 85.6591 60.8919 85.9538 60.1277 86.4083C55.0734 89.405 52.7959 96.0275 54.9785 101.392C57.236 106.885 62.8797 109.777 68.803 108.434C69.752 108.219 70.6909 107.694 71.7048 108.214C71.898 108.376 72.0552 108.576 72.1662 108.802C72.2771 109.029 72.3394 109.276 72.3491 109.527C72.459 113.893 71.6149 118.113 70.3513 122.253C70.2317 122.662 69.9963 123.026 69.6737 123.304C69.351 123.581 68.955 123.759 68.5333 123.816C65.1671 124.261 61.8958 125.405 58.4396 125.185C57.5638 124.92 56.6268 124.94 55.7626 125.24C48.9902 126.029 42.2128 126.708 35.5852 128.491C25.4415 131.223 17.1858 136.482 11.657 145.597C11.1875 146.371 10.763 147.225 9.73413 147.42C4.35016 142.725 0.79913 137.027 0.11989 129.775C-0.669227 121.319 2.83184 113.972 5.93836 106.451C9.11172 98.6223 14.7138 92.0189 21.9205 87.612C26.9798 84.4255 31.0003 80.2052 32.9981 74.3068C33.7423 72.1043 33.6973 69.9018 33.8971 67.6843C34.5763 60.2226 38.5369 54.3142 42.887 48.5806C45.0496 45.7338 47.1323 42.8321 49.2349 39.9453C49.7693 39.2161 50.1839 38.4969 48.7605 38.2272C46.0385 37.7278 43.9758 36.0097 41.9031 34.3416C39.4459 32.6435 38.7267 29.9664 38.1174 27.3044C36.7039 21.1513 38.0175 15.4527 41.2988 10.1536C41.8981 9.15473 42.4975 8.13086 43.796 7.85617C45.1445 7.06705 46.1733 5.75353 47.7915 5.39893C48.5307 5.04932 49.155 5.75852 49.8692 5.61368C50.049 5.31402 50.1689 5.76351 49.8692 5.61368C49.7993 5.72356 49.5596 5.65363 49.4247 5.54875C49.3765 5.51697 49.335 5.47599 49.3026 5.42816C49.2702 5.38032 49.2476 5.32657 49.236 5.26998C49.2244 5.21339 49.2241 5.15508 49.235 5.09836C49.246 5.04164 49.268 4.98764 49.2999 4.93945C52.0018 3.86565 54.504 4.69973 56.9763 5.76354C57.7104 6.07819 58.5046 6.76242 59.1688 5.76354C61.691 1.94781 65.4568 0.634251 69.7769 0.399514C72.429 -0.674285 74.6815 0.669229 76.7691 1.85291C81.8135 4.69972 84.1559 11.1425 82.5427 17.0109C82.1354 18.3756 81.6348 19.7106 81.0443 21.0065C84.5954 21.5059 88.2263 20.7667 91.218 22.9443C92.8411 23.4937 94.3495 24.4177 96.1225 24.5525Z" fill="#401C02"/>
<path d="M239.472 18.0148C239.472 21.9105 240.541 25.7012 240.421 29.6268C240.404 33.0975 239.428 36.4959 237.599 39.4459C231.931 48.5057 226.512 57.7254 220.998 66.8852C220.284 67.884 219.574 68.8829 218.541 70.3063C218.925 68.4734 219.21 67.1249 219.489 65.7764C223.155 54.4541 226.776 43.1168 230.502 31.8144C232.924 24.4626 235.497 17.1658 238.219 9.87395C238.728 12.6159 238.608 15.3878 239.472 18.0148Z" fill="#DD3B32"/>
<path d="M193.608 30.9005C195.506 30.3311 197.419 29.8217 199.287 29.1724C200.531 28.7379 201.005 28.8777 201.13 30.366C201.994 40.5846 202.963 50.7932 203.862 61.0068C204.047 63.0745 204.072 65.1471 204.167 67.2198C204.117 68.2537 204.067 69.2875 203.977 71.0655C201.225 63.8536 199.782 56.9963 197.559 50.3887C195.986 44.6751 194.438 38.9515 192.819 33.2528C192.49 32.189 192.365 31.345 193.608 30.9005Z" fill="#BBEBF8"/>
<path d="M254.011 17.5104L247.668 23.239C248.122 17.91 248.607 12.2513 249.091 6.58762C250.175 2.84181 250.17 2.85181 254.236 4.2852C256.808 5.19419 259.395 6.06322 261.977 6.94723C262.152 7.28186 262.322 7.61648 262.476 7.94612L254.011 17.5104Z" fill="#DD3B32"/>
<path d="M49.2699 4.9345C49.3498 5.27911 50.079 5.55879 49.7144 5.79852C49.0751 6.21805 48.3858 5.72363 47.7565 5.41897C48.1511 4.87458 48.7155 4.90952 49.2699 4.9345Z" fill="#312B10"/>
<path d="M263.99 99.7284H320.531L320.736 100.438C312.745 107.43 304.145 113.683 295.949 120.415C295.03 121.219 294.046 121.025 293.007 120.675C290.16 119.721 287.299 118.802 284.442 117.873C284.099 118.025 283.728 118.104 283.353 118.104C282.978 118.104 282.607 118.025 282.264 117.873C277.46 116.27 272.64 114.687 267.84 113.068C267.141 112.799 266.508 112.384 265.982 111.85L259.575 109.852C253.172 107.09 246.389 105.412 239.897 102.905C237.275 101.906 234.583 101.072 231.906 99.9881C238.583 99.5586 245.291 100.138 251.943 99.3638C252.173 99.1191 252.443 98.8294 252.757 98.8294C256.538 98.7944 260.329 98.5298 263.99 99.7284Z" fill="#DD3B36"/>
<path d="M253.581 51.2027C251.943 49.5296 251.953 47.9314 253.362 45.9836C255.809 42.6023 257.767 38.8765 260.419 35.6252C263.71 37.543 265.783 40.7244 268.41 43.3315C268.979 43.9009 269.339 44.4353 268.29 45.0446C265.213 46.8226 262.631 49.3348 259.48 51.0379C257.507 52.0917 255.579 52.2565 253.581 51.2027Z" fill="#F3A927"/>
<path d="M145.297 138.18C150.06 129.457 157.317 122.354 166.139 117.778C167.475 117.105 168.896 116.618 170.364 116.33C173.071 115.755 173.491 116.16 173.251 118.827C173.061 121.01 171.753 122.463 170.18 123.741C168.182 125.375 166.119 126.903 164.131 128.531C163.462 129.081 162.633 129.53 162.428 130.759C167.372 130.077 172.348 129.655 177.337 129.495C178.825 129.477 180.312 129.604 181.777 129.875C183.679 130.199 184.149 131.523 183.125 133.191C182.246 134.523 180.886 135.462 179.329 135.813C177.606 136.312 175.868 136.727 174.14 137.176C172.382 138.26 170.439 137.536 168.601 137.651C165.885 137.812 163.206 138.362 160.645 139.284C163.822 137.756 168.232 137.606 172.662 137.666C173.487 137.705 174.313 137.604 175.104 137.366C177.925 137.99 180.682 138.873 183.34 140.003C184.893 140.712 186.396 141.696 185.907 143.724C185.418 145.752 183.625 145.287 182.186 145.287C178.3 145.251 174.42 144.969 170.569 144.443C170.159 144.368 169.737 144.375 169.33 144.465C168.922 144.555 168.537 144.726 168.197 144.968C172.742 146.281 176.712 148.499 179.734 152.195C180.458 153.079 181.412 154.192 180.543 155.301C179.834 156.22 178.515 155.866 177.521 155.576C175.928 155.125 174.375 154.543 172.877 153.838C168.157 151.6 165.015 152.804 163.028 157.723C160.815 164.471 158.533 171.153 151.87 175.064C149.433 176.487 147.405 178.52 145.148 180.213C144.443 180.368 144.398 181.062 144.089 181.547C138.62 186.456 134.14 192.255 129.385 197.804C120.295 208.392 110.57 218.417 100.263 227.825C94.0931 233.526 87.4049 238.639 80.2851 243.098C79.7058 243.458 79.2863 243.997 78.7868 244.396C74.7114 245.895 71.1354 248.442 67.1498 250.15C66.7103 250.36 66.2608 250.555 65.8013 250.724C62.0555 251.983 58.3097 253.292 54.3991 253.896C53.4233 254.056 52.4298 254.08 51.4474 253.966C49.0976 253.698 46.7235 253.724 44.3803 254.046C42.2627 253.761 40.0302 253.841 38.387 252.103C36.0896 250.225 33.1878 249.381 30.8405 247.518C23.5686 241.759 19.2834 234.033 15.9122 225.642C14.0369 220.783 12.5 215.8 11.3123 210.729C10.49 209.018 10.0958 207.133 10.1636 205.235C12.8656 203.637 15.9821 203.158 18.8539 202.019C20.1121 201.533 21.3939 201.112 22.6946 200.755C23.5913 200.463 24.5033 200.219 25.4265 200.026C27.7689 199.682 30.1113 199.337 32.2489 198.208C32.4659 198.098 32.6894 198.001 32.9182 197.918C34.3815 197.454 35.9148 197.374 37.4131 196.965C42.872 195.861 48.3559 194.917 53.8947 194.268C54.9635 194.143 56.0323 193.878 57.0861 194.347C57.3166 194.474 57.507 194.663 57.6355 194.892C58.3797 197.189 58.6344 199.602 59.2986 201.919C59.6682 203.178 60.1527 203.547 61.4063 202.918C63.9884 201.569 66.4806 200.066 69.0677 198.738C70.3663 198.073 70.7508 196.74 71.2103 195.501C72.3091 192.505 73.3329 191.601 76.4045 192.17C79.4761 192.739 81.7785 191.8 84.3356 190.317C91.3778 186.227 98.6446 182.546 105.812 178.695C109.453 177.147 113.053 175.534 116.13 172.966C120.68 170.944 125.015 168.501 129.385 166.139C132.756 164.321 134.629 161.145 136.288 157.883C138.989 152.549 140.458 146.706 143.035 141.317C143.594 140.118 143.929 138.775 145.297 138.18Z" fill="#773B07"/>
<path d="M106.206 179.15C98.1652 183.555 89.9694 187.665 82.1032 192.385C81.4742 192.777 80.7689 193.03 80.0344 193.128C79.2998 193.227 78.5528 193.167 77.8429 192.954C73.4579 191.815 72.9684 192.135 71.6649 196.39C71.5034 197.07 71.1828 197.703 70.7296 198.235C70.2764 198.767 69.7035 199.184 69.0578 199.452C65.7864 200.835 62.9846 203.158 59.4835 204.386C58.4075 201.449 57.7224 198.383 57.4458 195.267C58.2049 194.318 58.0151 193.269 57.8703 192.17C56.8264 184.324 54.4191 176.792 52.4863 169.156C51.9419 166.988 51.4874 164.811 50.8481 162.224C52.8958 171.958 56.0323 180.993 57.5956 190.402C57.8253 191.79 58.5196 193.349 57.221 194.657C50.5633 195.257 43.9461 196.245 37.4032 197.614C35.6451 197.115 34.3466 195.711 32.6036 195.212C31.8844 195.012 30.9903 194.123 30.436 195.057C29.9965 195.801 31.0603 196.226 31.5547 196.725C32.0492 197.224 32.9981 197.599 32.8283 198.633L32.0542 198.853C31.455 199.009 30.8279 199.024 30.2216 198.899C29.6153 198.773 29.0461 198.51 28.5581 198.128C27.7311 197.585 26.8589 197.114 25.951 196.72C22.39 195.002 21.6458 195.142 18.9039 198.034C16.981 199.412 14.4738 199.497 12.551 200.88C12.0533 201.168 11.509 201.366 10.9428 201.465C9.98386 201.5 9.02493 201.54 8.22583 202.189C8.04693 202.303 7.8515 202.389 7.64646 202.444C6.80876 202.456 5.98958 202.692 5.27411 203.128C4.68077 203.43 4.0514 203.654 3.40121 203.797C2.84184 203.867 2.27747 204.112 1.74806 203.702C1.22365 201.24 1.57327 198.753 1.5483 196.28C2.20257 195.357 3.28634 195.337 4.2153 195.132C10.5482 193.768 12.9206 185.003 11.0577 180.613C9.51937 176.987 7.40176 175.868 3.73586 176.937C3.27633 177.134 2.75949 177.152 2.28747 176.987C1.78802 171.493 2.98668 166.194 4.25526 160.92C5.39899 156.155 7.45169 151.75 9.71915 147.435C17.4405 132.986 30.6957 127.802 45.8837 125.804C49.16 125.375 52.4514 125.075 55.7377 124.716C55.9938 124.676 56.2552 124.69 56.5059 124.755C56.7567 124.82 56.9915 124.936 57.196 125.095C64.2581 131.937 72.6787 136.387 82.3529 137.716C90.294 138.805 98.295 138.755 105.257 133.586C107.338 132.069 109.128 130.189 110.541 128.037C111.166 127.073 111.65 125.974 112.734 125.38C120.57 126.494 128.282 128.087 135.483 131.553C135.868 131.672 136.269 131.732 136.672 131.733C137.816 131.423 138.545 131.952 139.074 132.896C139.104 133.596 139.394 133.965 140.148 133.75C141.941 135.139 144.039 136.183 145.307 138.18C142.665 142.72 141.167 147.715 139.234 152.524C138.314 154.909 137.269 157.243 136.103 159.517C134.205 163.073 131.728 166.064 127.812 167.702C123.896 169.341 120.45 172.093 116.27 173.256C115.464 172.377 114.475 171.686 113.374 171.23C112.272 170.775 111.083 170.566 109.892 170.619C108.579 170.649 107.515 169.525 106.196 169.271C105.197 169.081 104.258 168.771 103.269 169.131C102.69 169.326 102.196 169.63 102.166 170.32C102.166 170.894 102.6 171.164 103.07 171.368C103.691 171.594 104.297 171.861 104.883 172.167C106.496 173.166 106.636 173.925 105.187 175.069C104.119 175.918 104.024 176.568 105.077 177.407C105.632 177.861 106.396 178.206 106.206 179.15Z" fill="#FEFEFE"/>
<path d="M2.29246 176.987C7.07211 174.37 11.1226 176.163 12.1564 181.642C13.3451 187.93 10.0388 196.046 1.55329 196.28C1.20868 189.828 1.0039 183.38 2.29246 176.987Z" fill="#5385C1"/>
<path d="M38.362 252.098L44.3553 253.541C46.8037 253.289 49.2708 253.274 51.7221 253.496C56.6216 253.292 61.1266 251.434 65.7564 250.11C66.4756 250.874 66.131 251.733 65.9761 252.572C64.6476 258.196 64.6476 258.201 58.984 257.392C52.2465 256.438 45.549 255.239 38.8865 253.896C38.387 253.791 37.6229 254.006 37.7477 253.042C37.7433 252.841 37.7996 252.643 37.9092 252.475C38.0187 252.307 38.1766 252.175 38.362 252.098Z" fill="#013B17"/>
<path d="M10.748 201.33C11.1475 200.635 11.8418 200.67 12.501 200.611C14.6236 199.697 16.6813 198.528 19.1436 198.952C20.3173 200.096 20.1425 201.32 19.3334 202.568L10.4583 205.335C7.96108 206.978 5.359 208.262 2.28244 208.257C1.57823 207.153 1.91785 205.915 1.82296 204.736C2.3224 203.832 3.32129 203.777 4.16534 203.472C4.62438 203.166 5.13051 202.936 5.66367 202.793C6.35789 202.473 7.13202 202.433 7.84122 202.164L7.78129 202.209C8.62112 201.547 9.683 201.232 10.748 201.33Z" fill="#F9FAF9"/>
<path d="M37.7228 253.027C40.7494 254.395 44.0657 254.48 47.2571 255.08C52.0118 255.969 56.8414 256.473 61.5961 257.372C63.2892 257.697 64.1183 257.372 64.4629 255.734C64.7176 254.525 64.9923 253.327 65.262 252.128C65.3206 252.085 65.3877 252.056 65.4587 252.042C65.5297 252.028 65.6029 252.03 65.6732 252.047C65.7435 252.064 65.8092 252.096 65.8658 252.141C65.9225 252.186 65.9687 252.243 66.0012 252.308C66.2947 252.819 66.3839 253.422 66.2509 253.996C65.5267 257.432 66.6904 257.322 69.3075 257.637C79.7958 258.895 90.2391 260.109 100.772 260.359C102.001 260.389 103.304 260.244 104.208 261.393C104.28 261.521 104.317 261.665 104.317 261.812C104.317 261.959 104.28 262.103 104.208 262.232C102.081 263.385 99.9282 262.661 97.7756 262.341C97.0564 262.307 96.3323 262.341 95.6181 262.242C94.7091 261.742 93.6203 262.052 92.7113 261.617C77.3485 260.199 61.9907 258.77 46.8326 255.744C43.5213 255.08 40.1601 254.655 36.8438 254.121L37.7228 253.027Z" fill="#03522D"/>
<path d="M2.28247 208.257C5.03439 207.358 7.54158 205.76 10.4583 205.335C11.0726 207.083 11.5421 208.831 11.3224 210.729C9.14481 210.345 6.95726 210.02 4.79967 209.546C3.89069 209.346 2.82187 209.311 2.28247 208.257Z" fill="#050403"/>
<path d="M4.36012 203.697L1.82295 204.736C1.39343 204.416 1.70308 204.052 1.75302 203.702L3.36124 203.238C3.62594 203.542 4.13537 203.303 4.36012 203.697Z" fill="#3F3D38"/>
<path d="M108.798 376.958C107.593 373.812 106.386 370.667 105.177 367.524C104.718 365.376 106.276 363.558 106.176 361.471C106.091 357.15 107.1 352.98 107.774 348.74C108.27 345.606 109.454 342.621 111.24 340L116.694 334.576C117.294 334.017 118.016 333.605 118.802 333.372C119.411 333.517 119.541 333.871 119.262 334.411C115.987 342.805 113.561 351.505 112.02 360.382C111.151 365.251 110.451 370.156 109.732 375.055C109.602 375.825 109.542 376.529 108.798 376.958Z" fill="#002909"/>
<path d="M97.7157 261.637C99.8515 262.066 102.034 262.217 104.208 262.087C105.412 261.088 106.801 261.428 108.154 261.532C109.123 261.782 110.027 262.361 111.096 262.062C111.781 261.963 112.48 262.006 113.148 262.187C119.555 262.543 125.978 262.52 132.382 262.117C133.631 261.777 134.969 262.057 136.198 261.562C138.47 261.447 140.768 260.988 142.98 261.897C143.108 261.971 143.259 261.994 143.404 261.962C143.548 261.929 143.675 261.844 143.759 261.722C144.933 260.628 146.306 260.828 147.685 261.153C149.118 262.396 147.575 262.152 147.135 262.396C147.935 262.531 148.384 261.937 148.804 261.293C150.572 260.908 152.35 260.294 154.023 261.577C154.297 262.077 154.572 262.526 154.852 263.001C152.31 264.339 155.261 265.183 155.191 266.327C155.156 266.921 156.635 267.116 156.06 268.035C155.706 268.595 154.957 268.33 154.452 268.08C153.813 267.765 152.454 268.23 152.674 266.916C153.049 264.584 152.205 264.139 150.177 264.974C149.936 265.056 149.674 265.051 149.437 264.96C149.2 264.868 149.002 264.697 148.878 264.474C148.149 263.385 147.3 263.42 146.346 264.129C146.276 264.179 146.196 264.279 146.147 264.269C142.925 263.325 139.654 265.398 136.492 264.219C134.774 263.585 133.196 263.181 131.543 264.309C131.182 264.513 130.768 264.607 130.354 264.579C123.737 264.394 117.119 264.904 110.491 264.08C108.094 263.785 105.452 264.259 102.97 264.579C101.858 264.747 100.724 264.701 99.6286 264.444C97.196 263.858 94.8669 262.905 92.7213 261.617H95.718C96.3922 261.897 97.0565 262.711 97.7157 261.637Z" fill="#013A17"/>
<path d="M111.241 340C107.954 346.777 107.28 354.169 106.191 361.476C104.923 359.977 106.081 358.449 106.241 356.981C106.565 353.536 107.085 350.112 107.799 346.727C108.354 344.265 109.203 341.793 111.241 340Z" fill="#04502C"/>
<path d="M119.247 334.411C119.247 334.011 119.177 333.642 118.677 333.572C118.621 333.528 118.58 333.468 118.56 333.4C118.539 333.332 118.54 333.26 118.562 333.192C118.612 333.072 118.657 333.012 118.707 333.012L120.5 332.014C120.575 333.277 119.831 333.802 119.247 334.411Z" fill="#938A3A"/>
<path d="M118.692 333.007L118.662 333.567C118.128 334.115 117.424 334.468 116.664 334.566C117.089 333.707 117.693 333.077 118.692 333.007Z" fill="#0B5734"/>
<path d="M182.621 190.797C189.113 179.574 196.825 169.196 204.351 158.682C206.229 156.055 208.007 153.373 210.085 150.871C211.943 148.634 211.778 145.592 211.903 142.785C211.958 141.477 211.718 140.153 212.043 138.85C213.646 138.13 214.885 139.239 216.133 139.824C217.202 140.323 216.428 141.217 216.013 141.921C214.39 144.713 213.341 147.595 214.735 150.836C213.351 147.415 214.375 144.344 216.338 141.592C217.277 140.258 216.638 139.814 215.589 139.454C214.026 138.925 212.532 138.16 210.859 137.981C209.076 137.561 207.263 137.266 205.615 136.407C204.207 135.678 203.013 134.684 203.228 132.966C203.432 131.338 205.006 131.183 206.249 130.794C207.128 130.524 208.072 130.619 208.956 130.379C211.843 130.484 214.45 132.057 217.117 132.037C213.152 128.726 208.172 127.178 203.133 125.764C202.349 125.545 201.49 125.45 200.85 124.835C199.397 121.684 199.801 120.535 202.938 118.902C208.007 118.213 212.542 119.901 216.922 122.163C219.27 123.387 221.497 124.83 223.725 126.239C223.845 126.324 223.959 126.429 224.084 126.523C224.209 126.618 224.259 126.578 224.259 126.464C224.179 126.47 224.099 126.457 224.025 126.426C223.951 126.394 223.886 126.346 223.835 126.284C218.915 123.207 214.09 119.991 208.217 118.992C206.104 118.632 203.927 118.782 201.844 118.163C201.131 117.745 200.547 117.138 200.156 116.41C198.848 114.372 199.297 112.844 201.54 111.915C203.782 110.986 206.034 110.971 208.327 111.151C212.577 112.18 216.947 112.744 220.953 114.702C222.951 115.701 224.948 116.699 226.871 117.863C227.106 117.958 227.251 118.248 227.56 118.213C227.342 118.139 227.138 118.029 226.956 117.888C221.542 114.392 215.594 112.359 209.266 111.355C207.608 110.451 205.835 109.328 206.304 107.25C206.804 105.057 209.041 105.147 210.839 105.087C214.822 104.988 218.798 105.483 222.636 106.556C223.53 106.801 224.389 107.085 224.933 107.919C230.068 110.551 234.138 114.122 235.721 119.951C236.427 122.437 236.487 125.062 235.896 127.577C231.821 144.443 228.769 161.539 225.068 178.46C221.502 194.797 217.017 210.864 209.516 225.907C205.45 234.048 200.651 241.75 192.864 246.984C186.027 251.584 178.725 252.173 171.049 249.266C163.557 246.439 157.958 241.215 152.809 235.357C151.67 234.058 150.736 232.555 149.178 231.671C148.716 231.292 148.384 230.779 148.226 230.203C148.069 229.626 148.094 229.016 148.299 228.454C148.474 227.99 149.053 227.955 149.258 227.411C153.943 215.044 161.245 204.197 168.901 193.548C169.965 192.05 170.999 190.552 172.107 189.123C172.716 188.43 173.264 187.687 173.746 186.901C174.849 185.847 175.094 183.869 177.082 183.744L182.076 190.842C182.076 191.985 181.077 192.635 180.743 193.623C176.664 199.9 173.501 206.726 171.348 213.896C171.238 214.395 170.709 214.81 170.919 215.419C170.889 215.749 171.478 215.454 171.149 215.459C170.944 215.459 170.884 215.329 170.889 215.154C170.889 214.655 171.353 214.315 171.388 213.821C173.622 206.619 176.814 199.75 180.878 193.399C181.447 192.535 181.891 191.571 182.621 190.797Z" fill="#773B07"/>
<path d="M224.933 107.919C220.388 106.626 215.789 105.692 211.034 105.807C210.784 105.807 210.534 105.807 210.29 105.807C208.966 105.897 207.293 105.847 206.794 107.155C206.229 108.584 207.688 109.443 208.681 110.297C208.972 110.585 209.24 110.893 209.486 111.221C209.266 111.68 208.756 111.525 208.407 111.72C206.43 111.602 204.447 111.782 202.523 112.254C199.682 112.979 199.272 114.022 200.91 116.36C201.235 116.829 201.604 117.269 201.954 117.723C202.453 118.168 203.412 118.263 203.163 119.287C200.166 121.284 200.081 121.549 201.325 124.661C203.642 127.078 206.764 128.461 209.171 130.769C208.172 131.768 206.789 130.973 205.675 131.563C204.881 131.972 203.792 132.062 203.677 133.116C203.562 134.115 204.311 134.844 205.096 135.289C206.179 135.884 207.312 136.386 208.482 136.787C209.326 137.092 210.26 137.167 210.979 137.786C211.349 137.911 211.368 138.076 211.039 138.285C206.044 137.736 201.05 137.826 196.011 137.811C195.184 137.893 194.353 137.694 193.653 137.246C191.885 135.369 191.75 133.086 192.03 130.709C192.784 124.356 193.863 118.033 194.188 111.635C194.27 108.58 194.564 105.535 195.067 102.52C195.361 101.614 195.477 100.659 195.406 99.7085C195.406 98.7545 195.406 97.7956 195.406 96.8367C195.909 92.0218 196.752 87.2485 197.929 82.5527C198.348 80.8496 198.882 79.1714 200.925 78.7219C206.324 77.4583 211.753 77.9678 217.182 78.4223C218.516 78.7519 219.874 78.5072 221.212 78.5821C222.121 78.5122 223.045 78.7419 223.939 78.4223C226.317 79.0316 227.136 80.5499 227.161 82.9922C227.231 89.7995 226.017 96.4771 225.333 103.205C225.168 104.763 225.073 106.351 224.933 107.919Z" fill="#87F930"/>
<path d="M172.632 189.253C168.502 195.426 163.987 201.335 160.046 207.648C156.232 213.642 152.928 219.945 150.167 226.492C149.892 227.161 150.167 228.489 148.709 228.285C146.741 224.998 147.315 221.542 148.019 218.076C148.284 217.152 148.664 216.268 148.908 215.339C149.183 213.781 149.942 212.377 150.407 210.879C153.503 200.81 151.241 191.661 145.722 183.05C145.153 182.161 144.423 181.337 144.613 180.153C146.351 178.246 148.254 176.428 150.512 175.264C156.62 172.107 159.102 166.359 161.589 160.555C162.009 159.586 162.089 158.453 163.003 157.724C165.765 161.19 168.536 164.651 171.273 168.132C171.738 168.798 172.165 169.49 172.552 170.205C172.291 170.731 171.852 171.148 171.313 171.383C169.51 172.427 169.171 174 169.62 175.878C169.945 177.257 170.399 178.595 170.819 179.944C171.312 181.273 171.613 182.665 171.713 184.079C171.738 185.517 171.713 187.076 169.97 187.54C168.227 188.005 167.368 186.751 166.604 185.512C165.969 184.431 165.583 183.221 165.475 181.971C165.378 180.894 165.199 179.826 164.94 178.775C164.751 178.076 164.641 177.132 163.632 177.277C162.773 177.387 162.893 178.251 162.823 178.89C162.358 183.19 162.363 183.195 158.143 181.887C157.75 181.748 157.343 181.651 156.929 181.597C156.505 181.557 156.05 181.562 155.831 181.976C155.536 182.536 155.956 182.92 156.33 183.24C157.329 184.059 158.528 184.409 159.721 184.738C161.999 185.408 163.577 186.611 163.692 189.233C163.727 190.057 163.927 190.991 164.911 191.206C165.894 191.421 166.059 190.482 166.384 189.843C166.509 189.529 166.72 189.258 166.993 189.06C167.267 188.862 167.59 188.745 167.927 188.724C169.49 188.724 171.034 188.115 172.607 188.589C172.655 188.629 172.694 188.679 172.721 188.736C172.748 188.792 172.764 188.853 172.766 188.916C172.769 188.978 172.758 189.041 172.735 189.099C172.712 189.157 172.677 189.209 172.632 189.253Z" fill="#FCFEFD"/>
<path d="M191.466 86.3185L157.299 80.1504C155.591 79.8407 153.873 79.591 152.165 79.2713C150.716 78.9967 149.727 78.5572 150.387 76.6243C151.411 73.6277 152.12 70.5711 152.994 67.5445C153.718 65.0473 154.262 64.8525 156.61 66.181C160.366 68.3086 164.146 70.3913 167.902 72.5089C175.56 76.8374 183.218 81.1659 190.876 85.4944C191.146 85.6492 191.406 85.824 191.676 85.9938L191.466 86.3185Z" fill="#87F930"/>
<path d="M148.659 248.212L148.509 249.171C146.556 250.45 144.383 249.746 142.301 249.86H141.397C136.147 250.103 130.886 249.849 125.684 249.101C123.791 247.283 125.41 245.94 126.593 245.076C128.222 243.882 128.881 242.958 128.471 240.701C127.802 236.99 132.222 232.36 136.168 231.995C141.602 231.496 145.482 233.838 148.229 239.282C148.622 240.266 148.916 241.287 149.108 242.329C149.168 243.018 149.148 243.707 149.153 244.397C149.109 245.681 148.944 246.959 148.659 248.212Z" fill="#E13B35"/>
<path d="M156.32 93.4054C156.36 96.6917 154.372 98.9792 152.37 101.197C150.926 102.79 149.233 104.153 147.74 105.692C147.2 106.246 146.876 106.301 146.321 105.812C143.26 103.15 139.899 100.747 138.116 96.9315C137.042 94.639 136.857 92.2417 138.25 90.0192C139.359 88.2362 141.367 87.1474 143.16 87.9415C145.842 89.1352 148.059 88.2961 150.567 87.7268C153.918 86.9826 156.365 89.5747 156.32 93.4054Z" fill="#FCFCFC"/>
<path d="M194.632 72.4889C191.965 69.9068 189.433 67.5544 187.021 65.0922C183.025 61.0068 179.12 56.8115 175.104 52.741C173.836 51.4574 173.746 50.6234 175.324 49.5246C177.432 48.0612 179.429 46.4381 181.387 44.7799C182.746 43.6262 183.51 43.6412 184.229 45.4342C187.335 53.1905 190.542 60.9169 193.683 68.6432C194.138 69.752 194.897 70.8008 194.632 72.4889Z" fill="#035D3A"/>
<path d="M238.059 112.254C246.369 116.585 254.66 120.955 263.031 125.205C264.849 126.129 264.979 126.793 263.44 128.102C261.989 129.346 260.63 130.695 259.375 132.137C258.331 133.326 257.642 133.086 256.543 132.137C250.944 127.293 246.015 121.789 240.936 116.43L237.509 112.819C237.379 112.349 237.519 112.115 238.059 112.254Z" fill="#88F930"/>
<path d="M172.582 188.509C171.583 188.914 170.644 189.563 169.515 189.403C167.897 189.178 166.589 189.053 166.718 191.436C166.773 192.435 164.406 192.56 163.682 191.591C163.359 191.208 163.173 190.728 163.152 190.227C163.472 186.706 161.095 185.782 158.383 185.038C157.451 184.695 156.557 184.257 155.716 183.729C154.652 183.185 154.292 182.291 154.752 181.232C155.211 180.173 156.25 180.598 156.949 180.808C158.603 181.307 160.201 181.976 162.134 182.696C162.134 180.918 162.134 179.369 162.134 177.821C162.134 176.917 162.343 176.198 163.467 176.088C164.591 175.978 165.235 176.393 165.435 177.476C165.685 178.86 165.934 180.248 166.114 181.647C166.309 183.335 166.703 184.948 167.867 186.222C168.412 186.816 169.146 187.47 170.035 187.196C170.924 186.921 171.034 185.917 171.064 185.118C171.08 184.207 170.972 183.298 170.744 182.416C170.205 180.328 169.52 178.281 168.981 176.193C168.062 172.642 168.921 171.243 172.557 170.2C173.466 170.539 173.661 171.448 174.1 172.157C173.835 172.981 172.917 173.276 172.577 174.035C171.718 175.963 173.331 177.696 175.853 177.531C176.727 177.596 177.886 177.372 178.146 178.465C178.195 178.712 178.193 178.967 178.141 179.213C178.088 179.46 177.986 179.693 177.84 179.898C177.694 180.103 177.508 180.277 177.292 180.407C177.077 180.538 176.837 180.623 176.587 180.658C174.435 181.107 174.155 182.536 174.29 184.334C174.358 185.156 174.252 185.982 173.98 186.761C173.657 187.445 173.178 188.043 172.582 188.509Z" fill="#F3CA3F"/>
<path d="M195.666 102.266C194.932 111.59 194.323 120.93 192.854 130.179C192.534 132.566 192.793 134.995 193.608 137.261C191.755 136.727 191.146 135.518 191.021 133.586C190.472 124.915 192.16 116.455 193.159 107.929C193.968 101.047 195.057 94.1896 195.082 87.2324C195.035 85.0749 195.484 82.9355 196.395 80.9794C197.359 79.0166 198.808 77.9078 201.05 77.9828C201.144 78.0561 201.221 78.15 201.273 78.2573C201.326 78.3646 201.353 78.4825 201.353 78.6021C201.353 78.7216 201.326 78.8395 201.273 78.9468C201.221 79.0542 201.144 79.1481 201.05 79.2214C199.752 79.536 199.307 80.475 198.957 81.6886C197.539 86.658 196.96 91.7823 195.991 96.8317C195.832 97.1505 195.708 97.4854 195.621 97.8305C195.401 99.209 195.831 100.632 195.336 101.991C195.18 102.169 195.039 102.362 194.917 102.565C194.843 102.704 194.803 102.858 194.802 103.015C194.802 103.095 194.887 103.015 194.842 102.78C194.777 102.455 194.842 102.875 194.912 102.535C195.035 102.37 195.196 102.237 195.381 102.146L195.666 102.266Z" fill="#045D3B"/>
<path d="M188.614 96.9465C184.768 99.6984 180.928 101.272 177.337 103.294C175.469 104.343 173.461 105.142 171.553 106.116C170.324 106.741 169.775 106.546 169.61 105.077C169.331 102.625 168.611 100.238 168.611 97.7306C168.611 96.1624 169.156 95.6579 170.694 95.9077C174.854 96.5769 179.05 96.3672 183.235 96.3672C184.833 96.3672 186.456 96.7068 188.614 96.9465Z" fill="#F1A627"/>
<path d="M259.535 141.567C263.835 143.33 267.026 146.561 270.747 148.978C271.371 149.388 271.951 149.862 272.56 150.297C276.016 152.764 276.016 152.764 273.06 155.746C269.229 159.626 269.164 159.661 266.567 154.977C264.184 150.547 261.902 146.037 259.535 141.567Z" fill="#045D3A"/>
<path d="M142.166 249.101L148.534 249.171C149.997 252.832 152.315 256.123 153.283 260.004C153.248 261.128 152.325 260.953 151.65 261.093C149.353 261.562 147.02 261.283 144.708 261.353C142.935 261.408 143.095 260.069 142.965 258.94C143.035 256.633 142.506 254.4 142.071 252.153C141.861 251.159 141.307 250.1 142.166 249.101Z" fill="#013A17"/>
<path d="M173.461 187.201C173.592 186.468 173.683 185.73 173.736 184.988C173.776 182.741 173.031 180.099 176.732 179.994C177.302 179.994 177.781 179.239 177.896 178.45C177.247 177.711 176.373 178.306 175.634 178.126C176.243 176.627 177.212 177.207 178.166 177.696C179.849 178.925 180.089 180.253 178.525 181.807C177.994 182.413 177.51 183.06 177.077 183.739C175.698 184.573 175.239 186.177 174.125 187.236C174.082 187.283 174.03 187.32 173.971 187.344C173.912 187.368 173.848 187.379 173.785 187.376C173.721 187.372 173.659 187.355 173.603 187.325C173.547 187.294 173.499 187.252 173.461 187.201Z" fill="#FAFAF5"/>
<path d="M178.171 177.681C177.327 177.816 176.388 177.412 175.639 178.111C174.205 178.44 172.807 178.98 172.142 176.832C171.478 174.685 171.318 172.837 174.085 172.147C175.629 173.88 177.212 175.559 178.171 177.681Z" fill="#FBFCF7"/>
<path d="M148.704 244.107C148.659 243.458 148.614 242.813 148.564 242.164C148.189 240.086 148.034 237.979 147.67 235.906C147.085 230.912 146.981 225.832 146.556 220.798C146.465 220.092 146.562 219.375 146.837 218.719C147.113 218.063 147.557 217.491 148.124 217.062C148.624 217.062 148.958 217.187 148.719 217.786C147.949 221.282 148.494 224.778 148.719 228.275C148.339 229.473 149.183 230.507 149.173 231.656C149.653 235.788 149.783 239.953 149.563 244.107C149.518 244.181 149.456 244.243 149.38 244.286C149.305 244.329 149.22 244.351 149.133 244.351C149.046 244.351 148.961 244.329 148.886 244.286C148.811 244.243 148.748 244.181 148.704 244.107Z" fill="#0B0B0B"/>
<path d="M175.089 137.366C174.849 137.657 174.541 137.884 174.193 138.027C173.845 138.171 173.466 138.227 173.091 138.19C167.964 138.023 162.85 138.798 158.003 140.478C162.893 136.982 168.442 136.752 174.13 137.197L175.089 137.366Z" fill="#221414"/>
<path d="M211.009 138.3L210.949 137.801C213.316 137.591 215.164 139.074 217.252 139.754C218.131 140.038 217.886 140.578 217.427 141.062C214.27 144.368 214.195 148.239 215.564 152.549C213.286 150.207 213.037 146.985 214.565 143.559C215.064 142.451 216.563 141.232 216.063 140.413C215.319 139.289 213.531 139.104 212.068 138.85L211.009 138.3Z" fill="#095D38"/>
<path d="M201.06 79.2214C201.06 78.8069 201.06 78.3923 201.06 77.9778C201.689 78.1535 202.356 78.1414 202.978 77.9428C207.892 76.9739 212.787 77.3635 217.666 78.2625C217.602 78.5871 217.297 78.6071 217.072 78.727C211.728 78.5072 206.359 77.793 201.06 79.2214Z" fill="#0E683A"/>
<path d="M143.664 258.626C143.395 260.519 144.094 261.303 146.116 261.153C148.549 260.968 151.041 261.303 153.293 260.009C153.543 260.538 153.793 261.068 154.048 261.592L148.664 261.632C148.499 261.852 148.329 261.862 148.164 261.632C144.194 262.272 140.173 262.102 136.178 262.132C135.553 262.451 135.104 262.461 135.139 261.567C136.417 260.568 137.941 260.878 139.359 260.933C141.127 260.998 142.356 260.434 142.94 258.721C142.98 258.665 143.031 258.618 143.089 258.583C143.148 258.547 143.214 258.525 143.281 258.516C143.349 258.507 143.418 258.512 143.484 258.531C143.55 258.55 143.611 258.582 143.664 258.626Z" fill="#045C39"/>
<path d="M148.704 244.107H149.563C149.673 245.53 149.362 246.955 148.669 248.202C148.685 246.844 148.697 245.479 148.704 244.107Z" fill="#763B1E"/>
<path d="M182.621 190.797C182.406 191.76 182.086 192.654 181.177 193.199C180.998 193.492 180.813 193.492 180.623 193.199L182.076 190.822L182.621 190.797Z" fill="#465626"/>
<path d="M217.082 78.7269L217.676 78.2624L221.462 78.4322C221.687 78.5071 221.757 78.572 221.682 78.642C221.622 78.7016 221.542 78.7357 221.457 78.7369L217.082 78.7269Z" fill="#0A603B"/>
<path d="M238.059 112.254L237.494 112.819C237.095 112.564 236.431 112.159 236.72 111.82C237.17 111.28 237.664 111.885 238.059 112.254Z" fill="#A3E336"/>
<path d="M221.452 78.7369C221.465 78.6358 221.465 78.5334 221.452 78.4323H223.949C223.18 79.1315 222.301 78.7919 221.452 78.7369Z" fill="#54B239"/>
<path d="M112.739 125.38C109.213 133.436 102.65 137.651 94.3145 138.645C80.2152 140.323 67.904 135.968 57.5556 126.199C57.2705 125.897 57.0052 125.576 56.7615 125.24C56.6166 123.976 57.8852 124.9 58.1849 124.321C60.6821 125.175 63.0295 123.891 65.4118 123.552C69.9567 122.898 70.3463 122.243 70.7308 117.444C70.9156 115.141 71.8696 112.949 71.7297 110.606C71.6798 109.812 72.0144 108.923 71.2303 108.284C71.1104 107.2 72.1043 106.995 72.6837 106.486C76.6193 103.015 78.0676 98.5947 77.3734 93.5004C76.9689 90.5038 75.1309 88.3911 72.5638 86.8878C71.5649 86.3034 70.4711 85.8889 69.4972 85.2496C69.1426 85.4294 69.4023 84.2508 68.808 84.96C68.3985 85.3745 68.6432 86.0338 68.2436 86.4583C66.8901 86.9577 65.5466 87.1425 64.2481 86.3084C63.6708 85.6926 62.9958 85.1762 62.2503 84.7802C61.1216 82.4228 59.2537 80.5049 58.6394 77.8229C58.1399 75.5705 58.05 73.4079 58.8641 71.2553C60.3625 67.2997 64.2481 66.4357 67.4146 69.2176C69.6321 71.1604 70.3313 73.9573 71.7297 76.3596C72.1018 76.651 72.4372 76.9864 72.7286 77.3585V79.3113C73.9822 76.9689 73.0283 74.7414 72.0494 72.8185C71.1104 70.9606 71.3152 70.616 73.288 70.3613C75.1409 70.1265 76.9239 69.3874 78.7419 68.863C81.653 66.4673 85.0675 64.7601 88.7307 63.8685C92.087 62.4002 95.5181 61.8208 99.1191 62.8996C99.6185 63.0395 100.253 63.6038 100.617 62.7448C100.749 62.4323 100.756 62.0813 100.637 61.7637C100.518 61.4462 100.283 61.1861 99.9781 61.0367C99.0322 60.5292 98.0013 60.1991 96.9365 60.0628C95.5231 59.7831 95.5481 59.0639 96.7218 58.3447C97.1413 57.9352 97.0115 57.2909 97.3561 56.8464C97.468 56.6493 97.5967 56.4621 97.7406 56.287C99.4397 54.42 100.921 52.3657 102.156 50.1639C102.54 49.4497 102.88 48.6905 103.704 48.3509C105.142 44.9447 105.202 44.8848 107.405 47.9264C109.682 51.0929 113.398 52.8659 115.211 56.5118C116.01 58.15 116.894 59.6782 116.834 61.7509C115.071 61.2515 113.443 60.6721 111.68 60.8419C110.765 60.8687 109.885 61.203 109.183 61.7909C108.956 61.9809 108.803 62.2435 108.748 62.5339C108.694 62.8244 108.741 63.1248 108.883 63.3841C109.168 63.9435 109.707 63.7487 110.202 63.6088C110.836 63.429 111.48 63.2742 112.125 63.1444C115.621 62.4252 116.849 63.499 117.249 66.9951C117.928 72.9234 116.819 78.622 115.456 84.3157C115.328 84.9656 115.242 85.6228 115.196 86.2835C115.036 86.9128 115.056 87.587 114.697 88.1664C112.844 91.3628 111.59 94.9138 108.728 97.4959C107.23 98.8344 105.772 100.128 103.959 100.992C102.669 101.2 101.426 101.629 100.283 102.261L97.1613 102.87C96.4021 103.539 95.4682 103.534 94.5642 103.429C90.294 102.93 85.9189 102.93 81.9583 100.877C81.8208 100.763 81.6526 100.692 81.4748 100.673C81.297 100.655 81.1176 100.689 80.9594 100.772C84.0837 104.237 87.9368 106.966 92.2418 108.763C93.7401 109.373 95.4981 109.537 96.6418 110.906C98.8943 111.93 98.0353 114.217 98.6396 115.9C98.9892 116.899 98.9692 118.013 99.139 119.072C99.9082 123.287 99.9282 123.197 104.024 123.826C106.96 124.241 109.967 124.206 112.739 125.38Z" fill="#773B07"/>
<path d="M68.3086 86.2834C68.3086 85.7191 67.5994 84.9749 68.6982 84.6653C68.7902 84.6179 68.8954 84.603 68.9969 84.623C69.0984 84.6429 69.1903 84.6965 69.2575 84.7751C74.172 86.1037 77.5682 89.0254 78.0976 94.2645C78.7069 100.258 76.4844 105.077 71.2353 108.319C64.4429 111.595 56.6217 107.55 54.544 102.146C52.0118 95.5581 54.544 87.1025 62.2504 84.8201C63.2093 84.5204 63.7487 84.9899 64.1682 85.819C64.0234 86.728 63.2343 86.8978 62.575 87.2224C57.9602 89.4849 56.4918 94.714 59.1189 99.5136C61.2764 103.464 66.0361 104.508 70.3563 101.966C70.8561 101.67 71.3217 101.32 71.7447 100.922C75.101 96.7417 74.8513 92.2618 71.0355 88.436C70.2464 87.547 68.8779 87.3972 68.3086 86.2834Z" fill="#F7CA43"/>
<path d="M100.293 102.266C100.897 100.557 102.341 100.767 103.689 100.767C104.873 100.977 105.687 101.876 106.746 102.36C108.413 103.119 110.285 103.306 112.07 102.893C113.854 102.481 115.454 101.491 116.62 100.078C118.822 97.2611 118.697 93.0858 116.33 90.194C115.711 89.4399 114.832 88.8805 114.647 87.8017C114.147 87.0476 113.982 86.4033 115.201 86.2585C121.889 89.2951 123.762 96.5669 121.384 101.352C119.107 105.936 115.176 108.289 110.207 108.514C105.612 108.758 102.395 106.261 100.293 102.266Z" fill="#F5CA3F"/>
<path d="M9.22467 103.849C10.4183 98.7596 14.0243 95.4732 17.8051 92.3617C22.3949 88.566 27.684 85.5643 31.29 80.6199C32.144 79.4462 32.8932 78.1876 33.917 76.6243C34.7711 81.4939 33.3727 85.2697 30.421 88.576C27.4693 91.8823 23.8983 94.2047 20.2224 96.4821C16.5465 98.7596 12.7307 101.077 9.22467 103.849Z" fill="#E0AE42"/>
<path d="M139.064 132.896L136.672 131.733C138.72 124.031 136.402 117.304 131.753 111.28C129.755 108.668 129.071 105.936 129.141 102.79C129.21 99.8183 129.036 96.8416 128.881 93.8649C128.726 90.8883 127.542 88.0914 126.114 85.4544C125.964 84.9249 126.204 84.7651 126.693 84.845C130.939 90.1541 133.211 95.9177 131.273 102.85C130.609 105.222 131.857 107.425 132.986 109.428C134.325 111.81 135.933 114.042 137.451 116.32C140.942 121.549 141.397 127.083 139.064 132.896Z" fill="#DFAD41"/>
<path d="M96.6568 110.886C89.6097 109.123 83.8112 105.487 79.516 99.4387C85.1347 102.196 91.138 102.615 97.1712 102.86C97.4759 104.968 97.7306 107.085 98.1002 109.183C98.325 110.446 97.7406 110.831 96.6568 110.886Z" fill="#040102"/>
<path d="M34.896 70.7208C35.5652 62.8347 37.9925 56.4268 42.7372 50.7432C43.4814 51.3875 43.2367 51.9518 43.0968 52.4613C42.0861 56.044 41.6512 59.7647 41.8083 63.4839C41.8832 64.7026 41.5436 65.4817 40.4148 66.0361C38.462 67.03 37.1385 68.803 34.896 70.7208Z" fill="#E0AE42"/>
<path d="M52.9458 35.0508C56.7116 26.3056 64.2332 23.8484 72.9235 23.3939C65.4019 25.8062 58.8642 29.8816 52.9458 35.0508Z" fill="#D94139"/>
<path d="M96.7168 57.8454C95.1036 58.12 94.2545 60.0079 92.077 59.938C96.1862 55.6394 100.012 51.0782 103.529 46.2833C103.414 46.8127 103.304 47.3421 103.19 47.8715C102.276 51.4225 99.8383 54.0546 97.6957 56.8615C97.3611 57.1711 97.1263 57.6006 96.7168 57.8454Z" fill="#743A08"/>
<path d="M80.2352 12.4111C78.7369 6.70249 75.066 3.25633 69.1776 2.1226C74.5766 1.36844 79.4961 5.11926 80.7747 10.9128C80.8646 11.5021 81.4839 12.2912 80.2352 12.4111Z" fill="#0A5937"/>
<path d="M88.7258 63.8736L78.7369 68.868C78.3424 68.1288 78.5771 67.6943 79.3163 67.3147C82.4428 65.7165 85.5443 64.0684 88.541 62.4951C89.8745 62.9696 86.8828 63.4391 88.7258 63.8736Z" fill="#673307"/>
<path d="M45.3293 33.3427L51.3226 36.8388C48.1911 37.2683 45.8837 35.9298 43.856 33.947C44.0957 33.1229 44.6151 32.9881 45.3293 33.3427Z" fill="#D7A740"/>
<path d="M126.683 84.825L126.104 85.4344C123.637 81.8983 120.715 78.652 119.272 74.4467L126.683 84.825Z" fill="#C79B3A"/>
<path d="M43.1967 32.9881C40.2899 30.4609 39.7605 26.9948 39.4459 23.4488C40.26 26.5902 42.038 29.2173 43.8359 31.8294C44.1056 32.4836 44.1156 32.9931 43.1967 32.9881Z" fill="#085A37"/>
<path d="M97.7157 56.8714L103.21 47.8814L103.709 48.3808C102.211 51.5623 100.483 54.5789 97.7157 56.8714Z" fill="#582803"/>
<path d="M80.2353 12.4111C80.8496 12.0665 80.6848 11.4422 80.7747 10.9128C81.6437 12.3461 81.0993 13.8694 81.1742 15.5975C80.8103 15.1575 80.5394 14.6483 80.378 14.1006C80.2166 13.5529 80.1681 12.9781 80.2353 12.4111Z" fill="#313D1C"/>
<path d="M43.1967 32.9881C43.3926 32.8648 43.5539 32.6938 43.6657 32.4911C43.7775 32.2885 43.8361 32.0608 43.836 31.8294L45.3343 33.3277L43.8809 33.957L43.1967 32.9881Z" fill="#064827"/>
<path d="M66.161 2.05772C65.4717 2.94673 64.8924 3.2364 64.0483 3.2364C64.4429 2.37736 65.0872 2.21255 66.161 2.05772Z" fill="#2C3211"/>
<path d="M58.2049 124.326L56.7615 125.24L55.7626 124.74C56.4718 124.001 57.3758 124.406 58.2049 124.326Z" fill="#987035"/>
<path d="M72.7436 77.3634C72.6109 77.3691 72.4785 77.3471 72.3547 77.2989C72.231 77.2507 72.1186 77.1773 72.0247 77.0834C71.9308 76.9895 71.8574 76.8771 71.8092 76.7534C71.761 76.6296 71.7391 76.4972 71.7447 76.3646C72.9783 75.7952 72.7086 76.7142 72.7436 77.3634Z" fill="#592B04"/>
<path d="M96.7168 57.8453C96.7054 57.7112 96.7234 57.5763 96.7696 57.45C96.8157 57.3236 96.8889 57.2088 96.9841 57.1137C97.0792 57.0186 97.1939 56.9454 97.3203 56.8992C97.4467 56.853 97.5816 56.835 97.7156 56.8464C97.734 57.1707 97.6466 57.4921 97.4664 57.7624C97.2862 58.0326 97.0232 58.237 96.7168 58.3447C96.7168 58.1849 96.7168 58.0151 96.7168 57.8453Z" fill="#582803"/>
<path d="M244.012 46.9625C244.821 49.6045 245.51 51.7221 246.11 53.8597C246.609 55.6827 246.334 57.3009 244.701 58.5046C240.291 61.7409 235.896 64.9973 231.476 68.2237C230.977 68.5783 230.507 69.2226 229.533 68.6033C233.933 61.2715 238.673 54.1744 244.012 46.9625Z" fill="#FBFBFB"/>
<path d="M148.239 217.197C146.027 220.693 147.805 224.424 147.69 228.04C147.615 230.567 148.024 233.109 148.219 235.646C148.189 236.98 149.078 238.433 147.72 239.592C145.502 235.042 142.121 232.245 136.817 232.45C133.211 232.59 128.826 236.945 128.716 240.411C128.716 240.496 128.681 240.606 128.716 240.656C131.308 243.558 128.716 244.412 126.813 245.605C125.774 246.25 125.315 247.348 125.195 248.547C124.326 249.576 123.097 249.511 121.993 249.376C117.588 248.837 113.118 249.096 108.748 248.217C105.682 247.248 105.642 247.248 105.622 243.902C105.622 241.45 104.943 239.312 102.97 237.749C101.636 236.69 100.163 236.406 99.1191 238.044C97.6707 240.321 95.4782 240.796 93.1258 240.806C91.158 240.806 89.9244 241.45 89.8245 243.578C89.7496 245.076 88.8855 245.79 87.4122 245.84C84.4155 245.435 81.2291 246.005 78.5671 244.012C78.7619 243.173 79.521 242.943 80.1403 242.544C94.0148 233.659 105.657 222.256 117.064 210.48C125.669 201.595 133.046 191.661 141.706 182.86C142.376 182.181 142.87 181.192 144.019 181.117C145.847 181.817 146.386 183.615 147.215 185.083C152.489 194.328 153.413 203.977 149.543 213.986C149.008 215.024 149.118 216.308 148.239 217.197Z" fill="#FEFEFE"/>
<path d="M107.51 247.328C113.378 248.047 119.282 248.272 125.18 248.547L141.666 249.101C142.481 252.223 143.305 255.344 143.165 258.591C143.534 261.018 142.411 261.822 140.093 261.587C138.465 261.437 136.817 261.587 135.179 261.587C133.556 262.401 131.783 262.272 130.064 262.272C123.662 262.272 117.259 262.461 110.856 262.092C108.653 261.817 106.411 261.987 104.213 261.592C103.472 261.213 102.642 261.04 101.811 261.093C93.2706 261.118 84.8301 260.094 76.3396 259.175C73.3829 258.855 70.4362 258.431 67.4795 258.151C65.4817 257.966 64.5427 257.447 65.242 255.279C65.4899 254.237 65.6569 253.176 65.7414 252.108C66.091 251.289 66.1909 250.365 66.7403 249.611C69.8019 247.988 72.8734 246.379 75.925 244.731C76.7118 244.28 77.5958 244.025 78.5021 243.987L88.3012 245.33C92.4465 244.566 96.467 245.865 100.557 246.055C102.917 246.203 105.251 246.631 107.51 247.328Z" fill="#013A17"/>
<path d="M106.206 179.15C106 178.912 105.767 178.7 105.512 178.515C104.418 177.911 103.155 177.322 103.275 175.868C103.414 174.2 105.152 174.6 106.191 173.99C105.287 172.777 103.899 172.437 102.56 172.087C101.666 171.853 101.062 171.493 101.012 170.489C100.986 170.073 101.099 169.66 101.333 169.314C101.567 168.969 101.909 168.711 102.306 168.581C103.674 167.997 105.427 167.752 106.366 168.581C109.188 171.134 114.062 168.327 116.085 172.527C116.173 172.761 116.235 173.004 116.27 173.251C116.243 173.542 116.143 173.822 115.977 174.063C115.812 174.305 115.588 174.5 115.326 174.63C112.269 176.113 109.493 178.151 106.206 179.15Z" fill="#201114"/>
<path d="M19.3334 202.568C19.2934 201.375 19.3334 200.171 18.804 199.072C18.6208 198.889 18.5126 198.644 18.5006 198.386C18.4886 198.127 18.5736 197.873 18.739 197.674C19.9976 195.037 21.0565 194.482 23.8283 195.137C25.8761 195.636 27.6391 196.715 29.3472 197.899C30.1663 198.463 30.9753 199.047 32.0591 198.868C30.1812 200.106 27.9837 200.171 25.876 200.571C25.0177 200.144 24.1298 199.78 23.219 199.482C22.7196 200.046 22.9893 200.755 22.7196 201.325L19.3334 202.568Z" fill="#DB3C36"/>
<path d="M149.158 214.22C152.814 202.344 151.655 191.246 143.974 181.122C143.889 180.623 143.17 179.654 144.618 180.153C148.978 186.327 151.975 192.974 152.539 200.675C152.934 206.015 151.271 210.794 149.498 215.619C148.529 215.364 148.878 214.785 149.158 214.22Z" fill="#090A09"/>
<path d="M57.221 194.662C57.2609 187.86 55.2981 181.432 53.4852 174.984C52.1517 170.235 50.7732 165.495 49.9891 160.201C51.3875 161.2 51.4524 162.508 51.7072 163.547C54.0845 173.173 56.3919 182.814 58.6294 192.47C58.8591 193.469 59.9979 195.272 57.4457 195.272L57.221 194.662Z" fill="#060707"/>
<path d="M32.8283 198.658C31.8743 197.894 30.9304 197.129 29.9764 196.37C29.8037 196.254 29.6559 196.105 29.5419 195.93C29.4279 195.756 29.35 195.561 29.3127 195.356C29.2755 195.151 29.2797 194.941 29.325 194.738C29.3704 194.534 29.4561 194.342 29.5769 194.173C30.0364 193.384 30.7456 193.798 31.3449 193.993C33.6451 194.665 35.7322 195.921 37.4031 197.639L32.8283 198.658Z" fill="#DC4A3F"/>
<path d="M22.7245 201.31C21.9304 200.466 22.5048 199.517 22.2251 198.403C23.7784 199.022 25.2217 199.072 25.876 200.556L22.7245 201.31Z" fill="#F4F0ED"/>
<path d="M48.5607 210.644L54.7288 207.203C53.1118 209.003 50.9417 210.214 48.5607 210.644Z" fill="#33532D"/>
<path d="M51.7122 253.501L44.3455 253.546C46.7531 252.875 49.2965 252.859 51.7122 253.501Z" fill="#AA7627"/>
<path d="M159.716 132.552C158.852 133.451 157.908 134.28 156.555 134.51C157.339 133.498 158.461 132.803 159.716 132.552Z" fill="#3B5229"/>
<path d="M161.694 146.077C162.943 145.467 164.141 144.763 166.044 144.818C164.366 145.667 163.093 146.132 161.694 146.077Z" fill="#4B4C20"/>
<path d="M66.7503 249.641C66.7935 250.106 66.7255 250.576 66.5519 251.01C66.3782 251.444 66.1039 251.831 65.7515 252.138H65.252C65.6153 251.537 65.7893 250.841 65.7515 250.14L66.7503 249.641Z" fill="#054E28"/>
<path d="M76.2397 160.401C75.955 159.931 75.7403 159.587 75.5455 159.252C75.046 158.448 74.5766 157.594 75.2808 156.725C75.985 155.856 76.9789 156.32 77.778 156.725C82.5926 159.182 86.9527 162.134 89.0454 167.443C89.3588 168.208 89.5899 169.005 89.7346 169.82C90.264 172.967 88.7957 174.505 85.864 173.491C83.4217 172.647 82.8673 173.111 82.7125 175.664C82.3379 181.697 78.7968 183.525 73.5427 180.628C69.2475 178.266 65.9313 174.785 62.8597 171.044C62.5174 170.672 62.296 170.205 62.2247 169.705C62.1533 169.205 62.2354 168.694 62.4601 168.242C63.484 166.129 64.7526 164.181 67.075 163.247C67.4546 163.098 67.969 163.123 68.0739 162.638C68.7082 158.737 71.3702 159.766 73.8274 160.221C74.5216 160.361 75.1709 160.955 76.2397 160.401Z" fill="#7FB2DA"/>
<path d="M121.899 137.556C122.098 136.404 122.384 135.269 122.753 134.16C124.161 130.819 127.952 129.815 131.363 131.793C137.057 135.104 138.63 140.123 137.526 146.561C136.757 151.086 134.639 152.859 130.534 153.368C129.641 153.568 128.814 153.997 128.137 154.612C123.682 158.178 117.618 154.187 115.945 150.856C115.136 149.253 115.381 147.55 117.249 146.951C119.451 146.246 118.363 145.577 117.499 144.723C116.152 143.486 115.09 141.971 114.387 140.283C113.388 137.681 114.317 136.502 117.084 136.602C118.742 136.662 120.305 137.182 121.899 137.556Z" fill="#E1AE42"/>
<path d="M28.8727 154.287C28.5181 157.389 28.2235 160.5 27.794 163.592C27.6138 165.336 26.7913 166.951 25.4865 168.122C24.7673 168.736 23.8734 169.445 22.8145 169.051C21.6608 168.621 21.466 167.518 21.3162 166.424C20.8168 163.048 21.5559 159.671 21.2663 156.3C20.7169 155.801 20.9316 155.087 20.7318 154.492C20.8851 155.276 20.7836 156.088 20.4422 156.81C20.1725 160.306 19.4133 161.36 17.1109 161.444C15.8723 161.489 14.9084 161.015 14.7336 159.751C14.359 157.049 14.0693 154.327 13.8496 151.61C13.7047 149.807 14.6087 148.714 16.4766 148.779C17.6403 148.824 17.8101 148.279 17.9 147.32C17.9817 146.241 18.2068 145.178 18.5693 144.159C18.9589 143.1 19.3884 141.761 20.8118 141.826C22.1003 141.886 22.8095 142.945 23.1192 144.129C23.6486 146.266 24.0781 148.429 24.6624 151.121C25.3167 148.943 25.7113 147.2 26.3755 145.567C26.9499 144.164 27.4094 142.256 29.3722 142.346C31.335 142.436 31.29 144.369 31.7895 145.717C32.0465 146.589 32.2319 147.481 32.3439 148.384C32.4587 148.973 32.5986 149.633 33.3727 149.513C35.3705 149.208 35.5053 150.716 35.6901 151.985C36.1596 155.206 35.1457 158.243 34.3167 161.28C34.0569 162.244 33.2079 162.688 32.214 162.743C30.9854 162.813 30.6608 161.854 30.456 160.985C29.9542 158.628 29.723 156.222 29.7668 153.813C28.8228 152.844 29.2323 154.247 28.8727 154.287Z" fill="#DE3E36"/>
<path d="M56.5917 141.172C55.0934 143.514 53.8897 145.877 51.9469 147.705C48.4508 150.991 44.9547 150.377 42.7222 146.102C41.3646 143.517 40.7966 140.591 41.0891 137.686C41.2139 136.283 41.6684 134.959 43.4414 135.094C44.8698 135.204 45.7638 135.788 45.8787 137.561C45.9986 139.429 45.6939 141.392 46.5729 143.19C46.8576 143.774 46.9026 144.608 47.6168 144.773C48.331 144.938 48.7505 144.189 49.0901 143.649C49.8792 142.396 50.6234 141.107 51.3576 139.814C54.0496 135.064 58.2199 134.914 61.2365 139.494C62.7972 141.867 63.5019 144.702 63.2343 147.53C63.1044 149.223 62.2754 150.432 60.4624 150.367C58.6494 150.302 58.4646 149.028 58.4646 147.53C58.5096 145.292 58.2598 143.08 56.5917 141.172Z" fill="#241218"/>
<path d="M33.1978 179.754C36.7239 174.43 37.4381 174.405 44.0907 179.314C45.1445 177.476 46.5329 176.008 48.6456 175.394C49.3173 175.174 50.0372 175.147 50.7234 175.317C51.4096 175.486 52.0343 175.845 52.5262 176.353C53.4002 177.182 54.1344 178.191 53.625 179.424C53.1155 180.658 51.872 180.528 50.8131 180.338C49.7543 180.148 49.165 180.233 48.5457 181.222C45.9436 185.373 43.1267 185.063 39.8454 181.827C38.4669 180.468 37.8476 180.603 37.1384 182.256C36.7653 183.091 36.2402 183.85 35.5902 184.494C34.5413 185.517 33.2728 185.872 32.0441 184.763C30.2611 183.155 28.4781 181.537 26.82 179.804C25.8211 178.775 24.962 177.426 26.3205 176.113C27.5591 174.934 28.8177 175.693 29.8516 176.612C30.8854 177.531 32.0291 178.645 33.1978 179.754Z" fill="#231218"/>
<path d="M87.3373 147.715C87.2524 145.782 87.0077 144.049 87.617 142.366C87.9916 141.337 88.566 140.733 89.7896 140.718C91.0132 140.703 91.3978 141.292 91.6026 142.296C91.9172 143.829 93.2257 144.563 94.2946 145.437C97.9954 148.479 97.9904 150.532 94.1997 153.179C90.0593 156.07 85.4944 155.636 81.9783 152.025C81.6708 151.716 81.4425 151.337 81.313 150.921C81.1836 150.505 81.1567 150.064 81.2347 149.635C81.3127 149.206 81.4933 148.803 81.7611 148.459C82.0288 148.115 82.3758 147.841 82.7724 147.66C83.8762 147.116 84.6203 147.116 87.3373 147.715Z" fill="#F6CA38"/>
<path d="M18.7391 197.659C18.7391 198.128 18.779 198.593 18.804 199.057L12.501 200.611C12.9306 199.112 14.374 199.422 15.3828 198.972C16.4816 198.488 17.6153 198.093 18.7391 197.659Z" fill="#232423"/>
<path d="M20.4322 156.809V153.623C21.506 154.337 21.3162 155.336 21.2562 156.3L20.4322 156.809Z" fill="#F3A09A"/>
<path d="M10.748 201.33C9.85891 201.874 8.84323 202.177 7.80127 202.209C8.45054 200.8 9.42946 200.496 10.748 201.33Z" fill="#444444"/>
<path d="M7.86126 202.154C7.42175 203.003 6.57267 202.973 5.80853 203.123C5.62374 202.958 5.3091 202.928 5.25916 202.623C6.04328 202.004 6.84739 201.51 7.86126 202.154Z" fill="#414241"/>
<path d="M5.25914 202.653L5.80851 203.153L4.36015 203.717L3.36127 203.258L5.25914 202.653Z" fill="#030404"/>
<path d="M28.8727 154.287C28.7978 153.588 28.653 152.744 29.542 152.569C29.8267 152.509 29.7867 153.348 29.7418 153.798L28.8727 154.287Z" fill="#F2A29E"/>
<path d="M5.48389 182.371C6.21807 184.429 6.60264 185.982 5.54382 187.645C4.26525 186.027 4.38013 184.469 5.48389 182.371Z" fill="#E0EAF5"/>
<path d="M9.05486 184.289L8.52545 181.512C9.52433 182.176 9.39448 182.935 9.05486 184.289Z" fill="#DBE9EB"/>
<path d="M104.208 261.617H110.701C110.745 261.665 110.778 261.721 110.798 261.783C110.817 261.845 110.823 261.91 110.814 261.975C110.804 262.039 110.781 262.1 110.745 262.154C110.709 262.208 110.662 262.253 110.606 262.287C110.299 262.41 109.967 262.46 109.637 262.434C109.307 262.408 108.988 262.306 108.703 262.137L104.208 262.102C104.208 261.942 104.208 261.777 104.208 261.617Z" fill="#055A3B"/>
<path d="M97.7157 261.637C97.6707 261.962 98.9792 262.381 97.6757 262.596C97.2892 262.697 96.8794 262.656 96.5203 262.481C96.1613 262.306 95.8766 262.009 95.7179 261.642L97.7157 261.637Z" fill="#013A17"/>
<path d="M110.701 262.117C110.701 261.952 110.701 261.787 110.701 261.617H135.174C135.278 261.785 135.427 261.92 135.603 262.008C135.779 262.096 135.976 262.134 136.173 262.117C135.114 263.046 133.835 262.421 132.677 262.616C126.683 263.156 120.655 262.711 114.642 262.846C113.998 262.846 113.318 263.001 112.709 262.616H110.711C110.581 262.506 110.541 262.401 110.581 262.292C110.621 262.182 110.651 262.117 110.701 262.117Z" fill="#004B2A"/>
<path d="M112.699 262.616H132.677C132.397 262.771 132.117 263.061 131.838 263.061C125.738 263.077 119.636 263.086 113.533 263.086C113.253 263.086 112.974 262.771 112.699 262.616Z" fill="#013A17"/>
<path d="M148.159 261.632H148.659C148.434 263.131 147.195 262.332 146.226 263.106C146.691 261.772 147.8 262.386 148.159 261.632Z" fill="#013A17"/>
<path d="M110.701 262.117V262.616C109.802 263.46 109.298 262.616 108.703 262.142L110.701 262.117Z" fill="#013A17"/>
<path d="M103.025 263.365C102.595 263.455 102.375 263.565 102.201 263.52C101.968 263.465 101.765 263.324 101.631 263.126C101.476 262.811 101.746 262.706 101.991 262.791C102.35 262.956 102.695 263.148 103.025 263.365Z" fill="#013A17"/>
<path d="M209.171 130.789C206.084 129.355 203.078 127.822 201.325 124.681C207.458 126.204 213.586 127.737 218.805 132.766C215.009 132.811 212.113 131.678 209.171 130.789Z" fill="#055D3A"/>
<path d="M203.163 119.307L201.954 117.743C210.504 117.888 217.811 121.299 224.514 126.309C224.634 126.768 224.514 127.008 224.014 126.808C219.165 124.171 214.625 120.925 209.101 119.651C207.093 119.212 205.14 119.371 203.163 119.307Z" fill="#075D39"/>
<path d="M180.623 193.214H181.177C177.591 200.031 174.185 206.919 171.513 214.16C171.398 214.385 171.273 214.4 171.134 214.185C172.497 206.369 176.233 199.657 180.623 193.214Z" fill="#0A5C39"/>
<path d="M208.402 111.755L209.481 111.256C216.128 111.71 222.077 114.067 227.495 117.868C227.61 118.328 227.495 118.572 226.996 118.368C221.183 115.036 215.114 112.484 208.402 111.755Z" fill="#0A5C38"/>
<path d="M226.976 118.353C227.151 118.183 227.326 118.013 227.475 117.853C228.25 118.163 228.764 118.767 229.473 119.741C228.27 119.541 227.68 118.822 226.976 118.353Z" fill="#2C552F"/>
<path d="M173.461 187.201L174.13 187.231C173.843 188.032 173.321 188.728 172.632 189.228C172.632 188.979 172.587 188.729 172.567 188.484C172.598 188.213 172.695 187.953 172.851 187.729C173.008 187.505 173.217 187.323 173.461 187.201Z" fill="#ECDDC4"/>
<path d="M223.999 126.828L224.499 126.329C224.788 126.425 225.051 126.584 225.27 126.796C225.489 127.008 225.657 127.267 225.762 127.552C224.938 127.792 224.489 127.238 223.999 126.828Z" fill="#2D552D"/>
<path d="M171.134 214.17L171.518 214.145L170.914 215.943C170.484 215.099 170.554 214.595 171.134 214.17Z" fill="#1F5631"/>
<path d="M195.556 97.3861L196.001 96.8317C196.001 97.8305 196.001 98.7845 196.001 99.7634C195.96 99.812 195.907 99.8495 195.848 99.8722C195.788 99.8948 195.724 99.902 195.661 99.893C195.598 99.8841 195.539 99.8592 195.488 99.8208C195.437 99.7823 195.397 99.7317 195.371 99.6735C195.376 98.9043 195.152 98.1202 195.556 97.3861Z" fill="#035C3C"/>
<path d="M195.631 99.7684C195.76 99.7883 195.892 99.7883 196.021 99.7684C195.981 100.617 196.395 101.526 195.666 102.266L195.521 102.306C195.286 101.456 195.107 100.602 195.631 99.7684Z" fill="#4BAF37"/>
<path d="M149.158 214.22C149.273 214.685 149.383 215.154 149.498 215.619C149.193 216.328 149.328 217.197 148.714 217.791L148.214 217.197C148.534 216.205 148.849 215.213 149.158 214.22Z" fill="#2B2A2A"/>
<path d="M143.165 258.621C142.665 255.448 142.166 252.284 141.667 249.131H142.166C142.665 252.308 143.774 255.379 143.664 258.651H143.165V258.621Z" fill="#035029"/>
<path d="M147.7 239.612C148.539 238.383 147.75 236.94 148.199 235.666C148.794 237.814 148.304 240.021 148.544 242.189L147.7 239.612Z" fill="#F5B7B5"/>
<path d="M138.52 237.429C137.626 237.879 137.062 237.215 136.258 236.93C137.391 235.841 137.961 236.48 138.52 237.429Z" fill="#F6CBC3"/>
<path d="M142.476 91.5376C143.148 91.5685 143.806 91.7442 144.404 92.0528C145.002 92.3614 145.527 92.7956 145.942 93.3256C146.801 94.4293 147.44 94.3594 148.264 93.3855C148.576 92.9988 148.965 92.6822 149.408 92.4565C150.177 92.1019 151.231 91.178 151.785 92.2418C152.389 93.3955 150.841 93.5004 150.287 93.6352C148.594 94.0498 148.429 97.2762 146.251 96.1075C144.753 95.2984 143.974 93.3006 142.076 92.7762C141.711 92.6763 141.647 92.3217 141.766 91.9721C141.813 91.827 141.911 91.7034 142.041 91.6237C142.171 91.544 142.325 91.5135 142.476 91.5376Z" fill="#E0B24A"/>
<path d="M195.631 99.7683C195.596 100.612 195.556 101.456 195.521 102.305L195.297 102.266H195.067C195.277 100.627 194.537 98.8993 195.536 97.3411L195.631 99.7683Z" fill="#7F843D"/>
<path d="M195.067 102.296V104.793C194.447 103.559 194.378 102.905 195.067 102.296Z" fill="#6E7D42"/>
<path d="M68.3086 86.2835C69.43 86.5105 70.467 87.0429 71.3052 87.8218C73.0129 92.108 73.3617 96.8156 72.3041 101.307C67.4645 105.092 62.4901 105.157 59.5034 101.337C55.2831 95.9477 56.6266 87.2574 63.5689 86.1736C63.7886 86.1387 63.9834 85.9239 64.1932 85.7891C65.4518 86.783 66.9551 85.874 68.3086 86.2835Z" fill="#28131A"/>
<path d="M114.647 87.8118C118.173 89.9793 119.466 93.2107 118.777 97.1563C118.178 100.587 115.915 102.725 112.589 103.524C109.153 104.348 106.026 103.739 103.689 100.777C104.688 99.3389 106.511 98.9193 107.72 97.6308C109.917 95.2784 111.925 92.8761 113.029 89.7946C113.318 88.9954 113.508 87.9766 114.647 87.8118Z" fill="#281318"/>
<path d="M115.196 72.2142C115.031 73.6526 114.941 75.3607 112.919 75.3457C111.016 75.3457 111.226 73.6875 111.176 72.384C111.116 70.8607 111.39 69.4173 113.243 69.3374C115.096 69.2575 115.091 70.8257 115.196 72.2142Z" fill="#0C0708"/>
<path d="M99.7134 72.1542C99.2739 73.293 99.6335 75.3407 97.5309 75.2957C95.8328 75.2658 95.618 73.7375 95.7029 72.2991C95.7878 70.8607 96.0476 69.1576 97.7307 69.0627C99.4138 68.9678 99.7134 70.546 99.7134 72.1542Z" fill="#0C0709"/>
<path d="M97.2812 87.9616C100.038 90.9582 103.274 92.3667 107.665 91.1081C104.548 94.3994 98.9194 92.5464 97.2812 87.9616Z" fill="#140A09"/>
<path d="M107.17 69.8768C107.67 73.7076 109.667 77.2836 109.128 81.2941C108.209 81.5388 108.598 80.6548 108.314 80.3551C107.899 76.8091 105.897 73.5777 106.236 69.8669C106.29 69.7932 106.361 69.7334 106.442 69.6926C106.524 69.6517 106.614 69.6309 106.706 69.6319C106.797 69.6328 106.887 69.6556 106.968 69.6982C107.048 69.7408 107.118 69.802 107.17 69.8768Z" fill="#0D0709"/>
<path d="M64.0234 80.0355C66.8752 76.7142 63.8785 74.8463 62.4451 72.5689C64.5378 73.4529 65.7464 75.116 67.1499 76.5644C67.4595 76.8791 67.6493 77.4085 67.1499 77.6082C65.9712 78.1227 65.8213 79.7109 64.0234 80.0355Z" fill="#100709"/>
<path d="M108.314 80.3551L109.128 81.2941C107.889 83.5416 107.445 83.6714 104.473 82.5377C105.417 81.1343 108.044 82.6875 108.314 80.3551Z" fill="#1E0E09"/>
<path d="M69.2475 84.7502L68.6881 84.6403C68.4834 84.3107 67.8591 84.2757 67.974 83.7513C68.0589 83.3567 68.4484 83.3168 68.778 83.4117C69.5422 83.6264 69.6071 84.1259 69.2475 84.7502Z" fill="#582B15"/>
<path d="M107.17 69.8769H106.236C106.306 69.3774 105.966 68.5783 106.82 68.6532C107.325 68.7032 107.17 69.4224 107.17 69.8769Z" fill="#431F0B"/>
<path d="M72.2792 101.267C72.2792 96.7468 71.6549 92.2768 71.2803 87.7818C75.5705 91.5726 75.9401 96.6419 72.2792 101.267Z" fill="#C85B4A"/>
<path d="M119.052 220.593C116.34 221.667 115.486 221.093 115.586 218.291C115.686 215.489 117.159 213.566 119.342 212.178C120.96 211.149 122.638 211.334 123.467 213.321C124.361 215.459 125.305 215.908 127.258 214.29C129.465 212.462 131.083 213.191 131.123 215.998C131.178 220.154 130.229 224.144 127.512 227.386C126.513 228.554 124.975 231.096 123.382 227.665C123.352 227.6 123.262 227.515 123.202 227.515C121.529 227.475 120.106 227.081 119.451 225.278C118.892 223.75 119.436 222.131 119.052 220.593Z" fill="#7FB3DB"/>
<path d="M107.51 247.328C101.072 247.024 94.694 246.17 88.3162 245.36C89.8145 244.921 88.9255 243.692 89.0154 242.863C89.2252 241.01 89.9044 239.902 91.9221 239.952C94.8539 240.031 97.5658 240.131 99.1041 236.595C99.7084 235.202 101.926 235.821 103.254 236.885C105.807 238.923 106.611 241.65 106.296 244.816C106.206 245.875 105.657 247.208 107.51 247.328Z" fill="#F4CA39"/>
<path d="M134.674 194.238C134.609 192.1 134.994 190.337 137.766 190.707C138.85 190.852 139.354 189.997 140.103 189.523C141.602 188.559 143.335 188.025 144.493 189.793C145.567 191.441 144.583 192.709 143.035 193.643C141.986 194.278 140.832 194.827 140.238 196.026C139.569 197.369 138.795 198.962 137.022 198.438C135.119 197.879 134.524 196.161 134.674 194.238Z" fill="#DB3934"/>
<path d="M113.198 254.65C113.088 256.903 111.745 257.871 110.122 257.876C108.499 257.881 107.465 256.483 107.505 254.835C107.55 253.037 108.539 252.043 110.546 252.078C112.554 252.113 112.974 253.387 113.198 254.65Z" fill="#010302"/>
<path d="M109.243 174.355C109.547 174.26 109.852 174.13 110.167 174.065C110.481 174 111.016 173.566 111.106 174.22C111.181 174.789 110.561 174.645 110.202 174.72C109.727 175.004 109.303 175.184 109.243 174.355Z" fill="#FBF6F6"/>
<path d="M109.243 174.355L110.202 174.725C109.607 175.084 108.948 175.614 108.349 174.944C108.204 174.755 108.883 174.5 109.243 174.355Z" fill="#D8D2D2"/>
<path d="M71.9645 174.345C70.636 173.421 69.3424 172.457 68.4384 170.849C70.9456 170.829 71.515 172.527 71.9645 174.345Z" fill="#EDF5F8"/>
<path d="M76.8141 176.732C76.8491 176.148 76.3596 175.234 76.9739 175.059C77.5882 174.884 77.5882 175.743 77.6582 176.263C77.4834 176.607 77.2386 176.862 76.8141 176.732Z" fill="#C4B072"/>
<path d="M76.8141 176.732L77.6581 176.263C77.6581 176.817 78.1026 177.636 77.0788 177.666C76.2397 177.681 76.6293 177.127 76.8141 176.732Z" fill="#D8B04A"/>
<path d="M132.302 139.799C130.689 139.404 129.43 139.029 128.152 138.8C127.253 138.645 126.823 138.235 126.828 137.341C126.828 136.672 126.828 135.843 127.397 135.523C128.137 135.094 128.771 135.793 129.325 136.233C130.625 137.127 131.655 138.36 132.302 139.799Z" fill="#FAF8F3"/>
<path d="M129.945 146.916C130.699 147.685 131.653 147.94 131.383 148.963C131.348 149.108 130.754 149.293 130.549 149.193C129.68 148.764 129.61 147.999 129.945 146.916Z" fill="#F5E9D3"/>
<path d="M92.1169 146.946C93.0259 147.655 94.1396 148.344 94.4593 149.613C94.6341 150.297 93.8849 150.322 93.4205 150.217C92.1219 149.912 91.5525 148.928 91.3677 147.72C91.2978 147.265 91.4227 146.866 92.1169 146.946Z" fill="#FAF4DE"/>
<path d="M97.2662 242.354C98.4099 242.654 99.7084 242.788 100.013 244.087C100.178 244.786 99.214 244.881 98.7545 244.876C97.6208 244.876 96.6719 244.337 96.3772 243.158C96.2174 242.514 96.8167 242.414 97.2662 242.354Z" fill="#F8F5EA"/>
</g>
<defs>
<clipPath id="clip0_54827_1000">
<rect width="320.736" height="400.732" fill="white"/>
</clipPath>
</defs>
</svg>
