<svg width="28" height="28" viewBox="0 0 28 28" fill="none" xmlns="http://www.w3.org/2000/svg">
<path d="M2.3335 11.0833C2.33352 9.78507 2.72736 8.51735 3.46298 7.44761C4.19861 6.37787 5.24143 5.55644 6.45371 5.09181C7.66598 4.62717 8.99068 4.54119 10.2528 4.84522C11.515 5.14926 12.6553 5.829 13.523 6.79467C13.5841 6.86002 13.658 6.91212 13.7401 6.94774C13.8222 6.98336 13.9107 7.00174 14.0002 7.00174C14.0896 7.00174 14.1782 6.98336 14.2602 6.94774C14.3423 6.91212 14.4162 6.86002 14.4773 6.79467C15.3423 5.82272 16.4829 5.13727 17.7471 4.82954C19.0113 4.52181 20.3392 4.60641 21.5542 5.07207C22.7691 5.53773 23.8134 6.36237 24.5481 7.43623C25.2828 8.51008 25.673 9.78223 25.6668 11.0833C25.6668 13.755 23.9168 15.75 22.1668 17.5L15.7595 23.6985C15.5421 23.9482 15.2741 24.1487 14.9732 24.2869C14.6724 24.425 14.3455 24.4975 14.0145 24.4996C13.6835 24.5017 13.3558 24.4333 13.0532 24.299C12.7506 24.1647 12.48 23.9676 12.2595 23.7207L5.8335 17.5C4.0835 15.75 2.3335 13.7667 2.3335 11.0833Z" stroke="white" stroke-width="1.55556" stroke-linecap="round" stroke-linejoin="round"/>
</svg>
