<svg width="20" height="20" viewBox="0 0 20 20" fill="none" xmlns="http://www.w3.org/2000/svg">
<path d="M3.25617 12.7905L3.79555 12.4748L3.25617 12.7905ZM3.25617 7.20943L3.79555 7.52516L3.25617 7.20943ZM11.5968 8.30691C11.8466 8.54513 12.2422 8.53576 12.4805 8.28596C12.7187 8.03617 12.7093 7.64055 12.4595 7.40233L12.0282 7.85462L11.5968 8.30691ZM7.286 12.4297C7.51028 12.6921 7.90481 12.723 8.16719 12.4987C8.42957 12.2744 8.46045 11.8799 8.23616 11.6175L7.76108 12.0236L7.286 12.4297ZM17.0079 3.77176C17.2501 3.52577 17.2469 3.13005 17.001 2.88791C16.755 2.64576 16.3592 2.64887 16.1171 2.89486L16.5625 3.33331L17.0079 3.77176ZM3.46084 15.752C3.21869 15.998 3.22181 16.3937 3.4678 16.6359C3.71379 16.878 4.10951 16.8749 4.35166 16.6289L3.90625 16.1905L3.46084 15.752ZM3.25617 12.7905L3.79555 12.4748C2.90148 10.9474 2.90148 9.05257 3.79555 7.52516L3.25617 7.20943L2.71678 6.89369C1.59441 8.81113 1.59441 11.1888 2.71678 13.1063L3.25617 12.7905ZM4.97362 14.843L5.37712 14.3657C4.77279 13.8548 4.23484 13.2253 3.79555 12.4748L3.25617 12.7905L2.71678 13.1063C3.22763 13.979 3.85744 14.7178 4.57013 15.3203L4.97362 14.843ZM3.25617 7.20943L3.79555 7.52516C6.05687 3.66198 11.0014 2.93328 14.2694 5.35437L14.6414 4.85217L15.0135 4.34998C11.1811 1.51076 5.37435 2.35356 2.71678 6.89369L3.25617 7.20943ZM7.0361 10.0506H7.6611C7.6611 8.72249 8.71721 7.66414 9.99953 7.66414V7.03914V6.41414C8.00811 6.41414 6.4111 8.05102 6.4111 10.0506H7.0361ZM9.99953 7.03914V7.66414C10.616 7.66414 11.1772 7.90666 11.5968 8.30691L12.0282 7.85462L12.4595 7.40233C11.8185 6.79102 10.9524 6.41414 9.99953 6.41414V7.03914ZM7.76108 12.0236L8.23616 11.6175C7.87835 11.1989 7.6611 10.652 7.6611 10.0506H7.0361H6.4111C6.4111 10.9587 6.74054 11.7916 7.286 12.4297L7.76108 12.0236ZM16.5625 3.33331L16.1171 2.89486L3.46084 15.752L3.90625 16.1905L4.35166 16.6289L17.0079 3.77176L16.5625 3.33331Z" fill="#B5B7BF"/>
<path d="M16.7436 7.20941C17.7519 8.93183 17.7519 11.0681 16.7436 12.7905C14.7286 16.233 10.7559 17.3825 7.43359 16.2389M12.9637 10.0506C12.9637 11.7134 11.6362 13.061 9.99934 13.061" stroke="#B5B7BF" stroke-width="1.25" stroke-linecap="round"/>
</svg>
