<svg width="34" height="34" viewBox="0 0 34 34" fill="none" xmlns="http://www.w3.org/2000/svg">
<path d="M6.49121 13.9749C6.87843 13.8663 7.35892 14.1068 7.44434 14.5178C7.56827 15.1462 7.69938 15.7674 7.83105 16.3958C8.39654 19.1269 8.97064 21.8658 9.53613 24.5969C9.85325 26.1229 10.1702 27.6491 10.4873 29.175H13.3154V22.8586C13.3155 22.052 13.4007 21.2608 13.8574 20.5627C15.4842 18.0721 19.6369 18.5605 20.4658 21.4934C20.6285 22.0753 20.5977 22.6811 20.5977 23.2708V29.175H23.3545C23.4498 28.7353 23.545 28.2955 23.6426 27.8557C24.2313 25.1324 24.8195 22.4013 25.4082 19.678C25.78 17.9555 26.1516 16.2326 26.5234 14.5178C26.7328 13.5406 28.2277 13.9602 28.0186 14.9299C27.8792 15.5582 27.7478 16.1865 27.6084 16.8147C27.0197 19.538 26.4305 22.2691 25.8418 24.9924C25.47 26.7149 25.0984 28.4301 24.7266 30.1526C24.6568 30.4783 24.3086 30.7188 23.9834 30.719H9.86914C9.55153 30.719 9.19472 30.4862 9.125 30.1526C9.00106 29.5241 8.86997 28.9031 8.73828 28.2747C8.17279 25.5435 7.59869 22.8046 7.0332 20.0735C6.67691 18.359 6.32113 16.6444 5.96484 14.9299C5.87964 14.5187 6.08068 14.0913 6.49121 13.9749ZM16.6855 20.5159C15.6631 20.5702 14.8877 21.439 14.8721 22.4475C14.8369 24.6855 14.8635 26.9301 14.8691 29.175H19.0479V23.1692C19.0479 22.7193 19.0943 22.2461 18.9473 21.8118C18.6142 20.811 17.6537 20.4694 16.6855 20.5159ZM16.8477 3.39185C17.0567 3.24449 17.4284 3.24463 17.6299 3.39185C18.2264 3.81859 18.8156 4.25319 19.4121 4.67993C22.0072 6.56534 24.6101 8.45077 27.2129 10.3362C28.8474 11.5233 30.4817 12.7028 32.1162 13.8899C32.457 14.1381 32.6276 14.5645 32.3955 14.9524C32.1941 15.2938 31.6748 15.48 31.334 15.2317C30.7376 14.805 30.1491 14.3703 29.5527 13.9436C26.9577 12.0582 24.3548 10.1728 21.752 8.28735C20.2453 7.19312 18.7381 6.10614 17.2314 5.01294C16.7447 5.35423 16.2583 5.69606 15.7715 6.03735C13.0835 7.92273 10.4028 9.80822 7.71484 11.6936C6.0339 12.8807 4.345 14.0602 2.66406 15.2395C2.32321 15.48 1.80395 15.2938 1.60254 14.9602C1.37812 14.5723 1.54107 14.1382 1.88184 13.8977C2.50154 13.4632 3.12151 13.0285 3.74121 12.594C6.42909 10.7087 9.109 8.82305 11.7969 6.93774C13.4778 5.75066 15.1667 4.57117 16.8477 3.39185Z" fill="#7891A2"/>
</svg>
