<svg width="18" height="18" viewBox="0 0 18 18" fill="none" xmlns="http://www.w3.org/2000/svg">
<g clip-path="url(#clip0_54784_1208)">
<path d="M5.14295 8.34424L1.01581 12.4328C0.895302 12.5523 0.799652 12.6945 0.734378 12.8512C0.669104 13.0079 0.635498 13.1759 0.635498 13.3457C0.635498 13.5154 0.669104 13.6834 0.734378 13.8401C0.799652 13.9968 0.895302 14.139 1.01581 14.2585L3.74152 16.9842C3.86105 17.1047 4.00325 17.2004 4.15993 17.2657C4.3166 17.3309 4.48465 17.3646 4.65438 17.3646C4.82411 17.3646 4.99216 17.3309 5.14884 17.2657C5.30551 17.2004 5.44771 17.1047 5.56724 16.9842L9.65581 12.8571" stroke="#000001" stroke-width="1.28571" stroke-linecap="round" stroke-linejoin="round"/>
<path d="M12.8571 9.65581L16.9457 5.56724C17.0662 5.44771 17.1618 5.30551 17.2271 5.14884C17.2924 4.99216 17.326 4.82411 17.326 4.65438C17.326 4.48465 17.2924 4.3166 17.2271 4.15993C17.1618 4.00325 17.0662 3.86105 16.9457 3.74152L14.2585 1.01581C14.139 0.895302 13.9968 0.799652 13.8401 0.734378C13.6834 0.669104 13.5154 0.635498 13.3457 0.635498C13.1759 0.635498 13.0079 0.669104 12.8512 0.734378C12.6945 0.799652 12.5523 0.895302 12.4328 1.01581L8.34424 5.14295" stroke="#000001" stroke-width="1.28571" stroke-linecap="round" stroke-linejoin="round"/>
<path d="M11.5714 6.42871L6.42859 11.5716" stroke="#000001" stroke-width="1.28571" stroke-linecap="round" stroke-linejoin="round"/>
</g>
<defs>
<clipPath id="clip0_54784_1208">
<rect width="18" height="18" fill="white"/>
</clipPath>
</defs>
</svg>
