<svg width="32" height="32" viewBox="0 0 32 32" fill="none" xmlns="http://www.w3.org/2000/svg">
<path d="M14.7705 19.2702C13.7504 21.7203 12.7702 24.0802 11.7852 26.4374C11.4701 27.1908 10.8628 27.5628 10.154 27.4366C9.61405 27.3417 9.24397 27.0162 9.03521 26.5133C6.8451 21.2404 4.65435 15.967 2.46298 10.6929C2.39086 10.5183 2.26465 10.3247 2.62334 10.3266C5.2158 10.337 7.8092 10.2877 10.3988 10.3702C12.1069 10.4243 13.4524 11.2916 14.4962 12.6296C14.5437 12.6913 14.5911 12.753 14.6433 12.8128C14.6571 12.8244 14.6724 12.8339 14.6889 12.8412C14.8455 12.8128 14.8407 12.66 14.8844 12.5565C15.4945 11.1018 16.0734 9.63387 16.7082 8.19151C17.7027 5.92643 19.4487 4.66816 21.9273 4.60268C24.4058 4.53721 26.8901 4.58371 29.3715 4.58276C29.4468 4.58898 29.5216 4.60008 29.5955 4.61597C29.2339 5.49467 28.8838 6.35344 28.5279 7.20937C25.8912 13.5747 23.2497 19.9404 20.6035 26.3064C20.3634 26.8853 20.0342 27.3265 19.3851 27.4375C18.6791 27.559 18.0699 27.1823 17.7567 26.4307C16.8357 24.2166 15.9162 22.0024 14.9982 19.7883C14.9394 19.645 14.8739 19.5045 14.7705 19.2702ZM11.3923 20.9023C11.9085 19.6848 12.3479 18.4266 12.9647 17.2622C13.4762 16.2972 13.331 15.4859 12.8451 14.6129C12.3042 13.6412 11.5242 13.013 10.4206 12.8298C9.62164 12.697 8.81316 12.7738 8.00942 12.7862C7.50365 12.7786 6.99692 12.7862 6.49115 12.7587C6.06129 12.7311 6.01669 12.8659 6.17705 13.2398C7.16868 15.5959 8.14227 17.9607 9.1244 20.3225C9.53339 21.3056 9.94617 22.2868 10.4073 23.3894L11.3923 20.9023ZM17.9399 20.3728C18.3261 21.336 18.7123 22.3001 19.1507 23.3923C21.4471 17.861 23.6818 12.4797 25.9317 7.06514H23.4465C23.0043 7.05849 22.5621 7.04426 22.118 7.04711C20.6348 7.05565 19.5768 7.75595 18.9979 9.10057C18.049 11.303 17.1494 13.5254 16.229 15.743C16.1626 15.9024 16.1028 16.0476 16.1844 16.2374C16.7775 17.6105 17.3553 18.9931 17.937 20.3728H17.9399Z" fill="#E0AE42"/>
<path d="M17.9373 20.3729C18.6499 18.6752 19.3663 16.9805 20.0723 15.28C21.1668 12.6477 22.2567 10.0135 23.3423 7.37738C23.3841 7.27585 23.4125 7.16957 23.4467 7.06519H25.9291C23.6792 12.4826 21.4416 17.8611 19.1481 23.3923C18.7097 22.3001 18.3235 21.336 17.9373 20.3729Z" fill="#FCFDFC"/>
</svg>
