<svg width="263" height="401" viewBox="0 0 263 401" fill="none" xmlns="http://www.w3.org/2000/svg">
<g clip-path="url(#clip0_54827_1160)">
<path d="M209.172 385.004C207.867 386.447 205.973 387.011 204.302 387.56C197.661 389.745 191.179 392.455 184.198 393.627C180.694 394.27 177.227 395.105 173.815 396.129C170.779 396.999 167.53 397.286 164.376 397.76C160.267 398.383 156.084 398.512 151.931 398.853C149.355 399.654 146.774 398.769 144.193 398.853C142.907 397.8 143.258 396.312 143.248 394.967C143.12 382.007 142.26 369.068 142.077 356.109C143.174 350.106 142.744 343.985 143.357 337.933C143.431 337.201 143.357 336.45 143.496 335.718C143.738 334.497 144.381 334.235 145.419 334.932C146.02 335.369 146.575 335.866 147.075 336.415C156.687 346.245 166.853 355.496 176.959 364.796C177.493 365.29 177.948 365.913 178.981 365.745C177.197 363.951 175.431 362.136 173.543 360.445C169.627 356.93 165.632 353.483 161.973 349.706C158.472 346.091 154.487 343.006 151.095 339.323C150.373 338.541 148.875 337.755 149.686 336.559C150.368 335.545 151.664 336.46 152.653 336.801C158.482 338.843 164.114 341.389 169.82 343.723C170.714 344.094 171.57 344.628 172.653 344.598C172.445 343.451 171.387 343.486 170.675 343.169C162.724 339.57 154.586 336.415 146.601 332.895C144.539 331.99 143.689 330.719 143.867 328.544C143.956 327.311 143.956 326.073 143.867 324.841C143.748 322.863 144.361 321.454 146.161 320.336C148.336 318.991 149.513 316.737 150.116 314.274C152.383 305.424 153.798 296.378 154.344 287.258C154.808 279.189 154.561 271.14 154.744 263.08C154.744 262.091 154.64 261.103 155.323 260.237C157.399 259.441 159.738 259.703 161.75 258.611C169.226 258.116 176.717 258.21 184.198 258.22C187.792 258.22 188.119 258.536 189.172 262.027C192.112 271.585 197.01 280.425 203.555 287.985C205.157 289.864 206.719 291.778 208.425 293.567C209.998 298.289 210.527 303.209 211.016 308.109C212.312 321.147 212.277 334.21 211.728 347.298C211.352 356.252 211.001 365.206 210.596 374.156C210.462 377.122 209.918 380.045 210.003 383.016C210.055 383.391 210.005 383.774 209.859 384.124C209.713 384.473 209.476 384.777 209.172 385.004Z" fill="#013A17"/>
<path d="M131.248 398.873C129.414 399.402 127.585 399.224 125.75 398.873C124.292 399.98 122.645 399.565 121.073 399.367C118.438 398.996 115.778 398.739 113.162 398.24C105.094 397.127 97.1124 395.455 89.2757 393.236C82.7557 391.542 76.3511 389.431 70.1014 386.917C68.8752 386.423 67.6836 385.864 67.0161 384.603C66.3041 382.719 67.0705 380.875 67.2139 379.031C67.5699 374.393 67.7577 369.735 68.361 365.117C68.4805 364.473 68.7804 363.876 69.2259 363.395C69.6714 362.915 70.2442 362.571 70.8776 362.403C73.1372 361.622 74.6304 359.52 76.9246 358.749C83.2389 358.405 89.5671 358.405 95.8813 358.749C98.047 359.426 100.277 359.1 102.482 359.13C106.091 359.179 109.701 359.105 113.31 359.159C114.877 359.268 116.436 358.871 117.76 358.027C119.837 356.49 120.045 354.368 119.664 352.04C118.279 343.59 116.668 335.179 115.214 326.744C112.343 310.411 109.477 294.095 106.616 277.795C105.716 272.702 104.925 267.585 103.689 262.551C104.554 260.811 106.052 260.025 107.896 259.748C116.939 259.773 125.968 259.253 135.001 259.056C137.08 259.485 139.197 259.7 141.32 259.698C142.21 259.669 143.135 259.743 143.792 260.504C144.41 261.553 144.326 262.724 144.316 263.867C144.227 276.766 143.876 289.661 143.708 302.556C143.58 312.485 143.125 322.418 142.823 332.351C142.729 335.466 141.834 338.586 142.561 341.676C142.997 343.592 143.107 345.568 142.888 347.52C141.404 347.703 141.404 347.703 141.963 345.488C141.221 346.65 141.637 348.015 141.399 349.266C138.475 364.719 135.573 380.17 132.692 395.619C132.48 396.791 132.519 398.146 131.248 398.873Z" fill="#013A17"/>
<path d="M131.248 398.873C132.534 392.386 133.859 385.904 135.095 379.402C137.3 367.773 139.456 356.133 141.686 344.208C142.739 345.508 141.79 346.863 142.531 347.866C143.733 350.339 142.462 352.841 142.705 355.323C142.981 364.104 143.243 372.89 143.54 381.671C143.733 387.407 143.97 393.137 144.188 398.873C144.307 399.624 144.188 400.054 143.239 400.148C139.486 400.534 135.748 400.272 132.005 400.124C131.08 400.084 131.387 399.342 131.248 398.873Z" fill="#FCFCFB"/>
<path d="M110.996 36.45C110.808 34.2942 110.622 32.1385 110.438 29.9827C110.251 29.8203 110.099 29.6218 109.991 29.3992C109.883 29.1766 109.822 28.9344 109.81 28.6873C110.012 24.8603 110.24 21.0334 112.425 17.6762C113.444 15.9061 114.344 14.0569 115.496 12.3758C119.52 6.4722 125.612 3.75279 132.173 1.80965C136.549 -0.108763 140.969 -0.840531 145.523 1.31522C152.939 2.3832 159.768 4.77629 165.409 10.0371C169.117 13.4982 170.799 17.7503 171.293 22.6354C172.208 23.9258 172.049 25.3053 171.629 26.6996C170.858 27.738 170.146 26.9765 169.533 26.5513C163.184 22.047 155.689 20.9345 148.336 19.9605C140.351 18.9073 134.685 23.0012 130.823 29.8047C130.215 30.8727 129.755 32.0247 129.103 33.0729C128.376 34.2398 127.619 34.22 126.863 33.1125C126.294 32.3066 125.785 31.4611 125.152 30.6997C122.423 27.4512 118.477 27.4166 115.6 30.5612C113.82 32.5093 113.236 35.0111 112.138 37.3251C111.041 37.9679 111.293 36.8455 110.996 36.45Z" fill="#23140D"/>
<path d="M14.9864 351.827C14.0965 346.571 13.2361 341.31 12.3214 336.059C9.75693 321.266 7.18421 306.474 4.60325 291.684C3.11994 283.115 1.55257 274.561 0.118698 265.973C-0.543849 262.017 1.92341 259.001 5.87891 258.685C12.2028 258.19 18.5167 258.754 24.8307 258.932C25.8196 259.669 26.2151 260.499 25.2609 261.548C19.9407 261.82 14.6156 261.548 9.29546 261.661C7.90609 261.686 6.50684 261.557 4.61315 262.111C10.5464 262.111 15.9852 262.111 21.424 262.111C22.7244 262.111 24.0544 261.978 25.3103 262.502C25.7142 262.707 26.0268 263.055 26.1869 263.479C26.347 263.902 26.343 264.37 26.1756 264.791C25.3993 265.948 24.1978 265.839 23.0557 265.78C17.2757 265.384 11.5254 265.656 5.76025 265.607C3.07545 265.582 2.96173 265.8 3.40672 268.46C6.94689 289.468 10.7985 310.418 14.4524 331.402C15.6391 338.21 16.7911 345.019 18.0866 351.807C18.8381 355.763 20.3709 357.019 24.5637 357.053C31.6341 357.108 38.7095 357.132 45.7849 357.023C47.4116 357.187 48.1236 358.205 48.3016 359.723C47.4562 360.445 46.4327 360.183 45.4784 360.173C38.4722 360.089 31.4611 359.965 24.4549 359.857C20.3214 360.237 17.2658 358.7 15.5105 354.838C14.7442 353.938 14.3338 352.974 14.9864 351.827Z" fill="#BCBCC7"/>
<path d="M142.705 355.337C142.645 352.852 142.588 350.367 142.531 347.881C143.466 344.554 141.261 341.597 141.508 338.265C142.309 327.634 142.398 316.964 142.695 306.304C142.818 301.973 142.942 297.622 143.026 293.281C143.239 282.358 143.367 271.436 143.52 260.514C144.321 259.669 145.192 259.763 146.096 260.316C146.479 260.861 146.632 261.534 146.522 262.19C145.998 268.277 146.23 274.378 146.309 280.485C146.472 292.663 145.429 304.816 145.78 317.261C147.169 315.955 147.792 314.403 148.302 312.771C150.477 305.79 150.947 298.546 151.649 291.337C152.529 282.299 151.98 273.236 152.143 264.188C152.143 262.887 151.955 261.533 152.781 260.361C153.691 259.782 154.566 259.684 155.372 260.534C155.372 267.698 155.56 274.873 155.318 282.032C154.947 293.019 153.696 303.921 150.759 314.556C149.928 317.562 148.094 319.768 145.602 321.79C143.011 323.886 145.043 327.293 144.494 330.062C144.222 331.431 145.33 331.639 146.215 332.04C149.152 333.32 152.074 334.64 155.026 335.891C160.85 338.363 166.695 340.766 172.519 343.229C173.325 343.57 174.457 343.901 174.027 345.098C173.533 346.467 172.569 345.627 171.787 345.31C165.02 342.545 158.241 339.789 151.451 337.043C150.957 336.841 150.462 336.351 149.285 337.043C151.436 339.021 153.473 340.895 155.491 342.784C160.712 347.664 165.874 352.583 171.145 357.439C173.73 359.837 176.435 362.106 179.056 364.475C179.659 365.023 180.865 365.528 180.044 366.621C179.145 367.827 178.19 366.789 177.538 366.24C175.466 364.499 173.488 362.64 171.51 360.801C162.635 352.475 153.676 344.227 145.192 335.491C144.905 335.235 144.605 334.996 144.292 334.774C143.328 341.706 144.035 348.603 142.705 355.337Z" fill="#010101"/>
<path d="M206.853 289.083C207.477 290.484 207.805 291.999 207.817 293.533C202.515 288.509 198.029 282.689 194.522 276.282C191.852 271.466 189.503 266.477 188.188 261.088C187.787 259.441 186.986 258.848 185.271 258.883C179.595 258.986 173.899 258.947 168.237 258.927C166.087 258.927 163.931 260.242 161.81 258.878C161.347 255.349 161.412 251.771 162.003 248.262C162.828 247.15 164.059 247.016 165.3 246.972C172.173 246.729 179.036 246.27 185.899 245.859C188.598 245.696 191.283 245.414 193.988 245.429C195.876 245.464 196.03 246.996 196.46 248.287C197.543 250.962 198.111 253.8 199.145 256.494C199.286 256.794 199.36 257.12 199.36 257.451C199.36 257.782 199.286 258.109 199.145 258.408C197.355 259.659 195.328 258.962 193.404 259.075C190.848 259.224 190.69 259.372 191.426 261.829C194.215 271.021 199.056 279.085 205.033 286.512C205.686 287.337 206.26 288.223 206.853 289.083Z" fill="black"/>
<path d="M162.329 248.129C162.091 251.703 162.868 255.333 161.775 258.868C160.03 260.905 157.602 260.272 155.392 260.499H152.934C151.854 261.016 150.672 261.284 149.474 261.285C148.276 261.286 147.094 261.019 146.012 260.504H143.54C140.756 260.104 137.795 261.112 135.135 259.461C133.582 258.813 133.454 257.399 133.419 256.035C133.379 254.368 133.073 252.653 133.879 251.056C136.074 250.002 136.534 250.274 136.786 252.574C136.939 253.968 136.247 255.54 137.523 256.717C138.353 257.211 139.273 257.152 140.173 257.157C145.444 257.157 150.719 257.157 155.995 257.157C158.858 257.157 158.962 256.954 159.07 254.027C159.154 252 158.576 249.894 159.708 247.97C160.628 247.387 161.503 247.293 162.329 248.129Z" fill="#F8F8F8"/>
<path d="M136.386 257.177C136.271 255.723 136.233 254.264 136.272 252.806C136.42 250.887 135.689 250.507 134.062 251.224C132.475 252.618 130.388 252.598 128.509 253.063C121.236 254.863 114.265 257.513 107.372 260.386L103.876 262.438C102.047 262.289 100.668 260.786 98.7936 260.752C91.377 260.435 83.9605 260.717 76.5884 260.608C75.3721 260.608 74.1162 260.845 72.9889 260.114C72.1731 258.63 72.8208 257.226 73.1867 255.847C73.7157 253.869 74.047 251.827 75.0754 250.017C85.3548 239.382 93.963 227.451 102.106 215.159C102.551 214.492 103.214 213.923 103.288 212.85C102.299 212.92 101.978 213.711 101.577 214.334C94.8084 224.534 87.6688 234.492 79.5452 243.703C78.9419 244.386 78.4129 245.963 76.9889 244.593C80.0248 237.3 77.9778 230.146 76.3956 222.981C76.2918 220.742 75.6341 218.606 75.1842 216.435C74.189 211.252 73.8468 205.965 74.1657 200.697C74.5761 191.688 71.9654 183.768 66.5761 176.509C56.8307 163.372 49.8097 148.781 44.5488 133.335C43.6045 130.561 41.9926 127.965 42.1558 124.87C44.9098 120.316 48.89 116.855 52.712 113.286C59.2386 107.194 66.7392 102.813 75.6144 101.048C81.7849 99.8154 87.9539 98.5744 94.1212 97.3251C95.3078 99.4264 94.6848 101.632 94.5266 103.817C94.0322 110.967 94.6403 118.077 95.2633 125.187C95.2664 125.378 95.325 125.565 95.4321 125.724C95.5392 125.883 95.6901 126.007 95.8665 126.082C96.8554 125.587 97.0136 124.475 97.4932 123.609C99.2534 120.376 101.829 118.284 105.538 117.75C106.433 117.576 107.36 117.654 108.213 117.978C109.067 118.301 109.813 118.856 110.368 119.58C111.515 121.063 110.863 122.546 110.101 123.96C109.983 124.178 109.874 124.396 109.765 124.618C107.743 128.781 107.748 128.776 111.743 130.887C113.837 132.046 115.645 133.66 117.033 135.609C118.462 137.664 120.621 139.095 123.07 139.609C126.289 140.232 129.127 141.632 131.876 143.303C134.24 145.661 134.349 148.999 135.614 151.842C136.292 162.517 136.643 173.221 138.344 183.802C139.46 190.982 141.685 197.944 144.939 204.44C147.314 209.014 148.099 214.248 147.169 219.318C146.838 221.182 146.527 223.056 146.072 224.89C144.371 231.733 144.687 238.24 148.603 244.386C149.389 245.622 150.492 247.011 149.538 248.722C146.967 250.146 144.025 249.953 141.266 250.541C137.592 251.332 137.577 251.204 137.31 254.878C137.251 255.708 137.439 256.707 136.386 257.177Z" fill="#E13B35"/>
<path d="M95.9999 359.362H76.262C73.9677 360.261 71.4355 360.352 69.0828 359.619C68.8893 359.497 68.725 359.335 68.6011 359.142C68.4773 358.95 68.397 358.733 68.3658 358.507C68.256 357.931 68.3615 357.334 68.6625 356.831C68.8894 356.596 69.1742 356.425 69.4882 356.336C72.6971 355.417 73.1767 354.937 72.3955 351.733C70.9456 345.829 70.3939 339.74 70.7589 333.671C70.932 330.705 69.77 328.114 67.5203 325.968C64.5043 323.08 60.8158 320.91 58.3881 317.394C57.3251 316.203 57.2806 314.739 57.2756 313.256C57.2756 309.597 57.3794 305.928 56.9592 302.284C56.6888 298.538 56.7202 294.777 57.0531 291.036C57.4932 289.933 58.5364 289.829 59.4857 289.632C61.0162 289.315 62.5204 288.882 63.9851 288.336C64.613 288.104 65.2163 287.753 65.241 286.972C65.2657 286.19 64.6773 285.81 64.0692 285.533C62.6476 284.878 61.136 284.44 59.5846 284.232C58.6501 284.114 57.5376 284.267 57.0432 283.095C56.4054 278.645 57.4289 274.26 57.6167 269.839C57.686 268.168 57.3696 266.378 58.4178 264.801C59.7824 264.272 61.1915 264.618 62.576 264.613C72.4647 264.587 82.3535 264.587 92.2422 264.613C98.6699 264.613 100.435 266.042 101.582 272.282C104.722 289.37 107.664 306.492 110.616 323.614C112.297 333.345 114.116 343.056 115.797 352.786C116.02 354.087 116.292 355.377 116.43 356.687C116.677 359.12 116.277 359.57 113.775 359.535C107.837 359.446 101.913 359.743 95.9999 359.362Z" fill="#FEFEFE"/>
<path d="M99.4956 260.346C101.315 260.292 102.561 261.434 103.876 262.438C106.175 267.609 106.393 273.251 107.387 278.7C110.719 296.91 113.815 315.159 117.038 333.389C118.166 339.84 119.296 346.293 120.43 352.747C120.821 354.996 120.43 356.999 118.452 358.408C117.028 358.294 117.231 357.083 117.038 356.208C115.342 348.48 114.269 340.643 112.845 332.87C110.487 320.015 108.252 307.085 106.022 294.18C104.722 286.635 103.347 279.105 102.067 271.55C101.078 265.735 99.1001 264.134 93.2756 264.134C83.5599 264.134 73.8442 264.069 64.1038 264.134C63.2781 264.134 62.4524 264.134 61.6316 264.134C58.5414 264.01 57.9727 263.219 58.7045 260.054C58.8849 259.808 59.1271 259.614 59.4066 259.491C63.9456 259.278 68.5043 258.502 72.9641 260.104C73.6712 260.356 74.4474 260.208 75.1644 260.208C82.4573 260.208 89.7503 260.208 97.0432 260.208C97.8739 260.178 98.7045 260.025 99.4956 260.346Z" fill="#FDFDFD"/>
<path d="M59.016 259.911C59.1643 263.417 58.2595 263.308 62.4771 263.313L94.5364 263.367C99.0853 263.367 101.691 265.394 102.472 269.795C105.172 285.122 107.782 300.45 110.467 315.778C112.282 326.096 114.166 336.405 116.015 346.714C116.618 350.096 117.221 353.483 117.795 356.87C117.889 357.439 117.854 358.027 118.413 358.393C117.424 359.436 116.119 359.639 114.828 359.649C108.84 359.698 102.853 359.674 96.8652 359.649C96.555 359.592 96.255 359.488 95.9752 359.342C101.819 359.293 107.664 359.159 113.503 359.244C115.575 359.278 116.069 358.616 115.713 356.672C112.944 341.355 110.207 326.027 107.501 310.69C105.127 297.216 102.813 283.733 100.475 270.25C99.9357 267.051 97.7305 265.35 93.864 265.35C83.1594 265.35 72.4548 265.35 61.7503 265.35C60.6872 265.35 59.6044 265.464 58.6155 264.91C57.3102 263.426 57.6712 261.78 58.2249 260.133C58.262 260.067 58.312 260.008 58.3719 259.96C58.4318 259.913 58.5005 259.878 58.5741 259.857C58.6476 259.837 58.7246 259.831 58.8004 259.84C58.8763 259.849 58.9495 259.873 59.016 259.911Z" fill="#BCBCC7"/>
<path d="M107.372 260.405C114.981 255.659 123.59 253.706 132.134 251.58C132.766 251.426 133.419 251.352 134.062 251.239C134.527 253.973 133.286 256.93 135.15 259.476C134.724 259.97 134.161 259.926 133.567 259.936C124.836 260.079 116.114 260.668 107.372 260.405Z" fill="#010100"/>
<path d="M68.8802 359.293L76.2522 359.362C74.5217 360.974 72.7665 362.611 70.408 363.169C69.4191 363.397 69.4636 364.158 69.0334 364.653C68.7664 363.382 67.6737 363.862 66.9074 363.664C66.7887 361.844 67.7133 360.514 68.8802 359.293Z" fill="#934520"/>
<path d="M68.8801 359.293C68.5637 360.9 67.5798 362.205 66.9024 363.654C64.8604 364.371 62.8875 364.025 60.9345 363.288C59.4067 360.549 57.8591 357.82 56.3165 355.061C55.8221 356.401 56.6873 357.34 57.1026 358.418C57.6317 359.802 59.1298 360.89 58.5365 362.63C56.8604 362.63 55.1397 363.224 53.518 362.299C53.6515 362.087 54.047 361.854 54.0124 361.805C53.2065 360.124 52.7367 358.255 51.3128 356.658C50.6898 358.635 52.9543 359.916 52.0742 361.691C50.4228 361.75 49.602 360.208 48.2621 359.713L46.1854 357.276C43.7825 356.045 43.3078 353.557 42.6552 351.367C40.0792 342.764 39.2337 333.839 38.1607 324.969C37.8789 322.625 38.843 321.938 41.0532 322.65C47.7231 324.791 49.8492 324.178 54.3041 318.823C55.8863 318.428 57.1026 316.93 58.937 317.291C61.2557 319.806 63.8216 322.082 66.5958 324.084C70.6156 327.051 71.911 331.234 71.4858 335.985C71.0495 340.227 71.4169 344.513 72.5686 348.618C72.9583 349.871 73.2135 351.162 73.3301 352.47C73.5971 356.425 72.8356 357.113 68.9988 356.846C67.56 354.705 67.2633 352.153 66.492 349.775C65.9481 348.099 65.6317 346.344 64.5142 344.875C65.5031 349.503 66.2893 354.19 68.6922 358.388C68.7516 358.69 68.8208 358.991 68.8801 359.293Z" fill="#8B4A0D"/>
<path d="M58.5562 362.635C57.5327 360.524 56.4846 358.423 55.4808 356.297C55.0902 355.471 54.6897 354.482 55.8813 354.022C57.0729 353.562 57.1767 354.734 57.4981 355.397C58.5364 357.518 59.4166 359.713 60.8504 361.622C61.1817 362.062 61.8096 362.69 60.9542 363.293L58.5562 362.635Z" fill="#3F1A08"/>
<path d="M52.1137 361.716L50.398 357.429C50.1854 356.885 49.9036 356.282 50.6255 355.946C50.7669 355.86 50.9245 355.805 51.0883 355.784C51.2522 355.762 51.4187 355.775 51.5772 355.822C51.7358 355.868 51.883 355.947 52.0094 356.054C52.1358 356.16 52.2386 356.292 52.3115 356.44C53.1372 358.116 53.9777 359.797 54.6304 361.543C55.0111 362.576 53.9134 362.037 53.5377 362.284C53.2744 362.289 53.0129 362.241 52.7683 362.144C52.5238 362.046 52.3013 361.901 52.1137 361.716Z" fill="#411A08"/>
<path d="M140.574 364.287C140.737 366.695 140.979 369.098 141.068 371.506C141.325 379.698 141.478 387.901 141.77 396.099C141.824 397.622 141.404 398.002 139.891 398.077C133.834 398.294 133.884 398.368 135.026 392.396C136.801 383.061 138.487 373.711 140.242 364.366L140.574 364.287Z" fill="#E0AE42"/>
<path d="M162.329 248.129H159.921C157.172 249.468 154.329 249.518 151.426 248.771C149.389 244.396 146.729 240.277 145.661 235.486C144.939 232.252 145.874 229.108 146.423 225.973C146.917 223.14 147.674 220.351 148.074 217.498C148.668 213.31 148.44 209.093 146.319 205.478C139.397 193.676 138.057 180.672 137.34 167.446C137.009 161.375 136.494 155.313 135.723 149.276C135.765 147.019 136.407 144.814 137.582 142.888C141.711 137.548 145.963 132.307 150.561 127.357C152.081 125.826 152.993 123.795 153.127 121.642C153.335 117.899 155.55 116.633 159.481 116.974C160.386 117.053 161.251 117.355 162.141 117.518C164.198 117.894 164.554 117.612 164.326 115.58C163.669 109.77 162.952 103.97 161.246 98.3486C160.944 97.3597 160.44 96.3115 161.246 95.2929C167.703 95.5402 174.007 96.8109 180.277 98.2596C188.682 100.237 196.964 102.433 204.272 107.318C208.394 110.026 212.088 113.334 215.234 117.132C213.424 121.053 211.669 124.994 209.825 128.9C209.374 129.542 209.039 130.258 208.836 131.016C208.769 131.236 208.69 131.453 208.598 131.664C207.906 133.147 207.372 134.68 206.497 136.064C205.854 136.811 204.915 136.855 204.059 137.112C201.167 137.993 200.86 138.492 200.509 141.562C200.287 143.496 199.609 145.414 201.197 147.095C201.295 148.663 200.435 149.923 199.827 151.258C197.74 155.827 195.511 160.326 193.706 165.014C192.831 167.293 193.276 167.98 195.684 168.702C198.245 168.85 200.86 168.178 203.357 169.197C203.596 169.427 203.781 169.709 203.897 170.02C204.014 170.332 204.059 170.665 204.03 170.996C203.535 179.51 204.875 188.084 203.1 196.569C202.072 201.478 200.292 206.215 199.936 211.278C199.842 212.623 200.43 214.096 199.441 215.342C200.005 221.963 201.315 228.465 202.517 234.991C203.619 240.989 204 247.051 202.843 253.093C202.398 255.372 201.518 257.513 199.461 258.907C198.967 259.061 198.794 258.833 198.853 258.358L195.886 248.504C195.483 246.248 195.474 243.94 195.862 241.681C196.618 236.203 195.956 230.68 196.302 225.112C195.565 225.315 195.768 225.78 195.807 226.067C196.663 231.857 195.461 237.553 194.986 243.278C194.992 244.282 194.609 245.249 193.918 245.978C184.198 246.555 174.474 247.14 164.747 247.733C163.936 247.812 163.13 248 162.329 248.129Z" fill="#E13B35"/>
<path d="M171.075 26.9814L171.194 30.5463C170.418 33.4635 170.883 36.5834 169.711 39.4462C168.692 40.1335 167.822 39.4116 166.942 39.105C165.256 38.4411 163.406 38.3167 161.647 38.749C159.822 39.2435 158.457 40.8801 158.64 42.4425C158.878 44.445 160.391 44.6625 162.027 44.9147C164.247 45.2657 166.655 44.8306 168.648 46.2892C167.659 52.7812 166.581 59.2583 163.98 65.3646C161.508 71.1347 157.78 76.1928 154.977 81.775C154.037 83.639 152.04 84.0098 150.428 84.9196C148.307 86.4029 145.933 85.3201 143.694 85.597C138.68 85.3844 134.299 83.5154 130.398 80.44C128.613 77.8393 126.853 75.2188 125.676 72.3659C125.958 74.3436 127.194 76.4005 126.255 78.6205C123.051 78.6502 120.371 77.2608 117.849 75.4907C118.773 71.2233 119.463 66.9087 119.916 62.5661C119.916 61.6712 119.54 60.7515 119.698 59.911C120.193 57.2756 119.268 55.5896 116.732 54.749C112.48 50.4771 111.036 45.241 111.471 39.3671C111.921 38.7738 111.338 37.9777 111.857 37.3893C112.139 35.0131 113.043 32.7533 114.477 30.838C117.567 26.4227 122.779 26.3337 125.988 30.6254C126.675 31.5401 127.229 32.5537 127.965 33.7206C129.043 31.7429 129.943 29.7651 131.115 27.9654C135.822 20.6625 142.487 17.9134 151.006 19.6341C156.139 20.6724 161.315 21.5723 166.141 23.7527C167.919 24.611 169.577 25.6963 171.075 26.9814Z" fill="#8B4A0D"/>
<path d="M208.257 131.387C208.282 131.214 208.302 131.041 208.321 130.863C208.816 130.156 209.251 129.379 210.047 128.915C211.15 128.441 212.337 128.196 213.538 128.193C216.316 127.55 219.135 127.649 221.943 127.664C222.764 127.758 223.59 127.634 224.415 127.753C226.199 128.036 227.967 128.414 229.711 128.885C230.729 129.256 231.659 129.815 232.633 130.274C233.127 130.541 233.671 130.799 234.161 131.115C234.413 131.264 234.628 131.468 234.79 131.712C234.951 131.956 235.056 132.234 235.095 132.524C238.66 135.491 239.08 139.634 239.426 143.812C239.921 149.978 240.415 156.143 240.954 162.309C241.01 163.458 241.35 164.576 241.943 165.562C243.253 167.105 243.881 168.969 244.48 170.858C247.075 179.001 249.449 187.214 252.564 195.189C253.127 196.638 253.666 198.121 253.597 199.728C254.833 207.99 250.398 215.55 243.07 216.742C234.64 218.126 225.429 213.226 224.435 203.253C224.326 202.185 223.941 201.177 223.906 200.104C223.436 197.389 224.311 194.759 224.4 192.074C224.667 190.096 225.018 188.084 224.939 186.052C225.187 182.546 225.592 179.041 225.038 175.52C224.821 174.551 224.911 173.539 225.295 172.623C226.319 171.738 227.085 172.623 227.906 173.033C229.112 173.597 230.264 174.314 231.763 174.022C228.989 172.603 226.141 171.362 224.519 168.514C222.68 166.072 222.907 163.036 222.131 160.287C222.161 158.279 220.702 157.701 219.164 157.226C215.853 156.298 212.61 155.142 209.459 153.765C207.219 152.722 206.037 150.507 203.901 149.444C202.937 148.677 201.498 148.559 200.934 147.268C199.392 146.136 198.462 144.845 199.738 142.927C199.867 142.626 199.923 142.299 199.901 141.973C200.203 137.755 200.781 137.112 204.905 136.292C205.378 136.168 205.842 136.013 206.294 135.827C207.476 134.942 208.831 135.046 210.185 135.14C215.586 135.021 220.976 135.688 226.185 137.117C221.142 134.794 215.713 135.258 210.363 135.041C208.425 134.522 207.407 133.488 208.257 131.387Z" fill="#8B4A0D"/>
<path d="M222.561 159.832C223.688 162.65 223.248 165.928 225.132 168.519C225.454 169.78 226.279 170.991 225.627 172.371C225.75 176.855 226.344 181.345 225.627 185.834C224.692 187.204 223.125 187.318 221.735 187.743C218.653 188.684 215.842 190.354 213.543 192.613C212.847 193.193 212.332 193.96 212.059 194.823C212.811 195.08 213.004 194.507 213.295 194.18C215.82 191.322 219.122 189.261 222.798 188.247C223.545 188.035 224.504 187.501 225.033 188.361C225.468 189.068 224.692 189.711 224.232 190.265C222.185 192.737 220.163 195.234 218.645 198.087C215.362 204.267 214.195 210.759 215.871 217.642C216.074 218.482 216.114 219.446 217.355 220.307C216.984 217.424 215.951 215.001 215.916 212.396C215.817 204.87 218.541 198.443 223.392 192.821C223.807 192.326 224.346 191.881 225.112 192.143C225.033 194.833 224.222 197.473 224.554 200.188C224.628 204.85 224.4 209.493 225.483 214.126C227.357 222.106 234.981 224.351 240.44 223.773C248.232 222.947 253.572 217.142 254.052 209.266C254.25 206.002 254.299 202.685 252.934 199.57C253.083 196.915 251.604 194.729 250.828 192.346C248.389 184.874 245.945 177.404 243.496 169.938C243.001 168.455 242.507 166.972 242.012 165.523C246.759 169.276 249.048 174.512 250.69 180.099C251.611 183.178 253.085 186.063 255.041 188.613C259.1 194.022 262.136 199.728 262.334 206.803C262.546 214.497 259.323 220.282 253.681 225.019C251.11 227.179 248.677 229.508 245.681 231.159C238.487 235.115 231.056 234.818 223.431 232.757C213.75 230.19 206.166 224.841 200.816 216.401C199.461 213.81 200.499 211.189 200.954 208.672C201.721 204.391 203.021 200.213 203.975 195.96C204.199 194.995 204.607 194.082 205.177 193.271C209.946 186.35 213.444 178.635 215.506 170.487C215.592 170.169 215.719 169.864 215.881 169.577C217.8 168.331 218.789 166.447 219.664 164.401C220.366 162.739 220.672 160.752 222.561 159.832Z" fill="#E13B35"/>
<path d="M143.629 85.0136L150.433 84.9147C154.452 87.1891 156.801 90.8727 158.838 94.843C160.044 96.1978 160.257 97.9728 160.747 99.6044C162.09 104.187 162.968 108.893 163.367 113.651C163.58 116.005 162.932 116.707 160.598 116.43C158.555 116.166 156.482 116.264 154.472 116.717C153.37 116.974 152.569 117.582 152.712 118.729C153.236 122.888 150.922 125.74 148.405 128.539C146.596 130.556 144.747 132.544 143.006 134.63C142.512 135.229 142.017 136.015 141.028 135.876C140.306 134.917 140.786 133.978 141.147 133.083C145.632 121.928 147.471 110.161 149.281 98.3733C149.735 95.4067 148.959 93.4784 146.348 92.1829C145.315 90.9122 146.037 89.424 145.854 88.0494C146.507 86.0272 143.955 86.3189 143.629 85.0136Z" fill="#E13B35"/>
<path d="M198.833 258.388L199.441 258.937C202.26 268.331 204.598 277.839 206.754 287.397C206.834 287.962 206.867 288.532 206.853 289.103C203.001 286.032 200.583 281.81 197.993 277.775C194.665 272.593 192.297 266.937 190.413 261.058C189.701 258.828 190.299 258.284 192.44 258.403C194.581 258.522 196.702 258.428 198.833 258.388Z" fill="#013A17"/>
<path d="M216.222 169.513C214.945 176.902 212.098 183.932 207.871 190.126C203.708 196.247 203.194 203.293 201.404 210.032C200.865 212.059 200.984 214.265 200.796 216.386L199.402 215.397C198.269 209.261 200.821 203.669 201.993 197.874C203.407 190.957 203.732 183.862 202.957 176.845C202.68 174.373 203.629 171.98 203.402 169.513C204.035 168.732 204.821 168.806 205.641 169.117C206.373 169.637 206.235 170.388 206.185 171.125C205.805 176.598 205.196 182.062 205.913 187.787C208.88 183.278 210.645 178.393 212.415 173.538C212.969 172.054 213.043 170.284 214.393 169.117C215.08 168.9 215.728 168.88 216.222 169.513Z" fill="#873D3D"/>
<path d="M140.771 135.847C144.267 132.297 147.486 128.504 150.66 124.663C152.054 122.967 152.089 121.023 151.911 119.061C151.718 116.949 152.588 116.218 154.63 115.931C156.766 115.629 158.858 115.278 160.954 115.852C162.774 116.346 162.932 115.357 162.769 114.027C162.047 108.425 161.226 102.843 159.372 97.4684C159.133 96.6059 158.95 95.729 158.823 94.843L161.251 95.288C162.166 99.3671 163.204 103.421 163.97 107.525C164.554 110.66 164.791 113.859 165.197 117.023C165.434 118.853 164.163 118.63 163.13 118.452C161.523 118.175 159.985 117.518 158.309 117.528C155.006 117.528 154.23 118.131 153.928 121.444C153.728 123.98 152.629 126.361 150.828 128.158C146.378 132.766 142.378 137.785 138.467 142.863C138.334 143.036 138.042 143.085 137.824 143.194C137.409 140.188 138.69 137.854 140.771 135.847Z" fill="#873D3D"/>
<path d="M213.33 128.752L209.785 129.464C209.32 129.523 209.073 129.379 209.226 128.865C210.64 125.691 212.089 122.532 213.454 119.337C213.804 118.439 214.42 117.668 215.219 117.127L236.895 117.033C238.873 117.033 239.97 117.938 240.049 119.965C239.85 120.268 239.588 120.524 239.281 120.716C238.974 120.908 238.629 121.031 238.269 121.078C232.707 121.409 227.13 121.31 221.567 121.167C218.368 121.083 216.455 122.24 215.407 125.201C214.952 126.487 214.561 127.896 213.33 128.752Z" fill="#252741"/>
<path d="M168.653 46.2843C165.973 46.0173 163.283 45.8344 160.618 45.4635C158.146 45.1224 157.088 42.6403 158.358 40.3807C159.51 38.3436 161.819 37.4981 164.816 37.8393C166.581 38.0371 168.039 39.0457 169.716 39.4363C169.834 41.7948 169.063 44.0099 168.653 46.2843Z" fill="#23140D"/>
<path d="M238.418 120.549C238.638 120.349 238.895 120.194 239.175 120.094C239.455 119.994 239.752 119.95 240.049 119.965C240.569 120.316 240.93 120.776 240.643 121.419C239.021 125.009 237.381 128.592 235.723 132.168C235.644 132.346 235.308 132.405 235.095 132.524L233.953 131.461C233.82 131.258 233.622 131.006 233.696 130.799C234.957 127.239 236.168 123.654 238.418 120.549Z" fill="#BCBDC6"/>
<path d="M24.3164 255.407C23.2633 254.967 22.7787 253.978 22.403 252.989C21.6871 250.945 20.5016 249.097 18.9419 247.595C18.22 246.452 18.3535 245.241 18.6897 244.02C21.3498 234.349 27.0952 228.074 37.7849 227.263C42.6551 226.892 47.1792 228.445 51.2485 231.263C52.1137 231.862 52.8603 232.667 54.1607 233.053C53.8442 231.901 53.0136 231.397 52.2868 230.888C39.5847 221.988 22.581 226.734 18.3535 242.368C18.0816 243.357 18.0272 244.519 16.9444 245.122C13.7899 239.733 14.6205 234.185 17.1916 229.093C19.5006 224.524 19.7824 220.489 17.8195 215.743C14.9913 208.89 15.9011 202.087 20.5241 196.208C23.2237 192.781 24.3362 189.093 23.7973 184.964C23.1693 180.153 24.0494 175.456 24.5043 170.749C25.5391 160.52 28.2311 150.527 32.4747 141.162C34.7194 136.138 37.3053 131.273 40.6823 126.897C42.1112 127.886 42.2991 129.518 42.8183 130.962C47.2682 143.288 51.9851 155.486 58.8529 166.739C62.1557 172.178 66.1953 177.078 69.3844 182.561C70.1254 183.837 70.7859 185.158 71.3622 186.517C71.6588 187.199 72 187.951 71.4215 188.608C70.843 189.266 70.042 188.91 69.3597 188.658C67.2748 187.869 65.325 186.761 63.5797 185.375C56.8851 180.148 50.3733 174.724 45.4784 167.654C45.0927 167.1 44.801 166.339 43.7083 166.294C44.9971 168.8 46.676 171.085 48.6823 173.063C55.3523 179.886 61.9332 186.907 71.1891 190.368C72.5686 190.863 73.0037 191.931 73.1669 193.226C73.5085 195.925 73.6209 198.647 73.5031 201.365C73.1071 208.113 73.7407 214.882 75.382 221.439C75.55 222.084 75.6282 222.75 75.6143 223.417C75.2633 225.132 73.5624 225.889 72.8603 227.372C71.2435 230.749 69.864 234.23 68.5933 237.755C68.3164 238.517 68.3164 239.382 67.4462 239.787C66.0766 239.604 65.9629 238.378 65.5872 237.439C63.33 231.491 59.6715 226.176 54.9221 221.943C48.5389 216.287 41.2806 213.854 32.8356 216.752C32.2324 216.954 31.555 217.093 31.1248 217.681C31.56 218.176 32.0395 217.874 32.44 217.716C41.241 214.255 48.5637 217.221 55.0111 223.155C61.1619 228.836 64.7911 236.054 66.8183 244.119C66.274 247.942 64.2829 251.411 61.2559 253.81C60.5834 254.358 59.8566 255.006 58.8578 254.433C58.2002 253.473 58.4079 252.376 58.3634 251.323C58.0766 245.117 55.3968 241.696 49.3745 240.302C43.2732 238.888 37.1619 238.324 31.3968 241.632C27.1248 244.04 24.618 247.55 24.8751 252.643C24.8751 253.577 25.2509 254.635 24.3164 255.407Z" fill="#E13B35"/>
<path d="M58.67 259.862C58.67 261.548 58.6305 263.229 58.6156 264.915L57.6267 283.575C58.1535 284.67 58.4249 285.87 58.4207 287.086C58.4164 288.301 58.1365 289.499 57.602 290.591C57.6317 294.546 57.9481 298.502 57.602 302.457C55.6984 304.628 52.979 305.251 50.4524 306.245C49.7132 306.315 48.9675 306.224 48.267 305.978C45.2609 305.093 42.6008 305.815 40.1682 307.674C39.5609 308.231 38.8409 308.651 38.0569 308.905C37.1011 309.146 36.0903 309.03 35.2139 308.578C34.4129 307.891 34.225 306.912 33.9432 305.958C30.4821 293.221 28.0643 280.247 25.602 267.323C25.3704 266.525 25.4336 265.67 25.78 264.915C25.8618 264.209 25.7181 263.496 25.3696 262.878C25.1772 262.681 25.0666 262.418 25.0602 262.143C25.0538 261.868 25.152 261.6 25.335 261.394C25.1669 260.583 25.0038 259.773 24.8406 258.957C24.8406 258.255 24.8406 257.548 24.801 256.841C25.1224 254.591 26.8233 253.29 28.3214 251.926C35.4611 245.414 47.4858 243.555 55.3424 249.899C56.9296 251.174 58.1855 252.628 58.7738 254.601C59.7182 256.356 59.3573 258.111 58.67 259.862Z" fill="#8B4A0D"/>
<path d="M95.1199 96.7812C95.6489 90.5958 98.9864 86.7491 104.831 84.8455C107.949 83.851 111.151 83.1427 114.398 82.7293C114.947 82.6551 115.763 82.2991 115.965 83.3226C116.796 84.8059 115.807 85.9926 115.377 87.2781C114.853 88.2373 114.388 89.2213 113.859 90.1904C112.939 91.1792 112.771 93.063 110.789 92.796C109.938 91.1842 111.323 89.5575 110.729 87.9258C109.973 89.8443 109.211 91.7577 109.983 93.8591C110.843 96.8702 110.972 100.005 111.555 103.066C113.038 110.724 114.403 118.423 118.477 125.276C120.722 129.043 123.728 132.198 126.546 135.501C127.649 136.791 129.449 137.76 129.088 139.921C124.85 139.773 120.934 138.764 118.151 135.303C116.213 132.89 114.111 130.769 111.229 129.533C109.627 128.85 109.33 127.664 110.047 126.101C110.736 124.69 111.235 123.194 111.53 121.651C111.995 118.897 111.145 117.622 108.445 117.023C104.687 116.193 101.716 117.676 99.0754 120.208C98.309 120.939 97.7898 122.472 96.3757 121.795C95.1594 121.211 95.3869 119.817 95.3869 118.685C95.3127 111.763 95.461 104.841 95.3078 97.9481C95.3437 97.5495 95.2791 97.1483 95.1199 96.7812Z" fill="#E13B35"/>
<path d="M114.833 87.4166C115.209 86.0519 115.59 84.6873 115.965 83.3226L117.829 75.4858L126.235 78.5266C127.044 78.4341 127.864 78.5189 128.638 78.775C129.412 79.0312 130.12 79.4525 130.715 80.0099C134.635 82.6749 138.739 84.8851 143.644 85.0334C145.365 85.2114 147.451 85.0334 146.378 87.8962C146.492 89.6168 145.627 90.5662 144.059 91.1496C134.428 94.754 125.043 95.2831 116.163 89.0433C115.56 88.6082 114.799 88.3412 114.833 87.4166Z" fill="#FEFEFE"/>
<path d="M75.2782 223.417C73.4056 217.228 72.5702 210.773 72.806 204.311C73.0425 200.467 72.9051 196.609 72.3956 192.791C72.2621 191.881 72.0891 191.308 71.1101 190.996C65.9284 189.464 61.8048 186.176 57.7949 182.754C52.5291 178.26 47.5501 173.493 43.6342 167.723C43.0903 166.917 42.0273 166.047 43.1397 165.251C44.2522 164.455 44.8801 165.78 45.3795 166.512C50.2695 173.661 56.7516 179.219 63.4512 184.529C65.3699 186.084 67.5204 187.329 69.8245 188.218C70.2398 188.376 70.7145 188.895 71.1397 188.351C71.4957 187.896 71.0656 187.451 70.8826 187.006C68.806 182.022 65.5031 177.795 62.4376 173.429C55.827 164.035 50.8184 153.77 46.675 143.08C44.5983 137.721 42.6601 132.302 40.6626 126.907C41.1125 126.2 41.3795 125.365 42.1459 124.9C44.4203 130.968 46.698 137.037 48.979 143.105C53.7207 155.748 60.6329 167.189 68.4351 178.126C72.5291 183.822 74.8134 190.111 74.8134 197.117C74.7887 205.028 74.67 212.89 76.8208 220.588C77.0185 221.3 77.0185 222.052 76.8208 222.764C76.5242 223.525 76.0446 223.817 75.2782 223.417Z" fill="#873D3D"/>
<path d="M58.6057 254.863C52.3313 243.708 37.0334 244.816 28.6131 252.391C27.1298 253.716 26.0569 255.357 24.7812 256.841C24.6279 256.346 24.4747 255.896 24.3164 255.422C23.6935 250.532 24.4549 246.156 28.5241 242.769C30.6008 241.038 32.8406 239.723 35.4462 239.219C40.5406 238.168 45.8197 238.449 50.7738 240.035C56.2423 241.824 58.6403 245.033 58.7936 250.754C58.8232 251.98 58.9073 253.226 58.9666 254.438C59.1891 254.853 59.0161 254.967 58.6057 254.863Z" fill="#FEFEFD"/>
<path d="M95.1199 96.7812C96.6032 97.1174 96.0494 98.3486 96.0544 99.2089C96.0989 105.79 96.0543 112.376 96.0939 118.962C96.0939 119.881 95.7231 120.939 96.8554 121.785C98.7837 119.15 101.117 117.108 104.396 116.297C106.41 115.831 108.52 116.028 110.413 116.86C112.925 117.849 112.564 120.133 112.213 122.156C111.989 123.54 111.504 124.869 110.784 126.072C109.622 127.906 110.368 128.638 112.044 129.231C114.178 129.942 116.021 131.331 117.29 133.187C119.476 136.48 122.393 138.428 126.319 138.932C127.283 139.134 128.229 139.415 129.147 139.773C131.075 140.415 131.921 141.775 131.782 143.777C128.564 142.01 125.123 140.68 121.553 139.822C119.436 139.352 117.785 137.844 116.504 136.069C114.586 133.389 112.183 131.337 108.954 130.462C107.219 129.968 106.942 129.038 107.659 127.54C108.292 126.21 108.855 124.845 109.543 123.54C110.161 122.358 110.991 121.157 109.943 119.916C109.451 119.31 108.809 118.843 108.08 118.564C107.351 118.284 106.561 118.202 105.79 118.324C101.498 118.912 98.9715 121.592 97.3448 125.365C97.1516 125.901 96.9202 126.423 96.6526 126.927C96.5085 127.132 96.3025 127.285 96.0649 127.364C95.8274 127.443 95.5707 127.444 95.3325 127.367C94.7441 127.234 94.6205 126.764 94.5958 126.24C94.4821 124.035 94.1804 121.844 94.0272 119.634C93.5426 112.201 93.5723 104.744 94.1162 97.3152L95.1199 96.7812Z" fill="#873D3D"/>
<path d="M16.9246 245.122C18.0568 240.079 19.8467 235.392 23.6984 231.693C32.6328 223.1 46.0964 224.485 54.2249 231.659C54.8529 232.213 56.0395 232.895 55.283 233.829C54.4227 234.892 53.5377 233.894 52.8109 233.251C48.9443 229.894 44.3609 227.96 39.3374 227.881C32.0593 227.763 26.0618 230.675 22.22 237.127C20.3115 240.331 18.9122 243.758 18.9369 247.595C17.953 247.006 17.1767 246.284 16.9246 245.122Z" fill="#873D3D"/>
<path d="M116.732 54.7441C117.671 54.9172 118.616 55.0902 119.555 55.2732C120.168 55.3869 120.737 55.7033 120.544 56.3708C120.049 58.4079 120.692 60.5636 119.881 62.5612L116.732 54.7441Z" fill="#27170E"/>
<path d="M111.857 37.4141C111.857 38.0915 112.128 38.8331 111.471 39.3919L110.976 36.4796L111.857 37.4141Z" fill="#5B2F11"/>
<path d="M25.775 264.925C28.4302 278.977 31.2138 293.004 34.7837 306.868C34.9271 307.412 35.1545 307.941 35.3424 308.475C35.9011 308.999 35.9258 309.775 36.3313 310.63C36.9889 309.795 37.2806 308.653 38.3684 308.41C41.8294 304.766 45.8937 304.218 50.4425 305.904C55.4908 306.635 58.5711 315.792 55.0062 318.848C51.5995 324.504 46.8677 325.948 40.7812 323.105C39.4759 322.497 38.5118 322.18 38.7491 324.178C39.8418 333.305 40.8059 342.472 43.3523 351.328C43.9505 353.461 44.925 355.47 46.2299 357.261C45.602 358.057 44.712 357.755 43.9308 357.755C37.2559 357.755 30.581 357.79 23.911 357.755C19.9555 357.755 18.131 356.188 17.4833 352.435C14.4013 335.242 11.3193 318.052 8.23733 300.865C6.25958 289.577 4.32138 278.269 2.30408 266.981C2.00742 265.325 2.44254 264.771 4.1434 264.801C11.1249 264.925 18.1063 264.633 25.0828 265.058C25.3186 265.046 25.5516 265.001 25.775 264.925Z" fill="#FEFEFE"/>
<path d="M25.3201 261.394C25.3201 261.889 25.3448 262.383 25.3547 262.878H2.94189C3.12009 262.305 3.48234 261.808 3.97232 261.463C4.46231 261.118 5.05258 260.944 5.6514 260.969C11.8269 260.915 18.0123 260.939 24.1829 260.969C24.5835 261.045 24.9681 261.189 25.3201 261.394Z" fill="#FEFEFD"/>
<path d="M146.012 260.504H152.934C152.934 268.153 153.137 275.832 152.85 283.456C152.489 293.533 151.847 303.56 148.979 313.31C148.399 315.109 147.47 316.776 146.245 318.215C145.918 318.621 145.533 319.283 144.85 318.937C144.356 318.68 144.45 318.052 144.529 317.602C145.745 310.354 144.747 303.031 145.335 295.733C145.958 288.049 145.468 280.272 145.503 272.539C145.518 268.524 145.246 264.494 146.012 260.504Z" fill="#013A17"/>
<path d="M193.913 246.007C194.395 241.468 194.876 236.933 195.357 232.4C195.619 229.928 195.12 227.506 194.952 225.063C194.897 224.272 194.818 223.219 196.104 223.407C197.093 223.55 197.355 224.396 197.162 225.281C196.776 227.07 196.905 228.89 196.994 230.675C197.295 236.672 196.41 242.606 195.881 248.539C195.09 247.802 195.896 245.815 193.913 246.007Z" fill="#873D3D"/>
<path d="M151.506 248.44C154.329 248.796 157.108 248.138 159.911 248.124C159.961 250.828 159.975 253.533 160.079 256.237C160.134 257.661 159.387 258.156 158.146 258.161C151.501 258.161 144.855 258.161 138.21 258.161C137.842 258.197 137.471 258.123 137.146 257.946C136.821 257.77 136.556 257.5 136.386 257.172C136.435 256.766 136.519 256.361 136.529 255.955C136.643 250.393 136.638 250.378 142.181 249.562C144.608 249.206 147.046 248.91 149.483 248.574C149.765 248.344 150.111 248.208 150.473 248.184C150.836 248.16 151.196 248.25 151.506 248.44Z" fill="black"/>
<path d="M131.787 143.773C131.275 142.23 130.366 140.849 129.152 139.768C127.313 136.831 124.781 134.472 122.472 131.941C115.787 124.583 113.261 115.471 111.461 106.072C110.69 102.057 110.205 97.9876 109.592 93.9431C109.592 92.9988 110.23 92.8059 110.976 92.7219C112.124 92.005 112.781 90.8628 113.533 89.8047C114.324 89.2163 115.095 89.5427 115.852 89.8789C116.84 90.309 117.77 90.8035 118.7 91.3226C125.468 95.0853 132.544 95.377 139.871 93.3004C142.047 92.6774 144.124 91.5352 146.502 91.7775C150.507 94.0074 150.507 94.0124 149.834 98.754C148.039 111.426 145.834 123.995 140.771 135.867C139.458 138.172 138.461 140.643 137.805 143.214C137.013 145.145 136.462 147.166 136.163 149.231C136.237 150.22 136.534 151.347 135.115 151.703C133.592 149.241 133.463 146.19 131.787 143.773Z" fill="#FEFEFE"/>
<path d="M58.6057 254.863L58.9815 254.423C63.3424 252.331 65.1323 248.401 66.3634 244.074C66.2893 242.527 66.3634 241.004 67.3523 239.703C67.8863 236.01 70.1014 232.934 71.1101 229.409C71.8122 226.967 73.5822 225.201 75.2732 223.417L76.806 222.784C78.942 230.156 80.9247 237.528 77.3301 245.033C77.8839 247.011 76.3412 248.366 75.7429 249.978C74.3882 252.979 73.8344 256.213 73.0087 259.372C69.2015 258.848 65.34 259.461 61.5378 258.784C61.0495 258.7 60.5474 258.763 60.0944 258.963C59.6415 259.164 59.2578 259.493 58.9914 259.911L58.6403 259.857L58.6057 254.863Z" fill="#E1AE42"/>
<path d="M135.135 151.708C136.025 151.1 135.629 149.968 136.183 149.236C137.36 153.192 137.206 157.305 137.572 161.345C138.477 171.273 138.561 181.281 141.033 191.011C141.897 194.615 143.286 198.072 145.157 201.271C149.394 208.361 149.918 215.797 147.664 223.585C146.825 226.589 146.316 229.676 146.146 232.791C145.938 235.96 147.194 238.878 148.687 241.656C149.854 243.822 151.16 245.938 151.52 248.445C150.858 248.623 150.21 249.004 149.503 248.603C149.429 246.888 148.598 245.404 147.718 244.059C143.842 238.126 143.698 231.827 145.281 225.201C146.576 219.792 147.718 214.324 145.973 208.791C144.766 204.954 142.635 201.503 141.266 197.711C138.702 190.529 137.138 183.029 136.618 175.421C136.124 168.574 135.629 161.721 135.056 154.883C134.942 153.79 135.229 152.766 135.135 151.708Z" fill="#873D3D"/>
<path d="M75.7528 249.988C75.9456 248.227 76.6823 246.645 77.3399 245.043C81.9876 240.405 85.9481 235.199 89.8492 229.943C93.8591 224.549 97.7849 219.095 101.394 213.419C101.661 213.009 102.052 212.677 102.319 212.267C102.813 211.446 103.515 211.817 104.035 212.114C104.697 212.499 104.415 213.068 104.035 213.597C97.4438 223.085 90.9815 232.663 83.56 241.548C81.1125 244.485 78.3634 247.169 75.7528 249.988Z" fill="#873D3D"/>
<path d="M58.9913 259.911C58.7837 258.784 58.9567 257.854 60.3807 258.027C64.2571 258.522 68.1533 258.358 72.0396 258.443C72.6428 258.443 72.8554 258.868 72.9988 259.362C73.5723 260.47 74.6057 259.941 75.4067 259.946C82.6452 259.995 89.8788 259.946 97.1174 259.99C97.9085 259.99 98.7689 259.698 99.4808 260.326C90.8776 260.326 82.2645 260.608 73.6712 260.297C68.7911 260.143 63.9011 259.97 58.9913 259.911Z" fill="#BCBCC4"/>
<path d="M55.0013 318.848C56.5587 312.583 55.4957 309.503 50.4376 305.904L57.5971 302.443C58.4228 306.358 57.8542 310.354 58.2003 314.309C58.2285 315.344 58.4941 316.359 58.9765 317.276C57.6663 317.854 56.5587 318.927 55.0013 318.848Z" fill="#14152A"/>
<path d="M57.597 290.591C57.597 288.254 57.6053 285.915 57.6218 283.575C60.0544 283.263 62.2695 284.069 64.4747 284.915C65.4636 285.29 66.2547 285.993 66.1904 287.065C66.1261 288.138 65.2015 288.766 64.2373 289.043C62.0371 289.602 59.8121 290.072 57.597 290.591Z" fill="#BDBDC8"/>
<path d="M68.6823 358.388C68.3065 358.665 67.8912 359.511 67.55 358.423C66.1821 354.055 64.8455 349.679 63.5401 345.295C63.3473 344.638 63.194 343.738 64.2323 343.501C65.0828 343.303 65.3498 343.916 65.5525 344.598C66.7688 348.663 68.267 352.643 68.9839 356.846C68.8801 357.36 68.7812 357.874 68.6823 358.388Z" fill="#3F1A08"/>
<path d="M83.8318 260.9C84.5537 260.9 84.9641 260.9 85.3745 260.9C85.9678 260.9 86.6007 260.934 86.5759 261.755C86.5759 262.452 86.0815 262.744 85.4387 262.823C85.0341 262.908 84.6182 262.927 84.2076 262.878C83.2187 262.64 81.4486 263.609 81.3992 261.933C81.3448 259.99 83.2781 261.483 83.8318 260.9Z" fill="#BDBDC6"/>
<path d="M92.45 262.838C91.8853 262.875 91.3188 262.875 90.7541 262.838C90.6322 262.837 90.5119 262.811 90.4003 262.762C90.2887 262.713 90.188 262.643 90.1045 262.554C90.0209 262.465 89.9561 262.361 89.9139 262.246C89.8718 262.132 89.8531 262.01 89.8591 261.889C89.8623 261.767 89.8896 261.646 89.9393 261.535C89.989 261.423 90.0602 261.323 90.1488 261.239C90.2374 261.155 90.3417 261.089 90.4557 261.045C90.5698 261.001 90.6913 260.981 90.8134 260.984C91.7034 260.93 92.5934 260.93 93.4834 260.939C94.2052 260.939 95.0804 260.86 95.0507 261.928C95.0211 262.996 94.1311 262.848 93.424 262.883C93.0977 262.883 92.7763 262.883 92.4352 262.883L92.45 262.838Z" fill="#BDBDC8"/>
<path d="M205.839 169.523H203.392L194.932 169.345C194.462 168.821 194.65 168.252 194.873 167.728C197.444 161.75 200.232 155.862 202.888 149.928C202.971 149.694 203.109 149.482 203.289 149.31C203.469 149.139 203.688 149.012 203.926 148.939C204.42 148.672 205.014 148.316 205.37 149.088C206.897 152.396 210.037 153.503 213.078 154.665C215.59 155.619 218.176 156.396 220.776 157.098C222.304 157.508 222.967 158.25 222.551 159.822C221.345 162.358 220.109 164.89 218.932 167.446C218.383 168.638 217.651 169.498 216.232 169.498H214.205C212.881 170.053 211.46 170.341 210.025 170.345C208.589 170.349 207.167 170.07 205.839 169.523Z" fill="#FEFEFE"/>
<path d="M203.936 148.954L194.962 169.355C192.391 168.44 191.886 167.303 193.048 164.707C195.654 158.878 198.299 153.063 200.93 147.248C201.849 147.936 203.268 147.782 203.936 148.954Z" fill="#262740"/>
<path d="M143.693 191.412C143.693 190.423 143.926 189.468 144.836 189.77C146.452 190.319 146.027 192.198 146.7 193.404C147.041 194.017 146.205 194.492 145.711 194.393C143.886 194.111 144.168 192.401 143.693 191.412Z" fill="#FBEFED"/>
<path d="M140.573 148.747C140.035 149.473 141.177 151.382 139.446 151.55C137.884 151.698 138.205 150.067 138.314 149.122C138.423 148.178 138.235 146.739 139.842 146.823C140.836 146.878 140.836 147.713 140.573 148.747Z" fill="#FBEAE9"/>
<path d="M150.462 238.853C149.345 237.933 148.949 236.509 148.608 235.13C148.47 234.586 149.281 233.874 149.711 234.067C151.234 234.749 151.436 236.331 151.689 237.76C151.792 238.398 151.258 238.774 150.462 238.853Z" fill="#FBF5F3"/>
<path d="M139.674 172.623C139.768 171.634 139.476 170.428 140.826 170.472C142.087 170.522 141.938 171.669 141.904 172.549C141.869 173.429 142.106 174.616 140.86 174.675C139.288 174.744 139.886 173.325 139.674 172.623Z" fill="#FADBDA"/>
<path d="M152.969 215.52C152.757 216.405 153.093 217.666 151.604 217.656C151.417 217.667 151.23 217.626 151.065 217.537C150.899 217.448 150.762 217.315 150.667 217.153C150.572 216.991 150.524 216.805 150.528 216.618C150.532 216.43 150.588 216.247 150.69 216.089C151.155 215.219 150.141 213.464 152.015 213.473C153.508 213.483 152.707 214.798 152.969 215.52Z" fill="#FBECEB"/>
<path d="M208.257 131.387C208.04 133.078 208.954 134.052 210.363 134.714C210.394 134.772 210.414 134.835 210.421 134.9C210.427 134.965 210.421 135.03 210.402 135.093C210.383 135.155 210.352 135.214 210.311 135.264C210.269 135.315 210.218 135.356 210.161 135.387C208.91 135.951 207.585 135.817 206.269 135.807C206.591 134.203 207.271 132.692 208.257 131.387Z" fill="#2C293E"/>
<path d="M209.226 128.885L209.785 129.483L208.302 130.883C208.316 130.505 208.406 130.134 208.564 129.791C208.723 129.449 208.948 129.141 209.226 128.885Z" fill="#6C3431"/>
<path d="M147.555 43.3473C145.251 42.9518 142.116 41.9728 138.813 41.7998C137.721 41.7454 137.3 40.8405 137.434 39.822C137.538 38.7458 138.049 37.7499 138.863 37.0383C141.637 34.665 146.551 34.1409 149.785 35.8813C150.513 36.2732 151.133 36.8397 151.589 37.53C152.044 38.2204 152.322 39.013 152.396 39.8368C152.742 42.4178 151.328 43.6539 147.555 43.3473Z" fill="#23140D"/>
<path d="M154.912 56.8455C154.769 55.6242 154.576 53.6761 154.299 51.7379C154.087 50.2546 154.794 49.0284 155.239 47.7379C155.585 46.7738 156.425 46.5711 157.256 46.927C158.21 47.3275 157.607 48.1483 157.35 48.5982C156.02 50.932 156.218 53.3547 156.939 55.7379C157.498 57.5772 157.028 59.3374 156.766 61.063C156.425 63.283 154.66 64.2719 152.554 64.5884C151.821 64.6856 151.079 64.6939 150.344 64.6131C149.3 64.5191 147.59 65.1075 147.674 63.3968C147.758 61.686 149.325 62.6452 150.269 62.6601C153.562 62.6947 154.912 61.2509 154.912 56.8455Z" fill="#3E1908"/>
<path d="M152.934 70.1013C151.664 73.2756 148.845 72.5735 146.467 72.4845C142.566 72.3065 138.838 70.2348 139.12 66.0568C139.316 65.9037 139.558 65.8205 139.807 65.8205C140.056 65.8205 140.298 65.9037 140.494 66.0568C143.461 68.2027 146.957 68.707 150.457 69.1916C151.332 69.3448 152.292 69.3201 152.934 70.1013Z" fill="#6E3014"/>
<path d="M152.934 70.1013C148.015 69.8294 143.224 69.1124 139.12 66.0716C138.734 64.4004 139.58 63.9604 141.048 64.1433C144.124 65.7503 147.288 67.0309 150.853 66.9419C151.221 66.8948 151.595 66.9332 151.945 67.0541C152.296 67.175 152.614 67.3752 152.875 67.639C153.196 68.267 154.457 67.9159 154.324 69.0037C154.24 69.8096 153.612 69.9925 152.934 70.1013Z" fill="#3E1908"/>
<path d="M123.268 43.2683C123.59 45.6168 121.642 46.6057 120.588 48.0792C120.409 48.2592 120.167 48.3632 119.913 48.3697C119.659 48.3761 119.412 48.2845 119.224 48.1138C119.105 48.0276 119.006 47.9172 118.932 47.79C118.859 47.6627 118.813 47.5214 118.798 47.3754C118.783 47.2293 118.8 47.0817 118.846 46.9423C118.892 46.8028 118.967 46.6747 119.065 46.5662C121.572 44.5538 120.964 42.1162 120.138 39.644C119.862 38.8085 119.644 37.8937 120.712 37.5971C121.78 37.3004 122.121 38.3239 122.22 39.0804C122.393 40.5686 123.575 41.78 123.268 43.2683Z" fill="#401B08"/>
<path d="M163.812 49.3844C163.812 51.3028 161.953 53.7552 160.559 53.7453C159.075 53.7453 158.828 52.801 158.873 51.5896C158.947 49.513 160.677 47.3275 162.269 47.3523C163.619 47.377 163.812 48.2917 163.812 49.3844Z" fill="#24150D"/>
<path d="M145.518 47.1199C145.562 49.3844 143.896 51.7577 142.373 51.822C140.851 51.8863 140.574 51.021 140.574 49.775C140.574 47.9703 142.354 45.4784 143.723 45.5773C144.687 45.6415 145.825 45.8195 145.518 47.1199Z" fill="#26150C"/>
<path d="M152.885 67.6391C150.003 67.7083 147.13 67.6045 144.415 66.492C143.14 65.9629 141.76 65.5031 141.058 64.1434C144.638 63.9852 148.015 64.9098 151.372 66.0074C152.223 66.2893 152.935 66.5859 152.885 67.6391Z" fill="#6D3013"/>
<path d="M130.685 79.9901C129.101 79.8294 127.572 79.323 126.205 78.5068C126.032 76.1681 125.132 73.9135 125.305 70.9913C127.278 74.2843 128.989 77.1372 130.685 79.9901Z" fill="#411B08"/>
<path d="M252.895 199.59C255.09 202.675 254.981 206.274 254.68 209.716C254.146 215.871 251.125 220.593 245.35 223.189C239.881 225.661 234.616 224.801 229.612 221.745C228.003 220.73 226.746 219.244 226.012 217.488C223.476 211.906 223.417 206.116 224.529 200.208C225.137 204.658 225.894 208.964 229.473 212.227C234.052 216.405 241.612 217.587 246.655 214.759C251.407 212.099 254.116 205.523 252.895 199.59Z" fill="#FDFDFD"/>
<path d="M238.418 120.549C237.365 124.366 235.169 127.713 233.968 131.461L232.564 130.734C231.684 129.033 232.969 127.768 233.553 126.433C234.803 123.506 234.65 123.179 231.575 123.145C231.001 123.145 230.423 123.194 229.854 123.145C226.749 122.813 224.104 123.169 223.476 126.991C223.389 127.312 223.222 127.606 222.99 127.844C222.758 128.082 222.469 128.256 222.151 128.351C219.224 128.529 216.272 128.232 213.365 128.761C214.279 126.586 215.169 124.405 216.119 122.25C216.667 121.009 217.642 120.48 219.046 120.494C225.483 120.539 231.951 120.534 238.418 120.549Z" fill="#FEFDFD"/>
<path d="M225.073 192.173C220.128 196.578 217.76 202.279 216.667 208.658C216.049 212.311 216.85 215.792 217.859 219.258C218.077 220.01 218.611 220.954 217.365 221.276C216.282 221.557 215.985 220.598 215.738 219.822C212.999 211.293 214.467 203.352 219.12 195.857C220.756 193.221 222.798 190.912 225.107 188.227C220.242 189.498 216.208 191.253 213.37 195.09C212.954 195.654 212.564 196.776 211.486 196.114C210.299 195.382 211.046 194.63 211.58 193.869C213.983 190.546 217.281 188.504 221.098 187.224C222.581 186.729 224.064 186.289 225.548 185.824C225.795 187.98 225.3 190.072 225.073 192.173Z" fill="#873D3D"/>
<path d="M222.121 128.341C222.339 127.901 222.576 127.471 222.764 127.021C224.628 122.457 224.628 122.457 229.681 122.457C231.065 122.457 232.455 122.457 233.844 122.457C235.154 122.482 235.555 123.056 235.095 124.366C234.344 126.522 232.974 128.425 232.554 130.705L229.948 129.498C229.948 129.004 230.269 128.569 230.373 128.104C230.586 127.115 232.079 126.126 230.63 125.172C229.473 124.415 226.62 125.211 225.978 126.289C225.562 126.986 225.33 127.797 224.628 128.302L222.121 128.341Z" fill="#BDBDC7"/>
<path d="M224.628 128.331C225.78 124.41 227.253 123.595 231.476 124.445C232.218 124.593 232.574 124.836 232.183 125.548C231.446 126.883 231.486 128.648 229.948 129.528L224.628 128.331Z" fill="#FCFCFB"/>
<path d="M210.161 135.387C210.225 135.159 210.294 134.937 210.363 134.714C214.7 134.22 219.006 134.685 223.303 135.209C225.246 135.441 226.67 136.663 227.946 138.176C222.156 136.302 216.124 135.985 210.161 135.387Z" fill="#F4F0EB"/>
<path d="M225.617 172.396C225.228 171.15 225.061 169.847 225.122 168.544C226.705 170.658 228.948 172.184 231.496 172.88C232.222 173.083 233.103 173.276 232.885 174.245C232.638 175.337 231.748 175.135 230.907 174.952C228.92 174.507 227.308 173.384 225.617 172.396Z" fill="#401A09"/>
<path d="M146.507 91.7578C139.248 94.5019 131.926 96.5686 124.079 94.3041C121.216 93.4784 118.64 92.0445 116.04 90.7145C115.239 90.309 114.492 89.78 113.538 89.8047L114.838 87.4166C119.169 90.3041 123.738 92.6032 129.024 93.1372C132.252 93.4685 135.387 92.7812 138.477 92.0495C140.321 91.6824 142.129 91.1546 143.881 90.4722C145.182 89.9135 146.067 89.2559 146.354 87.8764C146.621 89.162 145.983 90.4821 146.507 91.7578Z" fill="#BCBDC8"/>
<path d="M205.839 169.523H214.205C212.463 176.674 209.479 183.463 205.389 189.582C204.915 182.833 204.692 176.163 205.839 169.523Z" fill="#E13B35"/>
<path d="M67.3621 239.703C67.5055 241.271 66.7836 242.635 66.3732 244.074C64.3559 238.176 62.126 232.401 58.131 227.466C54.1359 222.532 49.3596 218.655 42.9418 217.236C39.8751 216.603 36.6931 216.827 33.7453 217.884C33.0432 218.111 32.3708 218.418 31.6736 218.665C30.9765 218.912 30.1903 219.051 29.7948 218.136C29.33 216.999 30.3535 217.028 30.9765 216.742C39.288 212.89 48.0741 215.026 54.9468 221.048C60.2294 225.662 64.2172 231.574 66.5166 238.2C66.752 238.726 67.0351 239.229 67.3621 239.703Z" fill="#873D3C"/>
<path d="M38.3634 308.41L36.3016 312.232C35.7201 311.062 35.3932 309.781 35.3424 308.475L38.3634 308.41Z" fill="#242131"/>
<path d="M110.977 92.7219L109.592 93.9431C108.88 92.5686 109.211 88.0544 110.087 87.021C110.428 86.6254 110.804 86.3238 111.333 86.6601C111.568 86.826 111.743 87.0635 111.832 87.337C111.921 87.6105 111.919 87.9055 111.827 88.178C111.57 89.7058 111.268 91.2138 110.977 92.7219Z" fill="#8A3D3D"/>
</g>
<defs>
<clipPath id="clip0_54827_1160">
<rect width="262.279" height="400.351" fill="white"/>
</clipPath>
</defs>
</svg>
