<svg width="34" height="34" viewBox="0 0 34 34" fill="none" xmlns="http://www.w3.org/2000/svg">
<path d="M17.0002 2.83325C9.18342 2.83325 2.8335 9.18317 2.8335 16.9999C2.8335 24.8167 9.18342 31.1666 17.0002 31.1666C24.8169 31.1666 31.1668 24.8167 31.1668 16.9999C31.1668 9.18317 24.8169 2.83325 17.0002 2.83325ZM17.0002 4.06514C24.1511 4.06514 29.9349 9.84893 29.9349 16.9999C29.9349 24.1509 24.1511 29.9347 17.0002 29.9347C9.84918 29.9347 4.06538 24.1509 4.06538 16.9999C4.06538 9.84893 9.84918 4.06514 17.0002 4.06514ZM16.9328 9.29102C16.7797 9.30784 16.6385 9.3814 16.5369 9.49719C16.4354 9.61298 16.3809 9.76261 16.3842 9.91659V16.384H9.91683C9.89759 16.3831 9.87832 16.3831 9.85909 16.384C9.77819 16.3878 9.69883 16.4074 9.62553 16.4419C9.55224 16.4763 9.48645 16.5249 9.43192 16.5848C9.3774 16.6446 9.3352 16.7147 9.30774 16.7909C9.28028 16.867 9.2681 16.9479 9.27189 17.0288C9.27568 17.1097 9.29537 17.1891 9.32984 17.2623C9.3643 17.3356 9.41287 17.4014 9.47276 17.4559C9.53265 17.5104 9.60269 17.5526 9.67888 17.5801C9.75508 17.6075 9.83593 17.6197 9.91683 17.6159H16.3842V24.0833C16.3831 24.1649 16.3981 24.2459 16.4286 24.3217C16.459 24.3974 16.5042 24.4663 16.5615 24.5245C16.6188 24.5826 16.6871 24.6287 16.7624 24.6602C16.8377 24.6917 16.9185 24.708 17.0002 24.708C17.0818 24.708 17.1626 24.6917 17.2379 24.6602C17.3132 24.6287 17.3815 24.5826 17.4388 24.5245C17.4961 24.4663 17.5413 24.3974 17.5717 24.3217C17.6022 24.2459 17.6173 24.1649 17.6161 24.0833V17.6159H24.0835C24.1651 17.617 24.2462 17.6019 24.3219 17.5715C24.3976 17.5411 24.4666 17.4959 24.5247 17.4386C24.5828 17.3813 24.629 17.313 24.6605 17.2377C24.692 17.1624 24.7082 17.0815 24.7082 16.9999C24.7082 16.9183 24.692 16.8375 24.6605 16.7622C24.629 16.6869 24.5828 16.6186 24.5247 16.5613C24.4666 16.504 24.3976 16.4588 24.3219 16.4283C24.2462 16.3979 24.1651 16.3828 24.0835 16.384H17.6161V9.91659C17.618 9.8289 17.6011 9.74183 17.5667 9.66118C17.5322 9.58054 17.4809 9.50819 17.4162 9.44896C17.3515 9.38974 17.2749 9.34502 17.1916 9.31778C17.1082 9.29054 17.02 9.28142 16.9328 9.29102Z" fill="#E2AF42"/>
</svg>
