<svg width="34" height="34" viewBox="0 0 34 34" fill="none" xmlns="http://www.w3.org/2000/svg">
<path d="M17 2.83325C9.18327 2.83325 2.83334 9.18317 2.83334 16.9999C2.83334 24.8167 9.18327 31.1666 17 31.1666C24.8168 31.1666 31.1667 24.8167 31.1667 16.9999C31.1667 9.18317 24.8167 2.83325 17 2.83325ZM17 4.06514C24.151 4.06514 29.9348 9.84893 29.9348 16.9999C29.9348 24.1509 24.151 29.9347 17 29.9347C9.84903 29.9347 4.06523 24.1509 4.06523 16.9999C4.06523 9.84893 9.84903 4.06514 17 4.06514ZM16.9326 9.29102C16.7796 9.30784 16.6383 9.3814 16.5368 9.49719C16.4352 9.61298 16.3808 9.76261 16.3841 9.91659V16.384H9.91668C9.89744 16.3831 9.87817 16.3831 9.85893 16.384C9.77803 16.3878 9.69867 16.4074 9.62538 16.4419C9.55209 16.4763 9.4863 16.5249 9.43177 16.5848C9.37724 16.6446 9.33504 16.7147 9.30759 16.7909C9.28013 16.867 9.26795 16.9479 9.27174 17.0288C9.27553 17.1097 9.29522 17.1891 9.32969 17.2623C9.36415 17.3356 9.41272 17.4014 9.47261 17.4559C9.5325 17.5104 9.60254 17.5526 9.67873 17.5801C9.75493 17.6075 9.83578 17.6197 9.91668 17.6159H16.3841V24.0833C16.3829 24.1649 16.398 24.2459 16.4284 24.3217C16.4589 24.3974 16.5041 24.4663 16.5614 24.5245C16.6187 24.5826 16.687 24.6287 16.7623 24.6602C16.8376 24.6917 16.9184 24.708 17 24.708C17.0816 24.708 17.1625 24.6917 17.2378 24.6602C17.3131 24.6287 17.3814 24.5826 17.4387 24.5245C17.496 24.4663 17.5412 24.3974 17.5716 24.3217C17.602 24.2459 17.6171 24.1649 17.616 24.0833V17.6159H24.0833C24.165 17.617 24.246 17.6019 24.3217 17.5715C24.3975 17.5411 24.4664 17.4959 24.5245 17.4386C24.5827 17.3813 24.6288 17.313 24.6603 17.2377C24.6918 17.1624 24.7081 17.0815 24.7081 16.9999C24.7081 16.9183 24.6918 16.8375 24.6603 16.7622C24.6288 16.6869 24.5827 16.6186 24.5245 16.5613C24.4664 16.504 24.3975 16.4588 24.3217 16.4283C24.246 16.3979 24.165 16.3828 24.0833 16.384H17.616V9.91659C17.6178 9.8289 17.601 9.74183 17.5665 9.66118C17.532 9.58054 17.4807 9.50819 17.4161 9.44896C17.3514 9.38974 17.2748 9.34502 17.1914 9.31778C17.108 9.29054 17.0198 9.28142 16.9326 9.29102Z" fill="#7891A2"/>
</svg>
