<svg width="20" height="20" viewBox="0 0 20 20" fill="none" xmlns="http://www.w3.org/2000/svg">
<g clip-path="url(#clip0_54762_924)">
<path d="M10 0.714233C11.6254 0.714233 13.1842 1.35992 14.3336 2.50925C15.4829 3.65858 16.1286 5.21741 16.1286 6.8428C16.1286 13.6571 18.6143 14.9999 19.2857 14.9999H0.714294C1.40001 14.9999 3.87144 13.6428 3.87144 6.8428C3.87144 5.21741 4.51712 3.65858 5.66645 2.50925C6.81578 1.35992 8.37461 0.714233 10 0.714233V0.714233Z" stroke="white" stroke-width="1.42857" stroke-linecap="round" stroke-linejoin="round"/>
<path d="M7.85709 17.6143C7.98057 18.0886 8.25795 18.5085 8.64573 18.8083C9.03352 19.108 9.50981 19.2707 9.99994 19.2707C10.4901 19.2707 10.9664 19.108 11.3542 18.8083C11.7419 18.5085 12.0193 18.0886 12.1428 17.6143" stroke="white" stroke-width="1.42857" stroke-linecap="round" stroke-linejoin="round"/>
</g>
<defs>
<clipPath id="clip0_54762_924">
<rect width="20" height="20" fill="white"/>
</clipPath>
</defs>
</svg>
