<svg width="18" height="18" viewBox="0 0 18 18" fill="none" xmlns="http://www.w3.org/2000/svg">
<g clip-path="url(#clip0_54784_1425)">
<path d="M9.64315 11.5715L5.78601 12.2658L6.42887 8.35724L13.796 1.01581C13.9155 0.895302 14.0577 0.799652 14.2144 0.734378C14.3711 0.669104 14.5391 0.635498 14.7089 0.635498C14.8786 0.635498 15.0466 0.669104 15.2033 0.734378C15.36 0.799652 15.5022 0.895302 15.6217 1.01581L16.9846 2.37867C17.1051 2.49819 17.2007 2.64039 17.266 2.79707C17.3313 2.95374 17.3649 3.12179 17.3649 3.29152C17.3649 3.46125 17.3313 3.6293 17.266 3.78598C17.2007 3.94266 17.1051 4.08486 16.9846 4.20438L9.64315 11.5715Z" stroke="#000001" stroke-width="1.28571" stroke-linecap="round" stroke-linejoin="round"/>
<path d="M15.4288 12.2144V16.0715C15.4288 16.4125 15.2933 16.7396 15.0522 16.9807C14.8111 17.2218 14.4841 17.3572 14.1431 17.3572H1.92878C1.58779 17.3572 1.26076 17.2218 1.01964 16.9807C0.778525 16.7396 0.643066 16.4125 0.643066 16.0715V3.85725C0.643066 3.51625 0.778525 3.18923 1.01964 2.94811C1.26076 2.70699 1.58779 2.57153 1.92878 2.57153H5.78592" stroke="#000001" stroke-width="1.28571" stroke-linecap="round" stroke-linejoin="round"/>
</g>
<defs>
<clipPath id="clip0_54784_1425">
<rect width="18" height="18" fill="white"/>
</clipPath>
</defs>
</svg>
