<svg width="12" height="12" viewBox="0 0 12 12" fill="none" xmlns="http://www.w3.org/2000/svg">
<path d="M6.00098 0C6.36902 0.000175852 6.66699 0.298911 6.66699 0.666992L6.66699 5.33398H11.333C11.7011 5.33398 11.9998 5.63297 12 6.00098C11.9998 6.36902 11.7011 6.66699 11.333 6.66699H6.66699V11.333C6.66699 11.7011 6.36902 11.9998 6.00098 12C5.63297 11.9998 5.33398 11.7011 5.33398 11.333V6.66699L0.666992 6.66699C0.298911 6.66699 0.000175852 6.36902 0 6.00098C0.000210941 5.63297 0.298932 5.33398 0.666992 5.33398L5.33398 5.33398L5.33398 0.666992C5.33398 0.298932 5.63297 0.000210941 6.00098 0Z" fill="#7891A2"/>
</svg>
