<svg width="34" height="34" viewBox="0 0 34 34" fill="none" xmlns="http://www.w3.org/2000/svg">
<path d="M19.6629 9.80033C19.6629 8.83566 18.8818 8.04963 17.9232 8.04963H9.89892C8.94028 8.04963 8.15916 8.83566 8.15916 9.80033V14.0163C8.15916 14.981 8.94028 15.767 9.89892 15.767H17.9232C18.8818 15.767 19.6629 14.981 19.6629 14.0163V9.80033ZM18.3492 13.9449C18.3492 14.1592 18.1717 14.3379 17.9587 14.3379H9.89892C9.68589 14.3379 9.50836 14.1592 9.50836 13.9449V9.76461C9.50836 9.55023 9.68589 9.37159 9.89892 9.37159H17.9587C18.1717 9.37159 18.3492 9.55023 18.3492 9.76461V13.9449ZM19.7339 18.8397C19.7339 19.197 19.4499 19.5185 19.0593 19.5185H8.76275C8.4077 19.5185 8.08815 19.2327 8.08815 18.8397C8.08815 18.4824 8.37219 18.1608 8.76275 18.1608H19.0593C19.4499 18.1608 19.7339 18.4824 19.7339 18.8397ZM19.7694 22.3411C19.7694 22.6984 19.4854 23.0199 19.0948 23.0199H8.76275C8.4077 23.0199 8.08815 22.7341 8.08815 22.3411C8.08815 21.9838 8.37219 21.6622 8.76275 21.6622H19.0948C19.4499 21.6622 19.7694 21.9838 19.7694 22.3411ZM27.0836 12.4443H26.764C26.4089 12.4443 26.0894 12.7301 26.0894 13.0874C26.0894 13.4447 26.3734 13.7662 26.764 13.7662H27.0836C28.5748 13.7662 29.853 14.9453 29.853 16.4816V27.3788C29.853 28.7008 28.7878 29.7726 27.4386 29.8084H27.1901C25.9119 29.7012 24.9177 28.5936 24.9177 27.3074V12.2299V11.7297V7.12069C24.9177 4.7626 23.0359 2.83325 20.7281 2.83325H7.02298C4.67963 2.83325 2.83334 4.7626 2.83334 7.12069V26.9143C2.83334 29.2724 4.67963 31.166 7.02298 31.166H27.1546C27.2256 31.166 27.2611 31.166 27.3321 31.166C29.4269 31.2018 31.1667 29.4511 31.1667 27.3074V16.4816C31.1667 14.2307 29.3204 12.4443 27.0836 12.4443ZM4.18255 26.9143V7.12069C4.18255 5.5129 5.46075 4.19094 7.02298 4.19094H20.7281C22.3258 4.19094 23.604 5.5129 23.604 7.12069V10.8722V11.7297V27.3788C23.604 28.3078 23.9591 29.0938 24.4917 29.8084H7.02298C5.42524 29.8441 4.18255 28.5221 4.18255 26.9143ZM19.7339 25.7353C19.7339 26.0926 19.4499 26.4141 19.0593 26.4141H8.76275C8.4077 26.4141 8.08815 26.1283 8.08815 25.7353C8.08815 25.3423 8.37219 25.0565 8.76275 25.0565H19.0593C19.4499 25.0922 19.7339 25.378 19.7339 25.7353Z" fill="#7891A2"/>
</svg>
