<svg width="34" height="34" viewBox="0 0 34 34" fill="none" xmlns="http://www.w3.org/2000/svg">
<path d="M19.6631 9.80033C19.6631 8.83566 18.882 8.04963 17.9233 8.04963H9.89908C8.94043 8.04963 8.15931 8.83566 8.15931 9.80033V14.0163C8.15931 14.981 8.94043 15.767 9.89908 15.767H17.9233C18.882 15.767 19.6631 14.981 19.6631 14.0163V9.80033ZM19.7341 18.8397C19.7341 19.197 19.45 19.5185 19.0595 19.5185H8.7629C8.40785 19.5185 8.0883 19.2327 8.0883 18.8397C8.0883 18.4824 8.37234 18.1608 8.7629 18.1608H19.0595C19.45 18.1608 19.7341 18.4824 19.7341 18.8397ZM19.7696 22.3411C19.7696 22.6984 19.4855 23.0199 19.095 23.0199H8.7629C8.40785 23.0199 8.0883 22.7341 8.0883 22.3411C8.0883 21.9838 8.37234 21.6622 8.7629 21.6622H19.095C19.45 21.6622 19.7696 21.9838 19.7696 22.3411ZM27.0837 12.4443H26.7642C26.4091 12.4443 26.0896 12.7301 26.0896 13.0874C26.0896 13.4447 26.3736 13.7662 26.7642 13.7662H27.0837C28.5749 13.7662 29.8531 14.9453 29.8531 16.4816V27.3788C29.8531 28.7008 28.788 29.7726 27.4388 29.8084H27.1902C25.912 29.7012 24.9179 28.5936 24.9179 27.3074V12.2299V11.7297V7.12069C24.9179 4.7626 23.0361 2.83325 20.7282 2.83325H7.02314C4.67978 2.83325 2.8335 4.7626 2.8335 7.12069V26.9143C2.8335 29.2724 4.67978 31.166 7.02314 31.166H27.1547C27.2257 31.166 27.2612 31.166 27.3322 31.166C29.4271 31.2018 31.1668 29.4511 31.1668 27.3074V16.4816C31.1668 14.2307 29.3205 12.4443 27.0837 12.4443ZM4.1827 26.9143V7.12069C4.1827 5.5129 5.4609 4.19094 7.02314 4.19094H20.7282C22.326 4.19094 23.6042 5.5129 23.6042 7.12069V10.8722V11.7297V27.3788C23.6042 28.3078 23.9592 29.0938 24.4918 29.8084H7.02314C5.42539 29.8441 4.1827 28.5221 4.1827 26.9143ZM19.7341 25.7353C19.7341 26.0926 19.45 26.4141 19.0595 26.4141H8.7629C8.40785 26.4141 8.0883 26.1283 8.0883 25.7353C8.0883 25.3423 8.37234 25.0565 8.7629 25.0565H19.0595C19.45 25.0922 19.7341 25.378 19.7341 25.7353Z" fill="#E2AF42"/>
</svg>
