<svg width="28" height="28" viewBox="0 0 28 28" fill="none" xmlns="http://www.w3.org/2000/svg">
<path d="M18.6668 24.5V22.1667C18.6668 20.929 18.1752 19.742 17.3 18.8668C16.4248 17.9917 15.2378 17.5 14.0002 17.5H7.00016C5.76249 17.5 4.5755 17.9917 3.70033 18.8668C2.82516 19.742 2.3335 20.929 2.3335 22.1667V24.5" stroke="#F50057" stroke-width="1.55556" stroke-linecap="round" stroke-linejoin="round"/>
<path d="M18.6665 3.64935C19.6672 3.90878 20.5535 4.49316 21.1861 5.31076C21.8188 6.12836 22.1621 7.13289 22.1621 8.16669C22.1621 9.20048 21.8188 10.205 21.1861 11.0226C20.5535 11.8402 19.6672 12.4246 18.6665 12.684" stroke="#F50057" stroke-width="1.55556" stroke-linecap="round" stroke-linejoin="round"/>
<path d="M25.6665 24.5V22.1667C25.6657 21.1327 25.3216 20.1282 24.6881 19.311C24.0546 18.4938 23.1677 17.9102 22.1665 17.6517" stroke="#F50057" stroke-width="1.55556" stroke-linecap="round" stroke-linejoin="round"/>
<path d="M10.5002 12.8333C13.0775 12.8333 15.1668 10.744 15.1668 8.16667C15.1668 5.58934 13.0775 3.5 10.5002 3.5C7.92283 3.5 5.8335 5.58934 5.8335 8.16667C5.8335 10.744 7.92283 12.8333 10.5002 12.8333Z" stroke="#F50057" stroke-width="1.55556" stroke-linecap="round" stroke-linejoin="round"/>
</svg>
