<svg width="28" height="28" viewBox="0 0 28 28" fill="none" xmlns="http://www.w3.org/2000/svg">
<path d="M22.1668 19.8334H24.5002C25.2002 19.8334 25.6668 19.3667 25.6668 18.6667V15.1667C25.6668 14.1167 24.8502 13.1834 23.9168 12.95C21.8168 12.3667 18.6668 11.6667 18.6668 11.6667C18.6668 11.6667 17.1502 10.0334 16.1002 8.98335C15.5168 8.51669 14.8168 8.16669 14.0002 8.16669H5.8335C5.1335 8.16669 4.55016 8.63335 4.20016 9.21669L2.56683 12.6C2.41234 13.0506 2.3335 13.5237 2.3335 14V18.6667C2.3335 19.3667 2.80016 19.8334 3.50016 19.8334H5.8335" stroke="#80CBC4" stroke-width="1.55556" stroke-linecap="round" stroke-linejoin="round"/>
<path d="M8.16683 22.1667C9.45549 22.1667 10.5002 21.122 10.5002 19.8333C10.5002 18.5447 9.45549 17.5 8.16683 17.5C6.87816 17.5 5.8335 18.5447 5.8335 19.8333C5.8335 21.122 6.87816 22.1667 8.16683 22.1667Z" stroke="#80CBC4" stroke-width="1.55556" stroke-linecap="round" stroke-linejoin="round"/>
<path d="M10.5 19.8333H17.5" stroke="#80CBC4" stroke-width="1.55556" stroke-linecap="round" stroke-linejoin="round"/>
<path d="M19.8333 22.1667C21.122 22.1667 22.1667 21.122 22.1667 19.8333C22.1667 18.5447 21.122 17.5 19.8333 17.5C18.5447 17.5 17.5 18.5447 17.5 19.8333C17.5 21.122 18.5447 22.1667 19.8333 22.1667Z" stroke="#80CBC4" stroke-width="1.55556" stroke-linecap="round" stroke-linejoin="round"/>
</svg>
