<svg width="34" height="34" viewBox="0 0 34 34" fill="none" xmlns="http://www.w3.org/2000/svg">
<path d="M23.7764 22.5172C25.7413 20.4218 26.9247 17.613 26.9247 14.5366C26.9247 8.0942 21.6776 2.83325 15.2023 2.83325C8.72714 2.83325 3.47998 8.0942 3.47998 14.5366C3.47998 20.9791 8.72714 26.24 15.2023 26.24C17.4575 26.24 19.5787 25.5935 21.365 24.4789L27.6169 30.7207C27.9295 31.0328 28.3091 31.1666 28.711 31.1666C29.1129 31.1666 29.5148 31.0105 29.8051 30.7207C30.0953 30.4309 30.2516 30.0297 30.2516 29.6284C30.2516 29.2272 30.0953 28.8259 29.8051 28.5361L23.7764 22.5172ZM5.04296 14.5366C5.04296 8.9413 9.59794 4.3937 15.2023 4.3937C20.8068 4.3937 25.3617 8.9413 25.3617 14.5366C25.3617 20.132 20.8068 24.6796 15.2023 24.6796C9.59794 24.6796 5.04296 20.132 5.04296 14.5366Z" fill="#E2AF42"/>
</svg>
