<svg width="34" height="34" viewBox="0 0 34 34" fill="none" xmlns="http://www.w3.org/2000/svg">
<path d="M23.7765 22.5172C25.7414 20.4218 26.9248 17.613 26.9248 14.5366C26.9248 8.0942 21.6777 2.83325 15.2025 2.83325C8.72726 2.83325 3.4801 8.0942 3.4801 14.5366C3.4801 20.9791 8.72726 26.24 15.2025 26.24C17.4576 26.24 19.5788 25.5935 21.3651 24.4789L27.617 30.7207C27.9296 31.0328 28.3092 31.1666 28.7111 31.1666C29.113 31.1666 29.5149 31.0105 29.8052 30.7207C30.0955 30.4309 30.2518 30.0297 30.2518 29.6284C30.2518 29.2272 30.0955 28.8259 29.8052 28.5361L23.7765 22.5172ZM5.04308 14.5366C5.04308 8.9413 9.59806 4.3937 15.2025 4.3937C20.8069 4.3937 25.3619 8.9413 25.3619 14.5366C25.3619 20.132 20.8069 24.6796 15.2025 24.6796C9.59806 24.6796 5.04308 20.132 5.04308 14.5366Z" fill="#7891A2"/>
</svg>
