<svg width="18" height="18" viewBox="0 0 18 18" fill="none" xmlns="http://www.w3.org/2000/svg">
<g clip-path="url(#clip0_54784_1199)">
<path d="M3.53519 11.8929C5.13287 11.8929 6.42805 10.5977 6.42805 9.00004C6.42805 7.40235 5.13287 6.10718 3.53519 6.10718C1.93751 6.10718 0.642334 7.40235 0.642334 9.00004C0.642334 10.5977 1.93751 11.8929 3.53519 11.8929Z" stroke="#2D343C" stroke-width="1.28571" stroke-linecap="round" stroke-linejoin="round"/>
<path d="M14.4644 17.3572C16.0621 17.3572 17.3572 16.0621 17.3572 14.4644C17.3572 12.8667 16.0621 11.5715 14.4644 11.5715C12.8667 11.5715 11.5715 12.8667 11.5715 14.4644C11.5715 16.0621 12.8667 17.3572 14.4644 17.3572Z" stroke="#2D343C" stroke-width="1.28571" stroke-linecap="round" stroke-linejoin="round"/>
<path d="M14.4644 6.42854C16.0621 6.42854 17.3572 5.13336 17.3572 3.53568C17.3572 1.938 16.0621 0.642822 14.4644 0.642822C12.8667 0.642822 11.5715 1.938 11.5715 3.53568C11.5715 5.13336 12.8667 6.42854 14.4644 6.42854Z" stroke="#2D343C" stroke-width="1.28571" stroke-linecap="round" stroke-linejoin="round"/>
<path d="M6.11975 7.71439L11.8798 4.82153" stroke="#2D343C" stroke-width="1.28571" stroke-linecap="round" stroke-linejoin="round"/>
<path d="M6.11975 10.2856L11.8798 13.1785" stroke="#2D343C" stroke-width="1.28571" stroke-linecap="round" stroke-linejoin="round"/>
</g>
<defs>
<clipPath id="clip0_54784_1199">
<rect width="18" height="18" fill="white"/>
</clipPath>
</defs>
</svg>
