<svg width="14" height="14" viewBox="0 0 14 14" fill="none" xmlns="http://www.w3.org/2000/svg">
<path d="M5.82 11L8 13.17C8.13376 13.3071 8.30099 13.4069 8.48515 13.4595C8.66931 13.5121 8.86402 13.5158 9.05 13.47C9.23716 13.4265 9.40996 13.3356 9.55182 13.206C9.69367 13.0764 9.7998 12.9125 9.86 12.73L13.44 2.00002C13.5147 1.79897 13.5301 1.5807 13.4844 1.37114C13.4387 1.16159 13.3338 0.969571 13.1821 0.817909C13.0305 0.666247 12.8384 0.561322 12.6289 0.515606C12.4193 0.46989 12.2011 0.485305 12 0.56002L1.27 4.14002C1.08126 4.20449 0.913147 4.3182 0.783053 4.46939C0.652959 4.62058 0.5656 4.80377 0.530005 5.00002C0.493264 5.17851 0.501443 5.36333 0.553807 5.53788C0.606171 5.71243 0.70108 5.87123 0.830005 6.00002L3.57 8.74002L3.48 12.21L5.82 11Z" stroke="#7891A2" stroke-linecap="round" stroke-linejoin="round"/>
<path d="M13.12 0.780029L3.57001 8.74003" stroke="#7891A2" stroke-linecap="round" stroke-linejoin="round"/>
</svg>
