<svg width="33" height="24" viewBox="0 0 33 24" fill="none" xmlns="http://www.w3.org/2000/svg">
<path d="M16.1143 0.300293C16.6774 0.300369 17.2347 0.42106 17.7471 0.654785L17.7461 0.655762L30.7979 6.59912H30.7969C31.221 6.78173 31.5843 7.08221 31.8428 7.46533C32.1064 7.85637 32.2499 8.31701 32.2549 8.78857C32.2562 8.9121 32.2469 9.0354 32.2295 9.15674V17.9399C32.2292 18.4306 31.8315 18.8286 31.3408 18.8286C30.8501 18.8286 30.4524 18.4306 30.4521 17.9399V11.1851L26.1387 13.1421V17.939C26.1387 19.6576 24.795 21.0526 22.9717 21.9644C21.1067 22.8968 18.6396 23.3959 16.1143 23.396C13.5888 23.396 11.121 22.8969 9.25586 21.9644C7.43245 21.0526 6.08887 19.6576 6.08887 17.939V13.1235L1.43164 11.0005V10.9995C1.00777 10.811 0.646529 10.5052 0.392578 10.1167C0.136279 9.72455 7.97469e-05 9.26584 0 8.79736C8.92524e-05 8.32881 0.136189 7.86924 0.392578 7.47705C0.646757 7.08846 1.00841 6.78167 1.43262 6.59326L14.4814 0.654785L14.6758 0.572754C15.1333 0.393115 15.6215 0.300293 16.1143 0.300293ZM7.86621 17.939C7.86621 18.6433 8.44773 19.5729 10.0508 20.3745C11.6124 21.1553 13.7936 21.6187 16.1143 21.6187C18.4347 21.6186 20.6152 21.1553 22.1768 20.3745C23.7797 19.5729 24.3613 18.6433 24.3613 17.939V13.9487L17.7461 16.9507C17.2338 17.1843 16.6773 17.3061 16.1143 17.3062C15.551 17.3062 14.9939 17.1853 14.4814 16.9517L7.86621 13.9341V17.939ZM16.1143 2.07764C15.8056 2.07764 15.4996 2.14393 15.2188 2.27197V2.27295L2.16895 8.21143L2.15723 8.21631C2.04465 8.26561 1.94824 8.34694 1.88086 8.44971C1.81354 8.55269 1.77743 8.67433 1.77734 8.79736C1.77742 8.92032 1.81362 9.0411 1.88086 9.14404C1.93143 9.22133 1.99842 9.28598 2.07617 9.33447L2.15723 9.37744L2.16895 9.3833L15.2188 15.3335C15.4997 15.4616 15.8055 15.5278 16.1143 15.5278C16.4229 15.5278 16.728 15.4616 17.0088 15.3335H17.0107L30.0908 9.39795L30.0986 9.39404C30.2119 9.34397 30.3089 9.26087 30.376 9.15674C30.4094 9.10472 30.4353 9.04854 30.4521 8.98975V8.80322C30.4522 8.76211 30.4555 8.72175 30.4609 8.68213C30.4443 8.60321 30.4146 8.527 30.3691 8.45947C30.2998 8.35675 30.2013 8.27667 30.0869 8.229C30.078 8.22531 30.0693 8.22127 30.0605 8.21729L17.0098 2.27295L17.0088 2.27197C16.7281 2.14396 16.4228 2.07771 16.1143 2.07764Z" fill="#FFB300"/>
</svg>
