<svg width="182" height="76" viewBox="0 0 182 76" fill="none" xmlns="http://www.w3.org/2000/svg">
<path d="M41.0863 48.6186C37.7753 56.5711 34.5937 64.2311 31.3966 71.8818C30.3741 74.3273 28.4029 75.5347 26.1021 75.125C24.3496 74.817 23.1484 73.7606 22.4708 72.1282C15.3622 55.0137 8.25147 37.8971 1.13873 20.7785C0.904648 20.2118 0.495008 19.5835 1.65925 19.5896C10.0738 19.6235 18.4914 19.4633 26.8967 19.7313C32.4407 19.9069 36.8082 22.722 40.1962 27.0648C40.3502 27.265 40.5042 27.4652 40.6736 27.6592C40.7182 27.6969 40.768 27.728 40.8214 27.7516C41.3296 27.6592 41.3142 27.1633 41.4559 26.8276C43.4363 22.106 45.3151 17.3412 47.3756 12.6596C50.6035 5.30768 56.2707 1.2236 64.3156 1.01108C72.3606 0.798562 80.424 0.949485 88.4782 0.946405C88.7226 0.96661 88.9654 1.00262 89.2051 1.0542C88.0316 3.90628 86.8951 6.69368 85.7401 9.47183C77.1818 30.1325 68.6081 50.7941 60.019 71.4568C59.2398 73.3356 58.171 74.7678 56.0643 75.1281C53.7728 75.5224 51.7954 74.2996 50.779 71.8602C47.7894 64.6736 44.8049 57.4869 41.8255 50.3003C41.6345 49.8352 41.422 49.3794 41.0863 48.6186ZM30.1215 53.9162C31.797 49.9646 33.2231 45.8805 35.2251 42.1013C36.8852 38.969 36.4139 36.3356 34.837 33.502C33.0814 30.3481 30.5496 28.3091 26.9676 27.7147C24.3742 27.2835 21.7501 27.5329 19.1413 27.573C17.4997 27.5483 15.855 27.573 14.2133 27.4837C12.8181 27.3943 12.6733 27.8317 13.1938 29.0452C16.4124 36.6928 19.5725 44.3682 22.7603 52.0343C24.0878 55.2252 25.4276 58.4099 26.9245 61.9889L30.1215 53.9162ZM51.3735 52.1975C52.627 55.3237 53.8806 58.453 55.3036 61.9981C62.7571 44.0448 70.0105 26.5781 77.3132 9.00368H69.2467C67.8114 8.98212 66.3761 8.93592 64.9347 8.94516C60.1207 8.97288 56.6865 11.2459 54.8077 15.6103C51.7277 22.7589 48.8078 29.9723 45.8202 37.1702C45.6046 37.6877 45.4106 38.1589 45.6755 38.7749C47.6005 43.2317 49.4762 47.7192 51.3642 52.1975H51.3735Z" fill="#005D3B"/>
<path d="M95.2634 38.8488C97.5026 38.8488 98.3157 39.7451 98.8732 41.1003C102.421 49.7017 105.982 58.299 109.555 66.8922C109.927 67.7885 110.343 68.6694 110.682 69.581C111.326 71.2997 110.682 72.9844 109.167 73.585C107.568 74.2195 106.034 73.5666 105.283 71.8726C104.617 70.3788 103.98 68.8665 103.413 67.3326C103.105 66.5288 102.662 66.2731 101.818 66.2824C97.8691 66.3255 93.9215 66.3255 89.975 66.2824C89.1742 66.2824 88.7985 66.5657 88.5275 67.2957C87.9546 68.8357 87.317 70.3387 86.661 71.8387C85.9156 73.5388 84.4003 74.2072 82.7894 73.5974C81.2802 73.0306 80.541 71.3182 81.2279 69.6426C85.2011 59.992 89.1948 50.3516 93.209 40.7215C93.7172 39.5264 94.595 38.8488 95.2634 38.8488ZM95.9564 49.3947C94.4164 53.0907 93.055 56.4294 91.6629 59.7528C91.4042 60.3688 91.5612 60.5844 92.208 60.5813C94.7152 60.5813 97.2223 60.5813 99.7325 60.5813C100.207 60.5813 100.576 60.5074 100.321 59.8883L95.9564 49.3947Z" fill="#005D3B"/>
<path d="M181.466 71.0533C181.454 71.6751 181.231 72.2743 180.834 72.7527C180.437 73.2312 179.889 73.5605 179.28 73.6867C177.844 74.0594 176.566 73.5265 175.941 72.1806C175.21 70.5995 174.543 68.9918 173.939 67.3573C173.631 66.5657 173.23 66.2701 172.365 66.2793C168.416 66.3255 164.462 66.3193 160.51 66.2793C159.722 66.2793 159.318 66.5288 159.044 67.2772C158.477 68.8172 157.827 70.3233 157.178 71.8264C156.438 73.5296 154.911 74.2134 153.309 73.5943C151.788 73.0091 151.058 71.3213 151.769 69.6334C155.742 59.9704 159.74 50.3198 163.763 40.6815C163.957 40.116 164.331 39.6297 164.828 39.2961C165.324 38.9626 165.916 38.8002 166.513 38.8335C168.022 38.8335 168.829 39.7236 169.359 40.9895C171.891 47.092 174.424 53.1934 176.96 59.2939C178.316 62.5587 179.667 65.8245 181.014 69.0913C181.309 69.7033 181.464 70.3737 181.466 71.0533ZM166.451 49.3978C164.93 53.0723 163.565 56.4172 162.164 59.7435C161.807 60.5875 162.306 60.5659 162.866 60.5659H168.552C171.124 60.5659 171.133 60.5659 170.126 58.145C168.955 55.3268 167.767 52.521 166.451 49.3978Z" fill="#005D3B"/>
<path d="M128.386 58.2528C128.386 54.1472 128.337 50.0415 128.417 45.9328C128.441 44.6793 128.032 44.3559 126.849 44.4175C125.056 44.5099 123.258 44.4544 121.462 44.439C119.528 44.4205 118.299 43.3641 118.228 41.6917C118.157 40.0192 119.46 38.6394 121.357 38.6117C124.949 38.5562 128.543 38.5932 132.137 38.5932C135.165 38.5932 138.193 38.5932 141.22 38.5932C142.566 38.5932 143.629 39.1661 144.149 40.4412C144.341 40.8911 144.415 41.3823 144.364 41.8686C144.313 42.355 144.139 42.8204 143.859 43.2209C143.578 43.6215 143.201 43.9441 142.761 44.1583C142.322 44.3725 141.835 44.4712 141.346 44.4452C139.551 44.4206 137.746 44.5468 135.96 44.4052C134.463 44.2881 134.207 44.8856 134.216 46.2285C134.272 54.024 134.244 61.8225 134.244 69.6211C134.244 72.427 133.283 73.7945 131.318 73.7976C129.353 73.8006 128.389 72.4454 128.389 69.6303L128.386 58.2528Z" fill="#005D3B"/>
<path d="M51.3641 52.1976C53.6772 46.6874 56.0026 41.1866 58.2941 35.6672C61.8464 27.1233 65.3843 18.5732 68.9078 10.017C69.0433 9.68743 69.1357 9.34248 69.2466 9.00368H77.3039C70.0012 26.5874 62.7386 44.0448 55.2942 61.9981C53.8713 58.453 52.6177 55.3237 51.3641 52.1976Z" fill="#E2AF42"/>
<path d="M19.1413 27.573L30.1215 53.9162L26.9306 61.9888C25.4337 58.4099 24.0939 55.2129 22.7665 52.0343C19.5787 44.3682 16.4186 36.6928 13.2 29.0452C12.6887 27.8317 12.8242 27.3943 14.2195 27.4836C15.8549 27.5853 17.4997 27.5483 19.1413 27.573Z" fill="#E2AF42"/>
</svg>
