<svg width="20" height="20" viewBox="0 0 20 20" fill="none" xmlns="http://www.w3.org/2000/svg">
<path d="M4.00781 4.00641C7.12746 0.886789 12.185 0.886891 15.3047 4.00641C18.2922 6.99397 18.4191 11.7589 15.6846 14.897L18.1719 17.3853C18.3886 17.6023 18.3888 17.9536 18.1719 18.1705C17.955 18.3874 17.6037 18.3872 17.3867 18.1705L14.8984 15.6832C11.7603 18.4176 6.99537 18.2908 4.00781 15.3033C0.888294 12.1836 0.888193 7.12605 4.00781 4.00641ZM14.5195 4.79156C11.8338 2.10596 7.47866 2.10585 4.79297 4.79156C2.10725 7.47726 2.10736 11.8324 4.79297 14.5181C7.47872 17.2039 11.8338 17.2039 14.5195 14.5181C17.2053 11.8324 17.2053 7.47731 14.5195 4.79156Z" fill="#004B49"/>
</svg>
